<?xml version="1.0" encoding="UTF-8" standalone="no"?>
<!-- Created with Inkscape (http://www.inkscape.org/) -->

<svg
   width="406.39999mm"
   height="228.59999mm"
   viewBox="0 0 406.39999 228.59999"
   version="1.1"
   id="svg5"
   xml:space="preserve"
   inkscape:version="1.2.2 (732a01da63, 2022-12-09)"
   sodipodi:docname="approxi_sqrt.svg"
   xmlns:inkscape="http://www.inkscape.org/namespaces/inkscape"
   xmlns:sodipodi="http://sodipodi.sourceforge.net/DTD/sodipodi-0.dtd"
   xmlns="http://www.w3.org/2000/svg"
   xmlns:svg="http://www.w3.org/2000/svg"><sodipodi:namedview
     id="namedview7"
     pagecolor="#505050"
     bordercolor="#eeeeee"
     borderopacity="1"
     inkscape:showpageshadow="0"
     inkscape:pageopacity="0"
     inkscape:pagecheckerboard="0"
     inkscape:deskcolor="#505050"
     inkscape:document-units="mm"
     showgrid="false"
     inkscape:zoom="0.68221662"
     inkscape:cx="932.98812"
     inkscape:cy="365.71962"
     inkscape:window-width="2481"
     inkscape:window-height="1368"
     inkscape:window-x="950"
     inkscape:window-y="0"
     inkscape:window-maximized="0"
     inkscape:current-layer="g10703" /><defs
     id="defs2" /><g
     inkscape:label="Calque 1"
     inkscape:groupmode="layer"
     id="layer1"
     transform="translate(108.99487,-7.5461502)"><text
       xml:space="preserve"
       style="font-size:38.8056px;font-family:Alef;-inkscape-font-specification:Alef;fill:#ffffff;fill-opacity:1;stroke:none;stroke-width:20.896;stroke-linecap:square;paint-order:fill markers stroke"
       x="-25.102564"
       y="140.46153"
       id="text5266"><tspan
         sodipodi:role="line"
         id="tspan5264"
         style="stroke-width:20.896"
         x="-25.102564"
         y="140.46153" /></text><g
       id="g10703"
       transform="matrix(2.8514871,0,0,2.8514871,131.37758,-280.80682)"><text
         xml:space="preserve"
         style="font-size:14.8461px;font-family:Alef;-inkscape-font-specification:Alef;fill:#b3b3b3;stroke:none;stroke-width:0.877868;stroke-linecap:square;stroke-opacity:0.944795;paint-order:fill markers stroke"
         x="-29.213438"
         y="123.83728"
         id="text786"><tspan
           sodipodi:role="line"
           id="tspan784"
           style="stroke-width:0.877868"
           x="-29.213438"
           y="123.83728" /></text><rect
         style="opacity:1;fill:#1a1a1a;fill-opacity:1;stroke:none;stroke-width:0.876366;stroke-linecap:square;paint-order:fill markers stroke"
         id="rect5477"
         width="142.52213"
         height="80.168686"
         x="-84.297226"
         y="101.12372"
         ry="1.239022e-07" /><path
         style="fill:#b3b3b3;stroke-width:0.101566"
         d="m 24.913787,155.4447 c -0.03433,-0.0556 0.05825,-0.25915 0.205699,-0.45246 0.231998,-0.30417 0.555675,-1.11925 0.555675,-1.39931 0,-0.0508 -0.08913,-0.064 -0.198056,-0.0294 -0.29976,0.0951 -0.817603,-0.21282 -0.817603,-0.48623 0,-0.83046 1.05325,-0.93091 1.318962,-0.12578 0.211095,0.63962 -0.03541,1.65277 -0.550856,2.26406 -0.291004,0.34512 -0.409482,0.39795 -0.513821,0.22912 z m -35.792708,-3.30202 c -0.524497,-1.14844 -0.987232,-2.10884 -1.028299,-2.13422 -0.04107,-0.0254 -0.190083,0.0446 -0.331147,0.15561 -0.301376,0.23705 -0.436664,0.25375 -0.50989,0.0629 -0.06754,-0.17602 1.322983,-1.25333 1.447445,-1.12139 0.04784,0.0507 0.465864,0.92683 0.928954,1.94694 0.463088,1.0201 0.877479,1.81923 0.920867,1.77585 0.04339,-0.0434 1.010745,-2.02064 2.1496817,-4.39389 l 2.070795,-4.31499 5.24547195,-0.0263 5.24547105,-0.0263 v 0.30562 0.3056 H 0.19060065 c -3.09398895,0 -5.08302195,-0.0374 -5.10368295,-0.096 -0.01861,-0.0528 -1.085929,2.08341 -2.371797,4.7472 -1.3631797,2.82392 -2.4009947,4.85536 -2.4891757,4.87235 -0.107345,0.0208 -0.427979,-0.57685 -1.104866,-2.05895 z m 7.6320817,1.5408 c -0.827843,-0.30024 -1.358497,-1.07104 -1.137507,-1.6523 0.173117,-0.45533 0.859833,-0.5165 1.137081,-0.10128 0.166403,0.24921 0.07677,0.66631 -0.179245,0.83406 -0.251872,0.16503 -0.252985,0.17117 -0.05602,0.30911 0.32938,0.23072 1.064112,0.32688 1.404367,0.18381 0.781551,-0.32862 0.862291,-2.30398 0.11555,-2.82701 -0.138504,-0.097 -0.437471,-0.16563 -0.72169,-0.16563 -0.417519,0 -0.48523,-0.0284 -0.48523,-0.20312 0,-0.16066 0.06771,-0.20313 0.323804,-0.20313 0.417281,0 0.96479,-0.37524 1.096564,-0.75152 0.174805,-0.49916 0.127566,-1.32868 -0.09104,-1.59864 -0.24475,-0.30226 -0.945244,-0.33092 -1.365035,-0.0558 l -0.280689,0.18391 0.259764,0.20433 c 0.469919,0.36964 0.249253,1.00211 -0.349632,1.00211 -0.945577,0 -0.731239,-1.28099 0.301647,-1.80278 0.805082,-0.40673 1.749436,-0.24841 2.36445595,0.39638 0.32473,0.34044 0.380872,0.46679 0.380872,0.85711 0,0.2518 -0.06448,0.58123 -0.143281,0.73207 -0.155166,0.29702 -0.60488095,0.74466 -0.91120395,0.90701 -0.16848,0.0893 -0.133679,0.13005 0.293138,0.34321 0.61300095,0.30615 0.97509895,0.77587 1.03966195,1.34867 0.07075,0.62771 -0.118069,1.09944 -0.628347,1.5698 -0.64252595,0.59226 -1.56127895,0.78225 -2.36798395,0.48969 z m 23.5616723,-0.0796 c -0.809029,-0.40045 -1.252098,-1.61986 -0.739418,-2.035 0.283323,-0.22942 0.402296,-0.23372 0.699865,-0.0253 0.308489,0.21607 0.27296,0.75727 -0.05928,0.90303 -0.308958,0.13554 -0.287533,0.28908 0.08397,0.60168 0.245402,0.20649 0.421994,0.26294 0.82256,0.26294 0.939708,0 1.299538,-0.69911 1.167912,-2.26913 -0.07943,-0.94746 -0.278342,-1.22395 -0.910479,-1.2656 -0.412283,-0.0272 -0.512113,0.0109 -0.8654,0.33009 -0.713796,0.64487 -0.730215,0.61187 -0.730215,-1.46739 0,-1.0055 0.01142,-1.8277 0.02539,-1.82709 0.01396,4.6e-4 0.249752,0.0692 0.52397,0.15235 0.628068,0.19054 1.493001,0.19193 2.114218,0.003 0.620566,-0.18832 0.715431,-0.0456 0.273085,0.41077 -0.447651,0.46185 -1.314836,0.78541 -1.946398,0.7262 l -0.482438,-0.0452 v 0.84691 0.84691 l 0.330089,-0.20126 c 0.387309,-0.23615 1.052892,-0.26345 1.532915,-0.0629 0.503569,0.2104 1.051426,0.91212 1.179928,1.5113 0.244616,1.14061 -0.252121,2.12433 -1.316313,2.60679 -0.589137,0.26709 -1.159655,0.26592 -1.703958,-0.003 z m 10.11125,0.11439 c -0.719305,-0.2167 -1.212455,-0.89875 -1.462528,-2.02279 -0.294665,-1.32446 -0.06096,-2.79763 0.595118,-3.75131 0.534868,-0.77748 1.624153,-1.27683 2.374501,-1.0885 0.46057,0.11559 0.851595,0.59517 0.851595,1.04445 0,0.21657 -0.05485,0.4486 -0.121879,0.51564 -0.157114,0.15711 -0.614786,0.15711 -0.7719,0 -0.199897,-0.1999 -0.14503,-0.66292 0.09879,-0.83369 0.212796,-0.14906 0.213702,-0.15729 0.02539,-0.23083 -0.38321,-0.14964 -0.908192,-0.081 -1.25182,0.16368 -0.421419,0.30008 -0.684519,0.87878 -0.777788,1.71077 l -0.07144,0.63727 0.314471,-0.29376 c 0.944568,-0.88236 2.475125,-0.14655 2.772209,1.33273 0.154927,0.77145 0.04289,1.39206 -0.355706,1.97047 -0.538904,0.782 -1.374169,1.1004 -2.219017,0.84587 z m 1.258832,-0.67914 c 0.215461,-0.22907 0.239186,-0.35715 0.266169,-1.437 0.03612,-1.44554 -0.104226,-1.83964 -0.708266,-1.98888 -0.727225,-0.17968 -1.165647,0.39166 -1.269867,1.65488 -0.0622,0.75398 0.07126,1.38094 0.376607,1.76912 0.333215,0.42362 0.937873,0.42447 1.335357,0.002 z m -30.5886853,0.30736 c 0,-0.20663 0.05532,-0.23113 0.584003,-0.25871 l 0.584004,-0.0305 0.02707,-2.65949 0.02707,-2.65949 -0.33109,0.0949 c -0.182101,0.0523 -0.483114,0.095 -0.668916,0.095 -0.291828,0 -0.33340502,-0.031 -0.305368,-0.22749 0.01785,-0.12512 0.101012,-0.23648 0.184805,-0.24746 0.08379,-0.011 0.366556,-0.0481 0.628363,-0.0825 0.26181,-0.0343 0.644772,-0.17702 0.851029,-0.31699 0.657656,-0.4463 0.647516,-0.49011 0.677386,2.92736 l 0.02689,3.07611 0.584003,0.0305 c 0.528687,0.0276 0.584003,0.052 0.584003,0.25871 0,0.22769 -0.0044,0.22827 -1.726619,0.22827 -1.722263,0 -1.726619,-4.7e-4 -1.726619,-0.22827 z m 7.617438,-0.70548 c 0,-0.87278 0.741637,-1.5661 1.6707753,-1.56192 0.519957,0.003 0.614294,0.0434 2.290292,0.99665 1.05966,0.6027 2.128183,0.35106 2.421825,-0.57034 0.07513,-0.23574 0.177963,-0.42862 0.228524,-0.42862 0.173048,0 0.09212,0.73375 -0.123177,1.11682 -0.504239,0.89717 -1.701642,1.07384 -2.748907,0.4056 -0.297005,-0.18952 -0.786399,-0.47248 -1.087542,-0.6288 -1.047233,-0.54362 -2.0317963,-0.28832 -2.3439623,0.60778 -0.182817,0.52481 -0.307828,0.55032 -0.307828,0.0628 z m 0,-2.32923 c 0,-0.5651 0.246652,-1.0219 0.721244,-1.33576 0.6051713,-0.4002 1.2645483,-0.38872 2.0227173,0.0352 0.30631,0.17128 0.813405,0.45473 1.126877,0.62988 0.789797,0.44131 1.335766,0.49766 1.918413,0.19802 0.373264,-0.19198 0.482087,-0.31419 0.593641,-0.66672 0.159234,-0.50319 0.320452,-0.56543 0.320452,-0.12369 0,0.79182 -0.656022,1.50463 -1.4691,1.59628 -0.543048,0.0612 -1.065438,-0.12626 -1.953071,-0.7009 -0.820672,-0.5313 -1.446403,-0.72084 -1.982223,-0.60044 -0.5130943,0.11528 -0.9561453,0.53326 -1.0402053,0.98133 -0.08503,0.45327 -0.258745,0.4444 -0.258745,-0.0132 z"
         id="path5421" /><path
         style="fill:#b3b3b3;stroke-width:0.101566"
         d="m -33.40357,116.27401 c -0.03433,-0.0556 0.05825,-0.25915 0.205699,-0.45246 0.231998,-0.30417 0.555675,-1.11925 0.555675,-1.39931 0,-0.0508 -0.08913,-0.064 -0.198056,-0.0294 -0.29976,0.0951 -0.817603,-0.21282 -0.817603,-0.48623 0,-0.83046 1.05325,-0.93091 1.318962,-0.12578 0.211095,0.63962 -0.03541,1.65277 -0.550856,2.26406 -0.291004,0.34512 -0.409482,0.39795 -0.513821,0.22912 z m -35.792708,-3.30202 c -0.524497,-1.14844 -0.987232,-2.10884 -1.028299,-2.13422 -0.04107,-0.0254 -0.190083,0.0446 -0.331147,0.15561 -0.301376,0.23705 -0.436664,0.25375 -0.50989,0.0629 -0.06754,-0.17602 1.322983,-1.25333 1.447445,-1.12139 0.04784,0.0507 0.465864,0.92683 0.928954,1.94694 0.463088,1.0201 0.877479,1.81923 0.920867,1.77585 0.04339,-0.0434 1.010745,-2.02064 2.149682,-4.39389 l 2.070795,-4.31499 5.245472,-0.0263 5.245471,-0.0263 v 0.30562 0.3056 h -5.069828 c -3.093989,0 -5.083022,-0.0374 -5.103683,-0.096 -0.01861,-0.0528 -1.085929,2.08341 -2.371797,4.7472 -1.36318,2.82392 -2.400995,4.85536 -2.489176,4.87235 -0.107345,0.0208 -0.427979,-0.57685 -1.104866,-2.05895 z m 7.632082,1.5408 c -0.827843,-0.30024 -1.358497,-1.07104 -1.137507,-1.6523 0.173117,-0.45533 0.859833,-0.5165 1.137081,-0.10128 0.166403,0.24921 0.07677,0.66631 -0.179245,0.83406 -0.251872,0.16503 -0.252985,0.17117 -0.05602,0.30911 0.32938,0.23072 1.064112,0.32688 1.404367,0.18381 0.781551,-0.32862 0.862291,-2.30398 0.11555,-2.82701 -0.138504,-0.097 -0.437471,-0.16563 -0.72169,-0.16563 -0.417519,0 -0.48523,-0.0284 -0.48523,-0.20312 0,-0.16066 0.06771,-0.20313 0.323804,-0.20313 0.417281,0 0.96479,-0.37524 1.096564,-0.75152 0.174805,-0.49916 0.127566,-1.32868 -0.09104,-1.59864 -0.24475,-0.30226 -0.945244,-0.33092 -1.365035,-0.0558 l -0.280689,0.18391 0.259764,0.20433 c 0.469919,0.36964 0.249253,1.00211 -0.349632,1.00211 -0.945577,0 -0.731239,-1.28099 0.301647,-1.80278 0.805082,-0.40673 1.749436,-0.24841 2.364456,0.39638 0.32473,0.34044 0.380872,0.46679 0.380872,0.85711 0,0.2518 -0.06448,0.58123 -0.143281,0.73207 -0.155166,0.29702 -0.604881,0.74466 -0.911204,0.90701 -0.16848,0.0893 -0.133679,0.13005 0.293138,0.34321 0.613001,0.30615 0.975099,0.77587 1.039662,1.34867 0.07075,0.62771 -0.118069,1.09944 -0.628347,1.5698 -0.642526,0.59226 -1.561279,0.78225 -2.367984,0.48969 z m 23.561672,-0.0796 c -0.809029,-0.40045 -1.252098,-1.61986 -0.739418,-2.035 0.283323,-0.22942 0.402296,-0.23372 0.699865,-0.0253 0.308489,0.21607 0.27296,0.75727 -0.05928,0.90303 -0.308958,0.13554 -0.287533,0.28908 0.08397,0.60168 0.245402,0.20649 0.421994,0.26294 0.82256,0.26294 0.939708,0 1.299538,-0.69911 1.167912,-2.26913 -0.07943,-0.94746 -0.278342,-1.22395 -0.910479,-1.2656 -0.412283,-0.0272 -0.512113,0.0109 -0.8654,0.33009 -0.713796,0.64487 -0.730215,0.61187 -0.730215,-1.46739 0,-1.0055 0.01142,-1.8277 0.02539,-1.82709 0.01396,4.6e-4 0.249752,0.0692 0.52397,0.15235 0.628068,0.19054 1.493001,0.19193 2.114218,0.003 0.620566,-0.18832 0.715431,-0.0456 0.273085,0.41077 -0.447651,0.46185 -1.314836,0.78541 -1.946398,0.7262 l -0.482438,-0.0452 v 0.84691 0.84691 l 0.330089,-0.20126 c 0.387309,-0.23615 1.052892,-0.26345 1.532915,-0.0629 0.503569,0.2104 1.051426,0.91212 1.179928,1.5113 0.244616,1.14061 -0.252121,2.12433 -1.316313,2.60679 -0.589137,0.26709 -1.159655,0.26592 -1.703958,-0.003 z m 10.11125,0.11439 c -0.719305,-0.2167 -1.212455,-0.89875 -1.462528,-2.02279 -0.294665,-1.32446 -0.06096,-2.79763 0.595118,-3.75131 0.534868,-0.77748 1.624153,-1.27683 2.374501,-1.0885 0.46057,0.11559 0.851595,0.59517 0.851595,1.04445 0,0.21657 -0.05485,0.4486 -0.121879,0.51564 -0.157114,0.15711 -0.614786,0.15711 -0.7719,0 -0.199897,-0.1999 -0.14503,-0.66292 0.09879,-0.83369 0.212796,-0.14906 0.213702,-0.15729 0.02539,-0.23083 -0.38321,-0.14964 -0.908192,-0.081 -1.25182,0.16368 -0.421419,0.30008 -0.684519,0.87878 -0.777788,1.71077 l -0.07144,0.63727 0.314471,-0.29376 c 0.944568,-0.88236 2.475125,-0.14655 2.772209,1.33273 0.154927,0.77145 0.04289,1.39206 -0.355706,1.97047 -0.538904,0.782 -1.374169,1.1004 -2.219017,0.84587 z m 1.258832,-0.67914 c 0.215461,-0.22907 0.239186,-0.35715 0.266169,-1.437 0.03612,-1.44554 -0.104226,-1.83964 -0.708266,-1.98888 -0.727225,-0.17968 -1.165647,0.39166 -1.269867,1.65488 -0.0622,0.75398 0.07126,1.38094 0.376607,1.76912 0.333215,0.42362 0.937873,0.42447 1.335357,0.002 z m -30.588685,0.30736 c 0,-0.20663 0.05532,-0.23113 0.584003,-0.25871 l 0.584004,-0.0305 0.02707,-2.65949 0.02707,-2.65949 -0.33109,0.0949 c -0.182101,0.0523 -0.483114,0.095 -0.668916,0.095 -0.291828,0 -0.333405,-0.031 -0.305368,-0.22749 0.01785,-0.12512 0.101012,-0.23648 0.184805,-0.24746 0.08379,-0.011 0.366556,-0.0481 0.628363,-0.0825 0.26181,-0.0343 0.644772,-0.17702 0.851029,-0.31699 0.657656,-0.4463 0.647516,-0.49011 0.677386,2.92736 l 0.02689,3.07611 0.584003,0.0305 c 0.528687,0.0276 0.584003,0.052 0.584003,0.25871 0,0.22769 -0.0044,0.22827 -1.726619,0.22827 -1.722263,0 -1.726619,-4.7e-4 -1.726619,-0.22827 z m 7.617438,-0.70548 c 0,-0.87278 0.741637,-1.5661 1.670775,-1.56192 0.519957,0.003 0.614294,0.0434 2.290292,0.99665 1.05966,0.6027 2.128183,0.35106 2.421825,-0.57034 0.07513,-0.23574 0.177963,-0.42862 0.228524,-0.42862 0.173048,0 0.09212,0.73375 -0.123177,1.11682 -0.504239,0.89717 -1.701642,1.07384 -2.748907,0.4056 -0.297005,-0.18952 -0.786399,-0.47248 -1.087542,-0.6288 -1.047233,-0.54362 -2.031796,-0.28832 -2.343962,0.60778 -0.182817,0.52481 -0.307828,0.55032 -0.307828,0.0628 z m 0,-2.32923 c 0,-0.5651 0.246652,-1.0219 0.721244,-1.33576 0.605171,-0.4002 1.264548,-0.38872 2.022717,0.0352 0.30631,0.17128 0.813405,0.45473 1.126877,0.62988 0.789797,0.44131 1.335766,0.49766 1.918413,0.19802 0.373264,-0.19198 0.482087,-0.31419 0.593641,-0.66672 0.159234,-0.50319 0.320452,-0.56543 0.320452,-0.12369 0,0.79182 -0.656022,1.50463 -1.4691,1.59628 -0.543048,0.0612 -1.065438,-0.12626 -1.953071,-0.7009 -0.820672,-0.5313 -1.446403,-0.72084 -1.982223,-0.60044 -0.513094,0.11528 -0.956145,0.53326 -1.040205,0.98133 -0.08503,0.45327 -0.258745,0.4444 -0.258745,-0.0132 z"
         id="path537" /><path
         style="fill:#b3b3b3;stroke-width:0.101566"
         d="m -33.40357,134.54438 c -0.03433,-0.0556 0.05825,-0.25915 0.205699,-0.45246 0.231998,-0.30417 0.555675,-1.11925 0.555675,-1.39931 0,-0.0508 -0.08913,-0.064 -0.198056,-0.0294 -0.29976,0.0951 -0.817603,-0.21282 -0.817603,-0.48623 0,-0.83046 1.05325,-0.93091 1.318962,-0.12578 0.211095,0.63962 -0.03541,1.65277 -0.550856,2.26406 -0.291004,0.34512 -0.409482,0.39795 -0.513821,0.22912 z m -35.792708,-3.30202 c -0.524497,-1.14844 -0.987232,-2.10884 -1.028299,-2.13422 -0.04107,-0.0254 -0.190083,0.0446 -0.331147,0.15561 -0.301376,0.23705 -0.436664,0.25375 -0.50989,0.0629 -0.06754,-0.17602 1.322983,-1.25333 1.447445,-1.12139 0.04784,0.0507 0.465864,0.92683 0.928954,1.94694 0.463088,1.0201 0.877479,1.81923 0.920867,1.77585 0.04339,-0.0434 1.010745,-2.02064 2.149682,-4.39389 l 2.070795,-4.31499 5.245472,-0.0263 5.245471,-0.0263 v 0.30562 0.3056 h -5.069828 c -3.093989,0 -5.083022,-0.0374 -5.103683,-0.096 -0.01861,-0.0528 -1.085929,2.08341 -2.371797,4.7472 -1.36318,2.82392 -2.400995,4.85536 -2.489176,4.87235 -0.107345,0.0208 -0.427979,-0.57685 -1.104866,-2.05895 z m 7.632082,1.5408 c -0.827843,-0.30024 -1.358497,-1.07104 -1.137507,-1.6523 0.173117,-0.45533 0.859833,-0.5165 1.137081,-0.10128 0.166403,0.24921 0.07677,0.66631 -0.179245,0.83406 -0.251872,0.16503 -0.252985,0.17117 -0.05602,0.30911 0.32938,0.23072 1.064112,0.32688 1.404367,0.18381 0.781551,-0.32862 0.862291,-2.30398 0.11555,-2.82701 -0.138504,-0.097 -0.437471,-0.16563 -0.72169,-0.16563 -0.417519,0 -0.48523,-0.0284 -0.48523,-0.20312 0,-0.16066 0.06771,-0.20313 0.323804,-0.20313 0.417281,0 0.96479,-0.37524 1.096564,-0.75152 0.174805,-0.49916 0.127566,-1.32868 -0.09104,-1.59864 -0.24475,-0.30226 -0.945244,-0.33092 -1.365035,-0.0558 l -0.280689,0.18391 0.259764,0.20433 c 0.469919,0.36964 0.249253,1.00211 -0.349632,1.00211 -0.945577,0 -0.731239,-1.28099 0.301647,-1.80278 0.805082,-0.40673 1.749436,-0.24841 2.364456,0.39638 0.32473,0.34044 0.380872,0.46679 0.380872,0.85711 0,0.2518 -0.06448,0.58123 -0.143281,0.73207 -0.155166,0.29702 -0.604881,0.74466 -0.911204,0.90701 -0.16848,0.0893 -0.133679,0.13005 0.293138,0.34321 0.613001,0.30615 0.975099,0.77587 1.039662,1.34867 0.07075,0.62771 -0.118069,1.09944 -0.628347,1.5698 -0.642526,0.59226 -1.561279,0.78225 -2.367984,0.48969 z m 23.561672,-0.0796 c -0.809029,-0.40045 -1.252098,-1.61986 -0.739418,-2.035 0.283323,-0.22942 0.402296,-0.23372 0.699865,-0.0253 0.308489,0.21607 0.27296,0.75727 -0.05928,0.90303 -0.308958,0.13554 -0.287533,0.28908 0.08397,0.60168 0.245402,0.20649 0.421994,0.26294 0.82256,0.26294 0.939708,0 1.299538,-0.69911 1.167912,-2.26913 -0.07943,-0.94746 -0.278342,-1.22395 -0.910479,-1.2656 -0.412283,-0.0272 -0.512113,0.0109 -0.8654,0.33009 -0.713796,0.64487 -0.730215,0.61187 -0.730215,-1.46739 0,-1.0055 0.01142,-1.8277 0.02539,-1.82709 0.01396,4.6e-4 0.249752,0.0692 0.52397,0.15235 0.628068,0.19054 1.493001,0.19193 2.114218,0.003 0.620566,-0.18832 0.715431,-0.0456 0.273085,0.41077 -0.447651,0.46185 -1.314836,0.78541 -1.946398,0.7262 l -0.482438,-0.0452 v 0.84691 0.84691 l 0.330089,-0.20126 c 0.387309,-0.23615 1.052892,-0.26345 1.532915,-0.0629 0.503569,0.2104 1.051426,0.91212 1.179928,1.5113 0.244616,1.14061 -0.252121,2.12433 -1.316313,2.60679 -0.589137,0.26709 -1.159655,0.26592 -1.703958,-0.003 z m 10.11125,0.11439 c -0.719305,-0.2167 -1.212455,-0.89875 -1.462528,-2.02279 -0.294665,-1.32446 -0.06096,-2.79763 0.595118,-3.75131 0.534868,-0.77748 1.624153,-1.27683 2.374501,-1.0885 0.46057,0.11559 0.851595,0.59517 0.851595,1.04445 0,0.21657 -0.05485,0.4486 -0.121879,0.51564 -0.157114,0.15711 -0.614786,0.15711 -0.7719,0 -0.199897,-0.1999 -0.14503,-0.66292 0.09879,-0.83369 0.212796,-0.14906 0.213702,-0.15729 0.02539,-0.23083 -0.38321,-0.14964 -0.908192,-0.081 -1.25182,0.16368 -0.421419,0.30008 -0.684519,0.87878 -0.777788,1.71077 l -0.07144,0.63727 0.314471,-0.29376 c 0.944568,-0.88236 2.475125,-0.14655 2.772209,1.33273 0.154927,0.77145 0.04289,1.39206 -0.355706,1.97047 -0.538904,0.782 -1.374169,1.1004 -2.219017,0.84587 z m 1.258832,-0.67914 c 0.215461,-0.22907 0.239186,-0.35715 0.266169,-1.437 0.03612,-1.44554 -0.104226,-1.83964 -0.708266,-1.98888 -0.727225,-0.17968 -1.165647,0.39166 -1.269867,1.65488 -0.0622,0.75398 0.07126,1.38094 0.376607,1.76912 0.333215,0.42362 0.937873,0.42447 1.335357,0.002 z m -30.588685,0.30736 c 0,-0.20663 0.05532,-0.23113 0.584003,-0.25871 l 0.584004,-0.0305 0.02707,-2.65949 0.02707,-2.65949 -0.33109,0.0949 c -0.182101,0.0523 -0.483114,0.095 -0.668916,0.095 -0.291828,0 -0.333405,-0.031 -0.305368,-0.22749 0.01785,-0.12512 0.101012,-0.23648 0.184805,-0.24746 0.08379,-0.011 0.366556,-0.0481 0.628363,-0.0825 0.26181,-0.0343 0.644772,-0.17702 0.851029,-0.31699 0.657656,-0.4463 0.647516,-0.49011 0.677386,2.92736 l 0.02689,3.07611 0.584003,0.0305 c 0.528687,0.0276 0.584003,0.052 0.584003,0.25871 0,0.22769 -0.0044,0.22827 -1.726619,0.22827 -1.722263,0 -1.726619,-4.7e-4 -1.726619,-0.22827 z m 7.617438,-0.70548 c 0,-0.87278 0.741637,-1.5661 1.670775,-1.56192 0.519957,0.003 0.614294,0.0434 2.290292,0.99665 1.05966,0.6027 2.128183,0.35106 2.421825,-0.57034 0.07513,-0.23574 0.177963,-0.42862 0.228524,-0.42862 0.173048,0 0.09212,0.73375 -0.123177,1.11682 -0.504239,0.89717 -1.701642,1.07384 -2.748907,0.4056 -0.297005,-0.18952 -0.786399,-0.47248 -1.087542,-0.6288 -1.047233,-0.54362 -2.031796,-0.28832 -2.343962,0.60778 -0.182817,0.52481 -0.307828,0.55032 -0.307828,0.0628 z m 0,-2.32923 c 0,-0.5651 0.246652,-1.0219 0.721244,-1.33576 0.605171,-0.4002 1.264548,-0.38872 2.022717,0.0352 0.30631,0.17128 0.813405,0.45473 1.126877,0.62988 0.789797,0.44131 1.335766,0.49766 1.918413,0.19802 0.373264,-0.19198 0.482087,-0.31419 0.593641,-0.66672 0.159234,-0.50319 0.320452,-0.56543 0.320452,-0.12369 0,0.79182 -0.656022,1.50463 -1.4691,1.59628 -0.543048,0.0612 -1.065438,-0.12626 -1.953071,-0.7009 -0.820672,-0.5313 -1.446403,-0.72084 -1.982223,-0.60044 -0.513094,0.11528 -0.956145,0.53326 -1.040205,0.98133 -0.08503,0.45327 -0.258745,0.4444 -0.258745,-0.0132 z"
         id="path5384" /><path
         d="m 25.096543,134.47633 c -0.03945,-0.0639 0.02019,-0.21667 0.132538,-0.33966 0.278507,-0.30488 0.505131,-0.77355 0.588231,-1.21653 0.0656,-0.34961 0.05595,-0.36673 -0.180619,-0.32151 -0.166212,0.0317 -0.346244,-0.0352 -0.537571,-0.19967 -0.25332,-0.21789 -0.275702,-0.28337 -0.187515,-0.54839 0.133331,-0.40064 0.55913,-0.55749 0.938116,-0.34556 0.379991,0.2125 0.50549,0.75911 0.347374,1.51296 -0.201313,0.95977 -0.865094,1.83934 -1.100554,1.45836 z m -36.21356,-3.36466 c -0.532685,-1.17206 -0.980876,-2.14763 -0.995979,-2.16793 -0.01507,-0.0203 -0.164424,0.0607 -0.331827,0.17983 -0.36677,0.26115 -0.556353,0.27762 -0.511379,0.0444 0.03921,-0.20324 1.275002,-1.20209 1.395295,-1.12774 0.04541,0.0281 0.472331,0.90966 0.948736,1.95912 0.476417,1.04946 0.902835,1.87148 0.9476,1.82672 0.08118,-0.0811 3.5870003,-7.29377 4.0428056,-8.31735 l 0.240232,-0.53949 h 5.29772645 5.29772545 v 0.31013 0.31014 l -5.18624865,-0.0275 -5.18624995,-0.0277 -2.3408234,4.85355 c -1.5428025,3.1989 -2.3933715,4.85375 -2.4949605,4.85414 -0.101111,4e-4 -0.487214,-0.73228 -1.122653,-2.13043 z m 12.8466615,1.59587 c -0.1925859,-0.0649 -0.5305496,-0.28959 -0.75105633,-0.49934 -0.37229192,-0.35416 -0.39862762,-0.41677 -0.36915842,-0.87767 0.027924,-0.43623 0.065999,-0.50829 0.3143153,-0.59517 0.18084965,-0.0633 0.38432565,-0.0633 0.56517055,-8e-5 0.2278738,0.0797 0.2886276,0.17074 0.3137795,0.47046 0.024702,0.2947 -0.02148,0.41311 -0.2230312,0.57166 l -0.2542296,0.19997 0.2744175,0.15984 c 0.4050635,0.23591 1.0513965,0.3109 1.353382,0.15702 0.7804547,-0.39772 0.8421881,-2.36279 0.090701,-2.88911 -0.1401269,-0.0982 -0.4426045,-0.16758 -0.7301569,-0.16758 -0.4224283,0 -0.4909385,-0.0287 -0.4909385,-0.20551 0,-0.15884 0.068548,-0.20551 0.3015959,-0.20551 0.8209605,0 1.2388013,-0.50715 1.2393996,-1.50432 3.884e-4,-0.85035 -0.2084234,-1.11988 -0.8576693,-1.10632 -0.255791,0.006 -0.5862118,0.0892 -0.7342581,0.18606 l -0.2691784,0.17638 0.2628241,0.20672 c 0.429361,0.33775 0.2980387,0.91799 -0.2366193,1.04549 -0.2704755,0.0645 -0.73367985,-0.31141 -0.73367985,-0.59541 0,-0.36241 0.31511555,-0.87642 0.68895015,-1.12382 1.3379621,-0.8854 3.3117991,0.0754 3.0025518,1.46169 -0.110411,0.49492 -0.5053245,1.03408 -0.9170102,1.25197 -0.3241408,0.17154 -0.3393575,0.19795 -0.1541469,0.26738 0.4310345,0.1616 1.0854179,0.68167 1.2443081,0.98893 0.3983728,0.77037 -0.037638,1.95621 -0.896977,2.43913 -0.4913114,0.27615 -1.4949569,0.3685 -2.0333244,0.18714 z m 28.6247195,-0.0233 c -1.113635,-0.39706 -1.542921,-1.555 -0.950959,-2.56511 0.145897,-0.24895 0.432862,-0.55622 0.63771,-0.68282 l 0.372449,-0.23018 -0.363674,-0.31824 c -0.529824,-0.46363 -0.724458,-0.91738 -0.652845,-1.52197 0.111733,-0.94346 0.826683,-1.56197 1.811933,-1.56755 1.759988,-0.01 2.492729,1.71761 1.185538,2.7951 l -0.363017,0.29925 0.454317,0.32626 c 1.272493,0.91383 1.123563,2.71216 -0.278671,3.36504 -0.602557,0.28055 -1.248949,0.31552 -1.852781,0.10019 z m 1.753783,-0.55414 c 0.346492,-0.18544 0.54234,-0.53685 0.54234,-0.97313 0,-0.46772 -0.281148,-0.77593 -1.238057,-1.35723 -0.695111,-0.42226 -0.825183,-0.39861 -1.254149,0.22807 -0.357477,0.52224 -0.441943,1.03259 -0.247802,1.49723 0.322477,0.77181 1.354964,1.05605 2.197668,0.60506 z m -0.03479,-3.92041 c 0.291834,-0.32302 0.371617,-0.49654 0.371617,-0.80822 0,-0.70374 -0.719867,-1.32916 -1.369054,-1.18941 -0.879996,0.18942 -1.236424,0.65536 -0.954135,1.24731 0.132824,0.27855 1.273324,1.15149 1.514848,1.1595 0.03582,9.9e-4 0.232337,-0.18296 0.436724,-0.40918 z m -36.6215015,4.21429 c 0,-0.11648 0.5082798,-0.76833 1.1796007,-1.51287 1.3981105,-1.55062 1.815079,-2.25223 1.815079,-3.05417 0,-0.92893 -0.4174454,-1.48619 -1.1775152,-1.57186 -0.4012549,-0.0452 -0.4909162,-0.0142 -0.8005506,0.27642 -0.1947103,0.1828 -0.2984034,0.34842 -0.2348147,0.37507 0.4922202,0.20625 0.6364803,0.62712 0.3428804,1.00036 -0.2375056,0.30194 -0.5689213,0.35017 -0.8738373,0.12714 -0.1506722,-0.11023 -0.1970401,-0.26171 -0.1895444,-0.61927 0.019734,-0.94151 1.0434583,-1.76212 2.0757892,-1.66391 0.6450171,0.0614 1.3471444,0.44134 1.68044375,0.90942 0.3184048,0.44716 0.3871476,1.44395 0.1360728,1.97304 -0.099777,0.21035 -0.76473055,0.92892 -1.50312895,1.62444 -0.9249178,0.8712 -1.2848055,1.2722 -1.1936831,1.33004 0.1589398,0.1009 0.7603802,0.10823 1.607641,0.0197 l 0.6338968,-0.0662 0.11268875,-0.44754 c 0.083053,-0.32967 0.1636041,-0.44753 0.3060112,-0.44753 0.2287129,0 0.2362664,0.11389 0.078072,1.17753 l -0.115238,0.77488 H -2.6082076 c -1.8685472,0 -1.9399231,-0.007 -1.9399231,-0.20461 z m 25.4841465,-0.0523 c 0,-0.23598 0.03767,-0.2569 0.462414,-0.2569 h 0.462413 v -0.61655 -0.61656 h -1.347846 -1.347842 l 0.04656,-0.24352 c 0.02561,-0.13395 0.753322,-1.31311 1.617147,-2.62036 1.317973,-1.99452 1.609916,-2.3768 1.815082,-2.3768 h 0.24449 v 2.41483 2.41483 h 0.462413 c 0.393906,0 0.462414,0.0304 0.462414,0.20551 0,0.17539 -0.06852,0.20551 -0.467541,0.20551 h -0.467543 l 0.03083,0.59086 0.03083,0.59086 0.436725,0.0316 c 0.385971,0.028 0.436724,0.0608 0.436724,0.28259 v 0.25098 h -1.438637 -1.438621 z m 1.027588,-3.6118 v -1.71075 l -1.039999,1.58056 c -0.571999,0.86931 -1.062481,1.63915 -1.089959,1.71075 -0.03839,0.10008 0.202449,0.13021 1.039997,0.13021 h 1.089961 z m -13.2558674,2.88738 c 0,-0.81331 0.684429,-1.49092 1.5810374,-1.56527 0.570263,-0.0474 0.811882,0.0498 2.375169,0.95429 1.157917,0.66995 2.350179,0.37129 2.565695,-0.64272 0.09516,-0.44772 0.260168,-0.42498 0.260168,0.0359 0,0.5317 -0.28083,1.04774 -0.733049,1.347 -0.341824,0.2262 -0.47815,0.25439 -1.053121,0.21778 -0.532682,-0.0339 -0.766738,-0.10988 -1.209736,-0.39248 -1.488719,-0.94981 -2.102376,-1.10724 -2.8430854,-0.72935 -0.3725723,0.19007 -0.5518792,0.42729 -0.6866469,0.90845 -0.09967,0.35573 -0.2564311,0.27407 -0.2564311,-0.13356 z m 0,-2.36852 c 0,-0.91208 0.756015,-1.6275 1.7088864,-1.61712 0.399599,0.005 0.673124,0.0881 1.130346,0.34573 1.989602,1.12143 2.240746,1.18737 3.021925,0.79344 0.368651,-0.1859 0.488082,-0.31678 0.609468,-0.66792 0.187778,-0.54321 0.311444,-0.55945 0.311444,-0.0408 0,0.75621 -0.686134,1.45119 -1.510968,1.53044 -0.586921,0.0564 -1.023355,-0.10268 -1.966732,-0.71662 -1.402895,-0.91305 -2.6037372,-0.78653 -2.992932,0.31534 -0.1856104,0.52549 -0.3114374,0.54876 -0.3114374,0.0576 z"
         style="fill:#b3b3b3;stroke-width:0.0360368"
         id="path8317" /><path
         style="fill:#b3b3b3;stroke-width:0.0994232"
         d="m -33.930682,155.79368 c -0.03578,-0.0579 0.04856,-0.27042 0.187422,-0.47227 0.301412,-0.43813 0.462437,-0.84188 0.462437,-1.15954 0,-0.18377 -0.04184,-0.22184 -0.198667,-0.18083 -0.314525,0.0823 -0.696142,-0.2263 -0.696142,-0.56288 0,-0.60811 0.702445,-0.82755 1.086437,-0.33938 0.391778,0.49806 0.216962,1.7498 -0.347771,2.49021 -0.263372,0.34529 -0.384977,0.40063 -0.493716,0.22469 z m -34.392733,-1.80863 c -0.542591,-1.21276 -1.647134,-3.59009 -1.686118,-3.62907 -0.02323,-0.0232 -0.17573,0.0565 -0.338874,0.17706 -0.2739,0.20251 -0.514385,0.20263 -0.514385,2.5e-4 0,-0.0991 1.248586,-1.09685 1.372577,-1.09685 0.0464,0 0.459107,0.83067 0.917139,1.84594 0.458042,1.01527 0.862328,1.86419 0.898408,1.8865 0.03608,0.0223 0.996678,-1.90304 2.134646,-4.27852 l 2.069036,-4.31905 5.152757,-0.005 5.152767,-0.005 v 0.29982 0.29982 h -4.962878 c -3.880419,0 -4.972522,-0.0271 -5.007122,-0.12428 -0.02433,-0.0684 -0.400328,0.61394 -0.835533,1.51621 -3.395362,7.03929 -3.852977,7.95384 -3.979861,7.95384 -0.07646,0 -0.244123,-0.23488 -0.372559,-0.52196 z m 39.616764,0.0654 c -0.954632,-0.41399 -1.389251,-1.38254 -1.391448,-3.10087 -0.0025,-1.95446 0.947692,-3.36284 2.403407,-3.56237 0.785284,-0.10764 1.472915,0.42343 1.472915,1.13756 0,0.44886 -0.612556,0.68267 -0.937422,0.35781 -0.217051,-0.21705 -0.195028,-0.49584 0.05781,-0.73138 l 0.214038,-0.19941 -0.273443,-0.10393 c -0.378336,-0.14385 -0.940982,0.0229 -1.283544,0.38051 -0.311076,0.32469 -0.561284,1.05153 -0.561284,1.6305 v 0.39073 l 0.305896,-0.2574 c 0.76863,-0.64676 2.056499,-0.15797 2.522396,0.95735 0.212159,0.50791 0.195605,1.51849 -0.03312,2.02206 -0.452803,0.99688 -1.570887,1.48012 -2.496199,1.07886 z m 1.353816,-0.58811 c 0.260688,-0.28352 0.382878,-1.2472 0.279985,-2.20803 -0.05821,-0.54361 -0.122977,-0.71925 -0.348249,-0.94453 -0.342762,-0.34275 -0.683694,-0.35261 -1.066115,-0.0309 -0.393786,0.33136 -0.547663,0.93433 -0.504106,1.97545 0.02787,0.6663 0.07961,0.90555 0.243209,1.12461 0.354205,0.47429 1.000326,0.51288 1.395276,0.0834 z m -35.257831,0.3171 c 0,-0.15225 0.321117,-0.58272 0.945623,-1.26764 1.920777,-2.10658 2.253676,-2.94889 1.615876,-4.08853 -0.243567,-0.43521 -0.639509,-0.62502 -1.135761,-0.54449 -0.316712,0.0514 -0.830323,0.39604 -0.828573,0.55599 0,0.0315 0.13457,0.13344 0.29827,0.2266 0.355985,0.20257 0.39809,0.57528 0.09879,0.87458 -0.412765,0.41275 -0.994231,0.13011 -0.994231,-0.48329 0,-0.94524 0.864056,-1.704 1.938752,-1.7025 0.428892,6e-4 1.256391,0.41461 1.567367,0.78418 0.330313,0.39255 0.507883,1.02066 0.421783,1.492 -0.114943,0.62924 -0.500596,1.12744 -1.737112,2.244 -1.179299,1.0649 -1.202435,1.09375 -0.945495,1.17939 0.144859,0.0483 0.682381,0.0564 1.19448,0.018 l 0.931108,-0.0697 0.06575,-0.43849 c 0.05701,-0.38011 0.09794,-0.43848 0.307537,-0.43848 0.266215,0 0.263491,-0.0947 0.03553,1.2362 -0.05558,0.32447 -0.101043,0.6041 -0.101043,0.62139 0,0.0173 -0.827699,0.0314 -1.839329,0.0314 h -1.839324 z m 5.269429,-0.0133 c 0,-0.22964 0.03613,-0.24553 0.621395,-0.27341 l 0.621395,-0.0296 0.0265,-2.60338 0.0265,-2.6034 -0.32411,0.0929 c -0.178265,0.0511 -0.469814,0.093 -0.647891,0.093 -0.255001,0 -0.323782,-0.0413 -0.323782,-0.19434 0,-0.14716 0.09051,-0.20954 0.372838,-0.25693 0.594829,-0.0999 1.047433,-0.2573 1.349868,-0.46956 0.168344,-0.11815 0.31728,-0.16108 0.371326,-0.10704 0.04964,0.0496 0.102115,1.43091 0.116623,3.06948 l 0.02637,2.97924 0.621395,0.0296 c 0.585264,0.0279 0.621395,0.0438 0.621395,0.2734 v 0.24383 h -1.739906 -1.739907 v -0.24383 z m 19.288101,6.9e-4 c 0,-0.21949 0.04588,-0.24605 0.47226,-0.27341 l 0.47226,-0.0303 v -0.54683 -0.54683 l -1.278483,-0.0279 -1.278483,-0.0279 0.04056,-0.27629 c 0.0223,-0.15195 0.709463,-1.2909 1.52704,-2.53098 1.204353,-1.82677 1.52894,-2.25494 1.710189,-2.25596 l 0.223702,-0.001 v 2.33645 2.33644 h 0.447404 c 0.38112,0 0.447404,0.0295 0.447404,0.19885 0,0.16971 -0.06628,0.19884 -0.452365,0.19884 h -0.452366 l 0.02982,0.57169 0.02982,0.57168 0.422548,0.0305 c 0.373443,0.027 0.422549,0.0588 0.422549,0.27341 v 0.24284 h -1.391925 -1.391924 v -0.2431 z m 0.994232,-3.45211 c 0,-0.88404 -0.01769,-1.58871 -0.0393,-1.56591 -0.092,0.097 -2.048586,3.08211 -2.048586,3.12551 0,0.0263 0.469775,0.0478 1.043945,0.0478 h 1.043943 v -1.60734 z m -12.762012,3.02971 c -0.130482,-0.13048 -0.05314,-0.58993 0.16378,-0.97293 0.328355,-0.57975 0.874874,-0.86401 1.577896,-0.8207 0.478931,0.0295 0.706193,0.12159 1.530253,0.62018 0.815806,0.49358 1.056758,0.59196 1.534338,0.62651 0.395704,0.0286 0.660786,-0.007 0.87907,-0.12063 0.333694,-0.17257 0.614167,-0.6096 0.614167,-0.95699 0,-0.29071 0.241121,-0.19443 0.276576,0.11044 0.04147,0.35665 -0.377411,1.102 -0.763541,1.3586 -0.52054,0.34593 -1.296727,0.30987 -1.998615,-0.0929 -1.757543,-1.0084 -2.254342,-1.15126 -2.879436,-0.82801 -0.346509,0.17919 -0.699799,0.61065 -0.699799,0.85463 0,0.19629 -0.133765,0.32267 -0.234689,0.22174 z m -0.02549,-2.36134 c -0.218631,-0.56975 0.463849,-1.53258 1.233166,-1.73974 0.572131,-0.15406 1.01188,-0.0215 2.128949,0.64174 0.990802,0.58826 1.548307,0.73357 2.107075,0.54915 0.420073,-0.13863 0.855806,-0.62223 0.855806,-0.94981 0,-0.32844 0.180174,-0.4055 0.254623,-0.10891 0.131248,0.52296 -0.289351,1.25627 -0.886298,1.54525 -0.737054,0.3568 -1.332818,0.24009 -2.445523,-0.47908 -1.043874,-0.6747 -1.763737,-0.79763 -2.466958,-0.42128 -0.231278,0.12378 -0.520659,0.59449 -0.520659,0.8469 0,0.2148 -0.189779,0.29925 -0.260181,0.11578 z"
         id="path8284"
         sodipodi:nodetypes="sssssssssssssssscccccssssssscsssscssscsssssssssssscsssscssssssssscsssssccsscccssssssscssccccccscccccssccccssscccsscccccssssccsssssscssssssssssssssssss" /><text
         xml:space="preserve"
         style="font-size:12.7822px;font-family:Alef;-inkscape-font-specification:Alef;white-space:pre;inline-size:104.431;display:inline;fill:#ffffff;stroke:#ffffff;stroke-width:0.957056;stroke-linecap:square;stroke-opacity:1;paint-order:fill markers stroke"
         x="-109.24004"
         y="122.15657"
         id="text775"
         transform="matrix(1.1772393,0,0,1.1772393,50.890338,-11.650554)"><tspan
           x="-109.24004"
           y="122.15657"
           id="tspan8548">Approximation </tspan><tspan
           x="-109.24004"
           y="138.13432"
           id="tspan8550">d'une racine carré</tspan></text><path
         d="m 24.950018,116.18658 c -0.03552,-0.0575 0.05274,-0.24391 0.196187,-0.41435 0.213713,-0.25398 0.572924,-1.151 0.572924,-1.43069 0,-0.0382 -0.110113,-0.0485 -0.244629,-0.0228 -0.134985,0.0258 -0.368537,-0.0344 -0.521099,-0.13438 -0.229869,-0.15063 -0.266206,-0.23261 -0.215459,-0.4863 0.08506,-0.42517 0.241429,-0.5806 0.584223,-0.5806 0.373345,0 0.673813,0.29755 0.759004,0.75164 0.180867,0.96411 -0.767169,2.90646 -1.131146,2.31753 z m -35.612912,-2.30024 c -0.265117,-0.59062 -0.709805,-1.56161 -0.988182,-2.15777 l -0.506153,-1.08393 -0.312044,0.22219 c -0.319272,0.22734 -0.652102,0.21328 -0.55354,-0.0234 0.09124,-0.2192 1.389442,-1.13121 1.477202,-1.03779 0.0449,0.0478 0.463598,0.92824 0.930371,1.95648 0.466787,1.02823 0.887044,1.83117 0.933913,1.7843 0.0469,-0.0468 1.023304,-2.03988 2.1698584,-4.42892 l 2.084652,-4.34369 5.28423895,-0.0265 5.28423805,-0.0265 v 0.30805 0.30804 H 0.03141735 c -2.98566395,0 -5.12441995,-0.0388 -5.14435795,-0.0934 -0.01877,-0.0514 -1.093719,2.11226 -2.388762,4.80805 -1.6235934,3.37968 -2.4050114,4.90256 -2.5168894,4.90503 -0.108461,0.003 -0.322139,-0.35257 -0.644302,-1.07024 z m 12.3792363,0.43145 c -0.57116,-0.3235 -0.95028595,-0.91557 -1.12917995,-1.76342 -0.390259,-1.8495 0.0171,-4.05145 0.86050695,-4.65205 1.167711,-0.83148 2.6303251,-0.25964 3.0828021,1.20527 0.295295,0.95609 0.295241,2.8664 -1.12e-4,3.82269 -0.426514,1.38092 -1.7091001,2.01332 -2.8139941,1.38751 z m 1.5160961,-0.44518 c 0.405736,-0.40574 0.474795,-0.83527 0.475237,-2.95625 3.86e-4,-2.1346 -0.06631,-2.43371 -0.637164,-2.85217 -0.2319991,-0.17009 -0.3435871,-0.18875 -0.6556301,-0.10965 -0.509294,0.12909 -0.739472,0.47915 -0.872588,1.32707 -0.153263,0.97622 -0.05859,3.66739 0.146179,4.15517 0.304255,0.72475 1.045735,0.93407 1.5439661,0.43584 z m 17.2143586,0.55302 c -0.726463,-0.25756 -1.177314,-0.793 -1.177314,-1.39818 0,-0.63412 0.735973,-0.89277 1.151719,-0.40476 0.248885,0.29214 0.223796,0.56552 -0.07757,0.84478 -0.313917,0.29094 -0.212537,0.40883 0.48631,0.56544 0.539572,0.12092 0.8445,0.0416 1.152165,-0.29991 0.158568,-0.176 0.212588,-0.40579 0.240656,-1.0239 0.05848,-1.28865 -0.273437,-1.74155 -1.27645,-1.74155 -0.38353,0 -0.457531,-0.0304 -0.42939,-0.17648 0.02306,-0.11971 0.178883,-0.20121 0.484461,-0.25337 0.586138,-0.10007 0.886165,-0.3947 1.035415,-1.01683 0.146868,-0.61221 0.06543,-1.12122 -0.220763,-1.38019 -0.274222,-0.24812 -0.968225,-0.24182 -1.356057,0.0123 -0.262781,0.17218 -0.270492,0.19492 -0.09809,0.28907 0.258191,0.14094 0.337357,0.27945 0.339188,0.59343 0.0023,0.32578 -0.214368,0.52441 -0.570964,0.52441 -0.83586,0 -0.742218,-1.23633 0.13495,-1.78168 0.549655,-0.34174 1.543347,-0.33707 2.15235,0.0101 1.060806,0.60474 1.046528,2.04836 -0.02647,2.68146 -0.416663,0.24583 -0.44687,0.35073 -0.124302,0.43169 0.128194,0.0321 0.425234,0.22298 0.660089,0.424 0.981079,0.83977 0.657407,2.38206 -0.625257,2.97929 -0.566185,0.26363 -1.31454,0.3124 -1.854738,0.12087 z m 14.886131,-0.11324 c -0.871763,-0.4604 -1.400225,-1.87804 -1.285048,-3.44722 0.09113,-1.2417 0.320154,-1.79802 1.038013,-2.5216 0.532706,-0.53696 0.705003,-0.64608 1.192343,-0.75514 0.686005,-0.15352 1.20113,-0.0246 1.519605,0.38025 0.230351,0.29286 0.278017,0.94111 0.08352,1.13563 -0.158375,0.15837 -0.619697,0.15837 -0.778056,0 -0.196306,-0.1963 -0.146678,-0.66785 0.0876,-0.83192 0.205716,-0.14409 0.203325,-0.14986 -0.107462,-0.25818 -0.454539,-0.15845 -0.893795,-0.0369 -1.286692,0.35597 -0.36902,0.36901 -0.525461,0.79543 -0.614895,1.67598 -0.04435,0.43674 -0.03165,0.52287 0.05682,0.38391 0.298475,-0.46916 1.326004,-0.65457 1.918732,-0.34623 0.610484,0.31759 1.038387,1.01975 1.122627,1.84219 0.187587,1.83138 -1.464647,3.16928 -2.947057,2.38636 z m 1.545132,-0.53789 c 0.235737,-0.23188 0.258744,-0.33809 0.291444,-1.34557 0.04325,-1.33085 -0.07579,-1.80707 -0.507607,-2.03035 -0.649762,-0.33601 -1.215041,0.0587 -1.414256,0.98766 -0.422861,1.97173 0.572139,3.42923 1.630419,2.38826 z m -41.0525706,0.3206 c 0,-0.23355 0.04061,-0.25295 0.588662,-0.28154 l 0.588657,-0.0307 0.02724,-2.68546 0.02724,-2.68547 -0.264305,0.10049 c -0.145362,0.0553 -0.445566,0.10049 -0.667138,0.10049 -0.326264,0 -0.402834,-0.0366 -0.402834,-0.19281 0,-0.20256 0.259569,-0.31523 0.731825,-0.31767 0.149128,-7.7e-4 0.536847,-0.14116 0.861599,-0.31199 0.324755,-0.17084 0.628183,-0.27289 0.674277,-0.22679 0.04612,0.0461 0.09599,1.46429 0.110976,3.15153 l 0.02712,3.06769 0.588662,0.0307 c 0.54809895,0.0286 0.58865695,0.048 0.58865695,0.28153 v 0.25083 h -1.74039195 -1.740376 z m 33.5791526,0 c 0,-0.23355 0.0406,-0.25295 0.588658,-0.28154 l 0.588661,-0.0307 0.02724,-2.68069 0.02724,-2.68069 -0.333724,0.0957 c -0.183548,0.0526 -0.483764,0.0957 -0.667126,0.0957 -0.265153,0 -0.333392,-0.0419 -0.333392,-0.20475 0,-0.11262 0.01455,-0.20476 0.0323,-0.20476 0.355094,0 1.354566,-0.28277 1.692592,-0.47887 0.258381,-0.1499 0.483328,-0.22029 0.535912,-0.1677 0.04987,0.0499 0.102831,1.4711 0.117781,3.15834 l 0.02713,3.06769 0.588661,0.0307 c 0.548098,0.0286 0.588657,0.048 0.588657,0.28154 v 0.25082 h -1.740381 -1.74039 z m -16.196297,-0.41188 c -0.25948,-0.0659 -0.764011,-0.30836 -1.121179,-0.53883 -1.172241,-0.75641 -1.812813,-0.90555 -2.4962916,-0.58122 -0.370154,0.17566 -0.613228,0.48056 -0.718972,0.9019 -0.09897,0.39433 -0.249528,0.32343 -0.249087,-0.11731 3.87e-4,-0.49503 0.295128,-0.97101 0.813372,-1.31397 0.6582226,-0.43559 1.2364566,-0.33626 2.6247986,0.45088 0.965068,0.54715 1.186784,0.63275 1.638927,0.63275 0.691225,0 1.163955,-0.31048 1.369008,-0.89912 0.184478,-0.52954 0.310292,-0.55459 0.310292,-0.0618 0,1.06609 -1.057088,1.80951 -2.170868,1.52671 z M 8.6224284,111.0086 c 0,-0.91363 0.752759,-1.62147 1.7131596,-1.61094 0.440931,0.004 0.667603,0.0835 1.279697,0.44417 1.661036,0.9787 2.090475,1.08405 2.842545,0.69721 0.376225,-0.1935 0.485931,-0.31672 0.598369,-0.67204 0.1715,-0.54194 0.32301,-0.56105 0.32301,-0.0407 0,0.75339 -0.683579,1.44576 -1.505339,1.52473 -0.58473,0.0561 -1.019525,-0.10225 -1.959398,-0.71394 -0.712642,-0.46382 -1.365139,-0.67394 -1.899193,-0.61159 -0.4896916,0.0572 -1.0461096,0.54525 -1.1297336,0.99097 -0.08815,0.47004 -0.263121,0.46483 -0.263121,-0.008 z"
         style="fill:#b3b3b3;stroke-width:0.0359024"
         id="path8294" /><path
         d="m 24.063867,173.43534 c -0.03246,-0.0525 0.06795,-0.25835 0.223153,-0.45739 0.284619,-0.36507 0.49856,-0.87389 0.49856,-1.18577 0,-0.12176 -0.05397,-0.1551 -0.192417,-0.1189 -0.285784,0.0748 -0.674238,-0.21922 -0.674238,-0.51022 0,-0.59871 0.499299,-0.82006 0.976353,-0.43285 0.202989,0.16476 0.226544,0.26014 0.219985,0.89073 -0.0056,0.53525 -0.06073,0.81111 -0.227883,1.13953 -0.354257,0.69609 -0.657049,0.94423 -0.823513,0.67487 z m -28.5361246,-1.94255 c -0.202452,-0.44147 -0.620989,-1.35516 -0.930076,-2.03043 -0.309097,-0.67527 -0.602171,-1.22776 -0.651272,-1.22776 -0.0491,0 -0.198705,0.086 -0.332449,0.19128 -0.251541,0.19786 -0.413124,0.1812 -0.413124,-0.0426 0,-0.15838 1.275321,-1.12523 1.36293,-1.03326 0.03463,0.0364 0.420193,0.85691 0.856832,1.82347 0.43664,0.96656 0.824468,1.75739 0.861831,1.75739 0.03737,0 0.9239224,-1.78748 1.9701096,-3.97217 1.04618635,-2.18469 1.95637705,-4.05884 2.02263715,-4.16477 0.1163061,-0.1859 0.2095475,-0.19164 2.68595725,-0.16544 l 2.5654625,0.0271 v 0.28581 0.28582 H 3.1262635 c -2.20836188,0 -2.40313795,-0.0134 -2.43561815,-0.16852 -0.019748,-0.0942 -0.4153204,0.61671 -0.8974495,1.61294 -3.04123645,6.28416 -3.67094845,7.5483 -3.77778745,7.58392 -0.07269,0.0242 -0.263935,-0.27494 -0.487666,-0.76281 z m 6.8521072,0.14765 c -0.15487,-0.23636 -0.1559298,-0.31273 -0.015805,-1.13646 0.1814865,-1.06679 0.6808825,-2.18021 1.4631923,-3.26224 0.2990924,-0.41368 0.5437967,-0.77117 0.5437967,-0.79443 0,-0.0232 -0.5798495,-0.0423 -1.288552,-0.0423 H 1.7939303 l -0.1091123,0.43333 c -0.086183,0.34224 -0.1518372,0.43333 -0.3123517,0.43333 -0.1701638,0 -0.1947466,-0.0431 -0.1510686,-0.26481 0.02869,-0.14565 0.1040961,-0.62231 0.1675539,-1.05925 0.099493,-0.68501 0.1413326,-0.79443 0.3037819,-0.79443 0.1036135,0 0.2533911,0.065 0.3328342,0.14444 0.11667,0.11667 0.4486091,0.14444 1.7264252,0.14444 h 1.5819913 v 0.22382 c 0,0.1231 -0.240747,0.54559 -0.5350051,0.93888 -1.1922475,1.5935 -1.3433734,1.99296 -1.4479885,3.82727 -0.068913,1.20812 -0.1698156,1.46179 -0.5815254,1.46179 -0.1352168,0 -0.289222,-0.10015 -0.389619,-0.25338 z m 26.8020744,0.0773 c -0.213042,-0.23541 -0.202404,-0.78039 0.03323,-1.70169 0.257735,-1.00774 0.567573,-1.65847 1.233906,-2.5915 0.3059,-0.42834 0.589296,-0.83295 0.629767,-0.89915 0.05747,-0.094 -0.212226,-0.12038 -1.230698,-0.12038 h -1.304276 l -0.109112,0.43333 c -0.08367,0.33229 -0.15391,0.43334 -0.301211,0.43334 -0.209308,0 -0.208111,-0.0478 0.03772,-1.51665 0.107791,-0.64407 0.231366,-0.73688 0.604902,-0.45434 0.14661,0.11089 0.525609,0.14138 1.757386,0.14138 1.564975,0 1.570456,7.3e-4 1.568626,0.21666 -0.0011,0.11917 -0.347656,0.68806 -0.770322,1.26422 -0.947149,1.29112 -1.132247,1.81913 -1.216341,3.4697 -0.06328,1.24198 -0.160542,1.50118 -0.563318,1.50118 -0.115987,0 -0.282606,-0.0793 -0.370252,-0.1761 z m 4.447405,-0.0186 c -0.873715,-0.46156 -1.267091,-1.77046 -0.607461,-2.02125 0.694253,-0.26395 1.120539,0.65136 0.463654,0.99554 l -0.24226,0.12693 0.348522,0.306 c 0.576449,0.50613 1.454051,0.39487 1.763882,-0.22362 0.317455,-0.6337 0.235209,-2.10964 -0.142592,-2.55862 -0.383749,-0.45606 -1.137167,-0.34977 -1.549744,0.21863 -0.06921,0.0953 -0.203685,0.17336 -0.298832,0.17336 -0.145966,0 -0.182728,-0.11512 -0.235279,-0.73674 -0.07731,-0.91471 -0.07836,-1.89757 -0.0025,-2.35618 l 0.05764,-0.3485 0.438076,0.13183 c 0.564307,0.16984 1.489077,0.16682 2.060904,-0.007 0.583469,-0.17707 0.676192,-0.0105 0.23319,0.41887 -0.409931,0.39731 -1.178837,0.68266 -1.839514,0.68266 h -0.528593 v 0.77232 0.77232 l 0.381346,-0.19455 c 0.795168,-0.40567 1.700598,-0.14271 2.262758,0.65714 0.269523,0.38348 0.292893,0.48073 0.292893,1.21865 0,0.7346 -0.02432,0.83698 -0.289482,1.21947 -0.569989,0.82216 -1.7692,1.17375 -2.566609,0.75248 z m -14.81404,-0.21723 c 0,-0.13729 0.261163,-0.50736 0.698139,-0.98927 1.790828,-1.97499 2.161795,-2.5897 2.063525,-3.4194 -0.07196,-0.60757 -0.290079,-1.01525 -0.640028,-1.19621 -0.358377,-0.18533 -0.706753,-0.18554 -1.064319,-7.3e-4 -0.327449,0.16933 -0.567655,0.52863 -0.35342,0.52863 0.194323,0 0.451643,0.31979 0.451643,0.56128 0,0.27561 -0.327616,0.59426 -0.610991,0.59426 -0.862168,0 -0.612957,-1.5868 0.325429,-2.07206 1.035123,-0.53529 2.38328,-0.0432 2.832496,1.03379 0.396948,0.95172 0.06714,1.61182 -1.536916,3.07613 -1.150812,1.05056 -1.186643,1.09486 -0.950131,1.17477 0.135179,0.0457 0.648275,0.0529 1.140218,0.0159 l 0.894435,-0.0671 0.08431,-0.40117 c 0.06666,-0.31719 0.131604,-0.40787 0.310252,-0.43317 0.200823,-0.0284 0.220236,-0.002 0.174601,0.24073 -0.02824,0.15001 -0.07827,0.48941 -0.111172,0.75422 -0.110873,0.89227 0.06332,0.8185 -1.933104,0.8185 h -1.774965 z m -10.0859372,-0.8028 c 0.096505,-0.85624 0.802041,-1.41755 1.7082722,-1.35906 0.423651,0.0273 0.674133,0.12192 1.251835,0.47265 1.099295,0.6674 1.301909,0.75297 1.783006,0.75297 0.704148,0 1.251809,-0.37573 1.355825,-0.9302 0.06293,-0.33544 0.17466,-0.41604 0.261837,-0.18888 0.155883,0.40623 -0.315337,1.30142 -0.823353,1.56412 -0.49869,0.25788 -1.390287,0.14645 -2.014451,-0.25177 -1.375775,-0.87775 -1.94773,-1.03038 -2.6342942,-0.70298 -0.2490473,0.11876 -0.4033887,0.29239 -0.5564018,0.62592 -0.1164594,0.25386 -0.2501355,0.46156 -0.2970508,0.46156 -0.046921,0 -0.062779,-0.19995 -0.035224,-0.44433 z m -0.025033,-2.11131 c 0,-0.58876 0.3144893,-1.0548 0.9076093,-1.34499 0.4654319,-0.22771 0.5774519,-0.24697 0.9610149,-0.16516 0.238791,0.051 0.858517,0.33237 1.377182,0.62544 1.129145,0.638 1.271854,0.68535 1.818733,0.60334 0.541091,-0.0811 0.961515,-0.4315 1.043742,-0.86979 0.06337,-0.33781 0.195583,-0.44359 0.271511,-0.2172 0.06567,0.19583 -0.09401,0.76101 -0.288693,1.02176 -0.306264,0.41021 -0.663913,0.61612 -1.151562,0.66297 -0.549998,0.0529 -0.958981,-0.0962 -1.843018,-0.67153 -1.315139,-0.85593 -2.4597013,-0.73488 -2.7926992,0.29536 -0.1584911,0.49034 -0.30382,0.51895 -0.30382,0.0598 z"
         style="fill:#b3b3b3;stroke-width:0.03377"
         id="path8442" /><path
         d="m -33.381668,173.56266 c 0,-0.0896 0.11237,-0.29643 0.249713,-0.45965 0.239587,-0.28474 0.458636,-0.86558 0.45982,-1.21932 0,-0.11813 -0.05963,-0.15228 -0.202131,-0.11502 -0.320916,0.084 -0.710286,-0.23091 -0.710286,-0.57431 0,-0.62047 0.716715,-0.84436 1.108507,-0.34627 0.38768,0.49283 0.209441,1.80099 -0.344296,2.52697 -0.281413,0.36895 -0.561327,0.4625 -0.561327,0.1876 z m -35.081729,-1.7899 c -1.207475,-2.65141 -1.675566,-3.6266 -1.740765,-3.6266 -0.04149,0 -0.195296,0.0943 -0.341769,0.20949 -0.266319,0.20948 -0.471154,0.19185 -0.471154,-0.0407 0,-0.0679 0.320429,-0.36324 0.712072,-0.65632 l 0.712068,-0.53287 0.433445,0.94128 c 0.238391,0.5177 0.636069,1.38635 0.883735,1.93034 0.44851,0.98519 0.535912,1.10319 0.638684,0.86226 0.02975,-0.0697 0.968429,-2.02125 2.085946,-4.33669 l 2.031856,-4.20989 5.279542,-0.0277 5.279537,-0.0278 v 0.30671 0.30671 h -5.072161 c -4.666384,0 -5.072156,-0.0136 -5.072156,-0.16908 0,-0.093 -0.02477,-0.1443 -0.05505,-0.11403 -0.03025,0.0303 -1.054814,2.12635 -2.276757,4.65794 -2.510343,5.20085 -2.489935,5.16082 -2.63318,5.16082 -0.05783,0 -0.235085,-0.2853 -0.393897,-0.63401 z m 6.775217,1e-5 c -1.019211,-0.51395 -1.292773,-2.1303 -0.36056,-2.1303 0.602237,0 0.787159,0.65783 0.288342,1.02572 l -0.278967,0.20574 0.26299,0.2663 c 0.523224,0.52978 1.432997,0.48806 1.857812,-0.0853 0.184898,-0.24951 0.212388,-0.42906 0.212388,-1.38746 0,-0.95994 -0.02726,-1.13753 -0.21309,-1.38721 -0.170931,-0.22969 -0.305192,-0.29241 -0.678573,-0.31701 -0.411787,-0.0271 -0.511496,0.0109 -0.864357,0.32969 -0.712932,0.64408 -0.729338,0.61113 -0.729338,-1.46563 0,-1.00427 0.0171,-1.82598 0.03796,-1.82598 0.0209,0 0.232041,0.0685 0.469245,0.15217 0.55032,0.19417 1.677161,0.19567 2.223321,0.003 0.375774,-0.13258 0.429447,-0.13201 0.482077,0.006 0.08013,0.2088 -0.27271,0.56441 -0.85555,0.86226 -0.367815,0.18797 -0.640735,0.24549 -1.164852,0.24549 h -0.684498 v 0.82596 0.82597 l 0.38041,-0.19865 c 1.222962,-0.63863 2.714815,0.46111 2.707387,1.99578 -0.008,1.66485 -1.67172,2.77026 -3.091662,2.05423 z m 5.426917,-0.0175 c -0.136241,-0.20794 -0.145006,-0.36002 -0.05699,-0.98908 0.185081,-1.32283 0.622841,-2.34157 1.573381,-3.66149 0.31204,-0.4333 0.567355,-0.8099 0.567355,-0.8369 0,-0.0269 -0.613583,-0.049 -1.36352,-0.049 h -1.363508 l -0.08488,0.43113 c -0.06788,0.34482 -0.132648,0.43796 -0.3235,0.46528 -0.203983,0.0292 -0.230715,-2.7e-4 -0.18415,-0.20289 0.02994,-0.13037 0.111716,-0.63646 0.181693,-1.12466 0.109187,-0.76173 0.154724,-0.88764 0.321027,-0.88764 0.106598,0 0.262282,0.0685 0.345971,0.15218 0.122908,0.12291 0.472595,0.15217 1.818727,0.15217 h 1.666568 v 0.24326 c 0,0.14109 -0.292785,0.64179 -0.697004,1.19196 -1.138276,1.5493 -1.263914,1.90845 -1.388889,3.97056 -0.06064,1.00061 -0.102223,1.21183 -0.254663,1.29339 -0.307233,0.16444 -0.588868,0.10935 -0.75762,-0.14821 z m 18.676945,0.0863 c -0.207036,-0.20704 -0.209106,-1.02405 -0.0046,-1.82279 0.217157,-0.84825 0.841338,-2.09342 1.498071,-2.98852 l 0.558223,-0.76082 -1.277709,-0.0285 c -0.702736,-0.0157 -1.332628,-0.008 -1.399762,0.0183 -0.06713,0.0258 -0.153444,0.23261 -0.191801,0.45967 -0.05697,0.3369 -0.110938,0.41285 -0.293455,0.41285 h -0.223661 l 0.159953,-1.0898 c 0.132932,-0.90559 0.19162,-1.09589 0.347234,-1.12586 0.102994,-0.0199 0.225202,0.0255 0.271571,0.10072 0.06339,0.10285 0.519198,0.14938 1.836943,0.18751 1.530503,0.0442 1.756733,0.0721 1.784994,0.21981 0.0178,0.093 -0.318945,0.64079 -0.748326,1.21731 -0.429378,0.57653 -0.865037,1.24459 -0.968142,1.48457 -0.251519,0.58543 -0.39141,1.50591 -0.392333,2.58161 -0.0012,0.75173 -0.03183,0.91868 -0.203655,1.09051 -0.243698,0.2437 -0.536474,0.26059 -0.753583,0.0435 z m 9.205433,-0.0377 c -0.685716,-0.31133 -1.212479,-1.33204 -0.945179,-1.83149 0.150775,-0.28173 0.50334,-0.41024 0.760948,-0.27738 0.461726,0.23814 0.487038,0.70709 0.05241,0.97139 l -0.302627,0.18404 0.291305,0.27909 c 0.597177,0.57214 1.50359,0.50386 1.879306,-0.14157 0.162461,-0.27908 0.206304,-0.53583 0.207898,-1.21732 0.0023,-1.01421 -0.07309,-1.34186 -0.373403,-1.62165 -0.404078,-0.37646 -1.192647,-0.21616 -1.58312,0.32179 -0.07291,0.10044 -0.221269,0.18262 -0.329692,0.18262 -0.187911,0 -0.197133,-0.0855 -0.197133,-1.82598 0,-1.00429 0.01143,-1.82528 0.02535,-1.82445 0.01395,7.8e-4 0.20796,0.0673 0.431134,0.14771 0.522614,0.18829 1.611802,0.19458 2.215753,0.0128 0.590236,-0.17763 0.697977,-0.05 0.306043,0.3627 -0.445125,0.46864 -1.019952,0.7171 -1.786333,0.77211 l -0.684742,0.0491 v 0.78698 0.78698 l 0.380413,-0.19865 c 1.215634,-0.6348 2.677379,0.44314 2.677379,1.9744 0,0.99361 -0.408421,1.65046 -1.282536,2.06268 -0.611834,0.28852 -1.173414,0.3027 -1.743189,0.0439 z m -21.211169,-1.04827 c 0.104325,-0.92556 0.890812,-1.55275 1.846521,-1.47251 0.404432,0.034 0.742188,0.17777 1.5746,0.67046 1.207406,0.71468 1.703352,0.80022 2.445195,0.42175 0.332866,-0.16981 0.423902,-0.28431 0.524209,-0.65937 0.127879,-0.4781 0.219532,-0.56062 0.323056,-0.29085 0.09464,0.24662 -0.116517,0.90665 -0.39652,1.23941 -0.349069,0.41485 -0.757196,0.55692 -1.45485,0.50646 -0.490306,-0.0354 -0.727063,-0.1261 -1.359834,-0.52049 -0.959328,-0.59792 -1.391417,-0.77976 -1.852858,-0.77976 -0.628352,0 -1.204486,0.41349 -1.353743,0.97156 -0.04166,0.1558 -0.136938,0.30366 -0.211721,0.32858 -0.105116,0.0351 -0.124198,-0.0592 -0.08405,-0.41525 z m 0.02668,-2.02688 c -0.221073,-0.55132 0.352362,-1.46234 1.100245,-1.74796 0.590205,-0.22541 1.047855,-0.10672 2.274123,0.58979 1.041717,0.59167 1.530573,0.7414 2.048867,0.62757 0.462894,-0.10168 0.900957,-0.5147 0.977263,-0.92143 0.07838,-0.41779 0.206833,-0.52818 0.294227,-0.25283 0.09592,0.30225 -0.112948,0.935 -0.416059,1.26039 -0.716749,0.76943 -1.68351,0.75086 -2.854532,-0.0549 -1.461361,-1.00544 -2.625045,-0.94864 -3.117592,0.15223 -0.18266,0.40824 -0.25099,0.4856 -0.306542,0.34706 z"
         style="fill:#b3b3b3;stroke-width:0.0355755"
         id="path8465" /></g></g></svg>
