<?xml version="1.0" encoding="UTF-8" standalone="no"?>
<!-- Created with Inkscape (http://www.inkscape.org/) -->

<svg
   width="406.39999mm"
   height="228.59999mm"
   viewBox="0 0 406.39999 228.59999"
   version="1.1"
   id="svg5"
   xml:space="preserve"
   inkscape:version="1.2.2 (732a01da63, 2022-12-09)"
   sodipodi:docname="approxi_sqrt.svg"
   xmlns:inkscape="http://www.inkscape.org/namespaces/inkscape"
   xmlns:sodipodi="http://sodipodi.sourceforge.net/DTD/sodipodi-0.dtd"
   xmlns="http://www.w3.org/2000/svg"
   xmlns:svg="http://www.w3.org/2000/svg"><sodipodi:namedview
     id="namedview7"
     pagecolor="#505050"
     bordercolor="#eeeeee"
     borderopacity="1"
     inkscape:showpageshadow="0"
     inkscape:pageopacity="0"
     inkscape:pagecheckerboard="0"
     inkscape:deskcolor="#505050"
     inkscape:document-units="mm"
     showgrid="false"
     inkscape:zoom="0.68221662"
     inkscape:cx="847.97113"
     inkscape:cy="598.78342"
     inkscape:window-width="1718"
     inkscape:window-height="1368"
     inkscape:window-x="0"
     inkscape:window-y="0"
     inkscape:window-maximized="0"
     inkscape:current-layer="g10703" /><defs
     id="defs2" /><g
     inkscape:label="Calque 1"
     inkscape:groupmode="layer"
     id="layer1"
     transform="translate(108.99487,-7.5461502)"><text
       xml:space="preserve"
       style="font-size:38.8056px;font-family:Alef;-inkscape-font-specification:Alef;fill:#ffffff;fill-opacity:1;stroke:none;stroke-width:20.896;stroke-linecap:square;paint-order:fill markers stroke"
       x="-25.102564"
       y="140.46153"
       id="text5266"><tspan
         sodipodi:role="line"
         id="tspan5264"
         style="stroke-width:20.896"
         x="-25.102564"
         y="140.46153" /></text><g
       id="g10703"
       transform="matrix(2.8514871,0,0,2.8514871,131.37758,-280.80682)"><text
         xml:space="preserve"
         style="font-size:14.8461px;font-family:Alef;-inkscape-font-specification:Alef;fill:#b3b3b3;stroke:none;stroke-width:0.877868;stroke-linecap:square;stroke-opacity:0.944795;paint-order:fill markers stroke"
         x="-29.213438"
         y="123.83728"
         id="text786"><tspan
           sodipodi:role="line"
           id="tspan784"
           style="stroke-width:0.877868"
           x="-29.213438"
           y="123.83728" /></text><text
         xml:space="preserve"
         style="font-size:8.56911px;font-family:Alef;-inkscape-font-specification:Alef;fill:#000000;stroke:#000000;stroke-width:0.641602;stroke-linecap:square;stroke-opacity:0.944795;paint-order:fill markers stroke"
         x="-77.530434"
         y="120.85334"
         id="text775"><tspan
           sodipodi:role="line"
           style="font-size:8.56911px;fill:#000000;stroke:#000000;stroke-width:0.641602"
           x="-77.530434"
           y="120.85334"
           id="tspan777">Approximation d'une racine carré</tspan></text><path
         style="fill:#b3b3b3;stroke-width:0.188226"
         d="m 11.389837,157.43469 c -0.06361,-0.10295 0.10794,-0.48026 0.381212,-0.83853 0.429949,-0.5637 1.029802,-2.07425 1.029802,-2.59326 0,-0.0941 -0.16517,-0.11857 -0.367045,-0.0545 -0.55553,0.17632 -1.51522,-0.39441 -1.51522,-0.9011 0,-1.53904 1.95193,-1.72519 2.444361,-0.2331 0.39121,1.18538 -0.06562,3.063 -1.020871,4.19586 -0.539304,0.63959 -0.758872,0.7375 -0.952239,0.42462 z m -66.332721,-6.11947 c -0.972023,-2.12833 -1.829585,-3.90818 -1.905692,-3.95522 -0.07611,-0.047 -0.352271,0.0827 -0.613698,0.28837 -0.558524,0.43933 -0.809245,0.47028 -0.944951,0.11663 -0.125184,-0.32622 2.451814,-2.32273 2.682472,-2.07822 0.08865,0.0939 0.863362,1.71765 1.72158,3.60816 0.858218,1.8905 1.626186,3.37149 1.706595,3.29109 0.08041,-0.0804 1.87316,-3.74474 3.983892,-8.14296 l 3.837693,-7.99675 9.721155,-0.0488 9.721152,-0.0488 v 0.56638 0.56637 h -9.395643 c -5.733926,0 -9.420093,-0.0693 -9.458384,-0.178 -0.0345,-0.0979 -2.012494,3.86107 -4.395524,8.79771 -2.526309,5.23344 -4.449637,8.99819 -4.613057,9.02967 -0.198938,0.0384 -0.793153,-1.06903 -2.04759,-3.81573 z m 14.144131,2.85548 c -1.534197,-0.5564 -2.517631,-1.9849 -2.10808,-3.0621 0.320827,-0.84384 1.593483,-0.95721 2.107291,-0.18771 0.308386,0.46185 0.142264,1.23484 -0.332185,1.54572 -0.466783,0.30584 -0.468844,0.31722 -0.103819,0.57288 0.610422,0.42757 1.972063,0.60577 2.602637,0.34063 1.448408,-0.60901 1.598039,-4.26984 0.214144,-5.23915 -0.256682,-0.17978 -0.810742,-0.30694 -1.33747,-0.30694 -0.773765,0 -0.89925,-0.0526 -0.89925,-0.37645 0,-0.29774 0.125485,-0.37645 0.600089,-0.37645 0.773324,0 1.787994,-0.6954 2.032203,-1.39274 0.323957,-0.92507 0.236413,-2.46237 -0.168717,-2.96268 -0.453582,-0.56015 -1.75177,-0.61328 -2.529748,-0.10353 l -0.520185,0.34084 0.481407,0.37868 c 0.870877,0.68503 0.461927,1.85715 -0.647955,1.85715 -1.752388,0 -1.355166,-2.37399 0.559026,-3.34101 1.492016,-0.75375 3.242136,-0.46035 4.381921,0.7346 0.601805,0.63093 0.705849,0.86507 0.705849,1.58845 0,0.46663 -0.119491,1.07716 -0.265535,1.35671 -0.28756,0.55044 -1.120992,1.38003 -1.688685,1.68091 -0.312234,0.16549 -0.247741,0.241 0.543256,0.63605 1.136042,0.56737 1.8071,1.43787 1.926751,2.49941 0.131122,1.1633 -0.218811,2.03753 -1.164481,2.90923 -1.19076,1.0976 -2.893436,1.4497 -4.388459,0.9075 z m 43.6655942,-0.14752 c -1.4993299,-0.74215 -2.32044563,-3.002 -1.3703251,-3.77135 0.5250674,-0.42518 0.745556,-0.43315 1.297024,-0.0469 0.5717043,0.40043 0.5058607,1.4034 -0.109866,1.67353 -0.5725757,0.2512 -0.5328693,0.53573 0.1556126,1.11505 0.4547911,0.38269 0.7820606,0.4873 1.5244073,0.4873 1.7415116,0 2.4083644,-1.29562 2.1644303,-4.20526 -0.1472064,-1.75587 -0.5158368,-2.26827 -1.6873438,-2.34546 -0.7640624,-0.0504 -0.9490721,0.0202 -1.6037994,0.61174 -1.3228392,1.19511 -1.3532698,1.13395 -1.3532698,-2.71944 0,-1.86344 0.021176,-3.38717 0.047057,-3.38605 0.025881,0.001 0.4628529,0.12818 0.9710476,0.28235 1.1639648,0.3531 2.7668983,0.35569 3.9181673,0.006 1.1500605,-0.349 1.3258697,-0.0846 0.5060922,0.76126 -0.8296067,0.85593 -2.4367151,1.45555 -3.6071548,1.34582 l -0.8940762,-0.0838 v 1.56953 1.56953 l 0.6117363,-0.37298 c 0.7177794,-0.43764 1.9512695,-0.48824 2.8408695,-0.11654 0.9332385,0.38992 1.9485514,1.69039 2.1866975,2.80082 0.4533343,2.11383 -0.4672423,3.93691 -2.4394518,4.83102 -1.0918175,0.49499 -2.1491276,0.49281 -3.1578543,-0.007 z m 18.7386418,0.21199 c -1.33305,-0.40159 -2.24698,-1.66562 -2.710426,-3.74873 -0.546087,-2.45455 -0.11297,-5.18471 1.1029,-6.95209 0.991243,-1.44088 3.009957,-2.36629 4.400536,-2.01728 0.853551,0.21422 1.578217,1.103 1.578217,1.93562 0,0.40136 -0.101646,0.83138 -0.225872,0.95562 -0.291171,0.29116 -1.139351,0.29116 -1.430522,0 -0.370458,-0.37046 -0.268774,-1.22855 0.183088,-1.54504 0.394364,-0.27623 0.396043,-0.29149 0.04706,-0.42778 -0.710182,-0.27732 -1.683104,-0.15011 -2.319931,0.30335 -0.780994,0.55612 -1.268583,1.62859 -1.441433,3.17047 l -0.132396,1.18101 0.582794,-0.5444 c 1.750518,-1.63523 4.587019,-0.27158 5.137587,2.46989 0.287119,1.42967 0.0795,2.57981 -0.659211,3.65175 -0.998722,1.44924 -2.546673,2.03931 -4.112387,1.56761 z m 2.332926,-1.25861 c 0.399303,-0.42453 0.443269,-0.66189 0.493276,-2.66312 0.06694,-2.67893 -0.193155,-3.4093 -1.312591,-3.68589 -1.347728,-0.33299 -2.160231,0.72585 -2.353376,3.06691 -0.115281,1.39732 0.132061,2.55922 0.697944,3.27862 0.617531,0.78507 1.73811,0.78664 2.474747,0.003 z m -56.688384,0.56962 c 0,-0.38295 0.102513,-0.42836 1.082303,-0.47947 l 1.082303,-0.0565 0.05016,-4.92869 0.05016,-4.92871 -0.613593,0.17598 c -0.337478,0.0968 -0.895328,0.17598 -1.239667,0.17598 -0.540829,0 -0.61788,-0.0574 -0.565921,-0.42159 0.03308,-0.23187 0.187201,-0.43824 0.342488,-0.4586 0.155286,-0.0203 0.679318,-0.0891 1.164514,-0.15284 0.485197,-0.0637 1.19492,-0.32806 1.577165,-0.58745 1.218799,-0.82711 1.200008,-0.90831 1.255364,5.4251 l 0.04982,5.70082 1.082303,0.0565 c 0.979786,0.0511 1.082302,0.0965 1.082302,0.47947 0,0.42195 -0.0081,0.42302 -3.199851,0.42302 -3.19178,0 -3.199852,-0.001 -3.199852,-0.42302 z m 14.116993,-1.30744 c 0,-1.61748 1.374437,-2.90237 3.096358,-2.89462 0.963609,0.005 1.138438,0.0804 4.244477,1.84703 1.9638122,1.11695 3.9440499,0.65061 4.488241,-1.05697 0.1392293,-0.43688 0.3298088,-0.79434 0.4235098,-0.79434 0.3207023,0 0.1707253,1.35981 -0.2282774,2.06974 -0.934479,1.66268 -3.1535624,1.9901 -5.0944024,0.75167 -0.550424,-0.35122 -1.457392,-0.87561 -2.015485,-1.16532 -1.940779,-1.00745 -3.765419,-0.53432 -4.34394,1.12638 -0.338805,0.97259 -0.570481,1.01988 -0.570481,0.11643 z m 0,-4.31664 c 0,-1.04727 0.457107,-1.89384 1.336643,-2.47548 1.121531,-0.74167 2.34352,-0.7204 3.748594,0.0653 0.567668,0.31742 1.50744,0.84272 2.088382,1.16732 1.4636896,0.81786 2.4755037,0.92229 3.5552935,0.36697 0.6917495,-0.35577 0.8934249,-0.58227 1.1001635,-1.23559 0.2950979,-0.93253 0.5938755,-1.04787 0.5938755,-0.22923 0,1.46744 -1.2157703,2.78847 -2.7226049,2.95831 -1.0064006,0.11347 -1.9745206,-0.23399 -3.6195226,-1.29895 -1.520908,-0.98462 -2.680541,-1.33589 -3.673548,-1.11277 -0.950891,0.21365 -1.771973,0.98826 -1.927756,1.81866 -0.157587,0.84002 -0.47952,0.82357 -0.47952,-0.0245 z"
         id="path537" /></g></g></svg>
