<?xml version="1.0" encoding="UTF-8" standalone="no"?>
<!-- Created with Inkscape (http://www.inkscape.org/) -->

<svg
   width="406.39999mm"
   height="228.59999mm"
   viewBox="0 0 406.39999 228.59999"
   version="1.1"
   id="svg5"
   xml:space="preserve"
   inkscape:version="1.2.2 (732a01da63, 2022-12-09)"
   sodipodi:docname="crit_div.svg"
   xmlns:inkscape="http://www.inkscape.org/namespaces/inkscape"
   xmlns:sodipodi="http://sodipodi.sourceforge.net/DTD/sodipodi-0.dtd"
   xmlns="http://www.w3.org/2000/svg"
   xmlns:svg="http://www.w3.org/2000/svg"><sodipodi:namedview
     id="namedview7"
     pagecolor="#505050"
     bordercolor="#eeeeee"
     borderopacity="1"
     inkscape:showpageshadow="0"
     inkscape:pageopacity="0"
     inkscape:pagecheckerboard="0"
     inkscape:deskcolor="#505050"
     inkscape:document-units="mm"
     showgrid="false"
     inkscape:zoom="0.4824"
     inkscape:cx="838.51575"
     inkscape:cy="600.12438"
     inkscape:window-width="1718"
     inkscape:window-height="1368"
     inkscape:window-x="-7"
     inkscape:window-y="0"
     inkscape:window-maximized="0"
     inkscape:current-layer="g10703" /><defs
     id="defs2" /><g
     inkscape:label="Calque 1"
     inkscape:groupmode="layer"
     id="layer1"
     transform="translate(108.99487,-7.5461502)"><text
       xml:space="preserve"
       style="font-size:38.8056px;font-family:Alef;-inkscape-font-specification:Alef;fill:#ffffff;fill-opacity:1;stroke:none;stroke-width:20.896;stroke-linecap:square;paint-order:fill markers stroke"
       x="-25.102564"
       y="140.46153"
       id="text5266"><tspan
         sodipodi:role="line"
         id="tspan5264"
         style="stroke-width:20.896"
         x="-25.102564"
         y="140.46153" /></text><g
       id="g10703"
       transform="matrix(2.8514871,0,0,2.8514871,131.37758,-280.80682)"><text
         xml:space="preserve"
         style="font-size:14.8461px;font-family:Alef;-inkscape-font-specification:Alef;fill:#b3b3b3;stroke:none;stroke-width:0.877868;stroke-linecap:square;stroke-opacity:0.944795;paint-order:fill markers stroke"
         x="-29.213438"
         y="123.83728"
         id="text786"><tspan
           sodipodi:role="line"
           id="tspan784"
           style="stroke-width:0.877868"
           x="-29.213438"
           y="123.83728" /></text><path
         style="fill:#b3b3b3;stroke-width:0.141111"
         d="m -7.0747926,177.28185 c -0.260253,-0.0966 -0.05324,-0.45517 0.3972254,-0.68811 0.3293094,-0.17029 0.4062327,-0.3029 0.4062327,-0.70034 0,-0.39619 0.054151,-0.49026 0.2822216,-0.49026 0.1552201,0 0.2904091,0.0794 0.3004159,0.17638 0.100007,0.96948 -0.087689,1.51694 -0.5200828,1.51694 -0.1120214,0 -0.2036655,0.05 -0.2036655,0.11102 0,0.12456 -0.4045285,0.16996 -0.6623473,0.0744 z m -53.9474194,-1.32912 c -0.426859,-0.0709 -0.871356,-0.16418 -0.987773,-0.20726 -0.116417,-0.0431 -0.226318,-0.0583 -0.244227,-0.0338 -0.09776,0.13322 -0.44761,-0.60328 -0.375644,-0.79081 0.09102,-0.2372 0.47876,-0.31249 0.47876,-0.0929 0,0.21001 0.975089,0.47143 1.697712,0.45516 1.326762,-0.0299 1.733268,-0.43281 1.35356,-1.34156 l -0.20671,-0.49473 -0.5349,0.2727 c -0.294194,0.14996 -0.632596,0.27234 -0.752005,0.27193 -1.000662,-0.004 -2.263209,-0.92271 -2.263209,-1.64753 0,-0.89647 1.297275,-1.53186 2.643375,-1.29468 0.778223,0.13718 1.196147,0.5438 1.400141,1.3625 0.0909,0.36481 0.275947,0.94971 0.411229,1.2998 0.434844,1.12534 0.07657,1.96459 -0.926983,2.17143 -0.194026,0.04 -0.479776,0.10113 -0.634997,0.13581 -0.155222,0.0346 -0.63147,0.005 -1.058329,-0.0659 z m 1.23023,-3.07808 c 0.256946,-0.33358 0.215754,-0.78285 -0.09779,-1.06662 -0.228206,-0.20651 -0.41333,-0.23431 -1.022383,-0.15352 -1.112145,0.14753 -1.52434,0.62439 -0.971883,1.12437 0.564389,0.51075 1.731235,0.56419 2.092055,0.0958 z m 39.339041,3.04692 c -0.766387,-0.29989 -1.058329,-0.52442 -1.058329,-0.81395 0,-0.15705 0.05808,-0.24969 0.129054,-0.20581 0.07097,0.044 0.158946,0 0.195473,-0.0975 0.04921,-0.13139 0.116281,-0.11801 0.258995,0.0517 0.460051,0.54681 2.117978,0.73448 2.652514,0.30026 0.411424,-0.33423 0.4602,-1.00898 0.101999,-1.41111 -0.217737,-0.24445 -0.436015,-0.31749 -0.948666,-0.31749 -0.809909,0 -1.034345,-0.31347 -0.444252,-0.62048 0.554834,-0.28867 1.06714,-0.88288 0.972909,-1.12844 -0.188517,-0.49128 -1.887324,-0.44482 -2.322566,0.0635 -0.300342,0.35079 -0.917792,0.3751 -0.852018,0.0337 0.07727,-0.40123 1.149778,-1.05326 1.865046,-1.13387 0.908304,-0.10236 1.884779,0.27801 2.019349,0.78667 0.123366,0.4663 0.07448,0.73366 -0.187883,1.02736 -0.180023,0.20156 -0.160958,0.2556 0.165631,0.46959 0.514575,0.33717 0.794002,1.07111 0.679767,1.78549 -0.07383,0.46168 -0.206752,0.66135 -0.657898,0.98816 -0.470819,0.34104 -0.697534,0.40774 -1.355589,0.39882 -0.434617,-0.006 -0.980713,-0.0853 -1.213545,-0.17639 z m 9.71601,-0.0426 c -0.359944,-0.1276 -0.613635,-0.31667 -0.659322,-0.49138 -0.107094,-0.40955 0.246913,-0.48689 0.893728,-0.1952 1.3464894,0.60718 3.2988164,-0.36918 2.2321514,-1.11631 -0.219831,-0.15396 -0.572384,-0.20082 -1.254971,-0.16677 -0.5220944,0.026 -1.0127014,0.007 -1.0902374,-0.0408 -0.07753,-0.0486 -0.181381,-0.49264 -0.230762,-0.98698 -0.04938,-0.49437 -0.158005,-1.0263 -0.24139,-1.18212 -0.232631,-0.43467 0.05533,-0.52504 1.6811174,-0.52745 1.188439,-0.002 1.46616,0.0378 1.535678,0.21899 0.155506,0.40525 -0.199506,0.55197 -1.221341,0.50478 -0.9255914,-0.0428 -0.9814884,-0.0277 -1.0537854,0.28473 -0.04199,0.18145 -0.06283,0.47277 -0.04633,0.64739 0.02568,0.27173 0.112158,0.31761 0.5997114,0.31828 1.264243,0.002 2.333573,0.61556 2.333573,1.3395 0,0.17123 -0.144307,0.52544 -0.320672,0.78717 -0.519608,0.77103 -1.928835,1.04163 -3.1571514,0.6062 z m 8.2050252,-0.13276 c -0.579855,-0.30082 -0.6234948,-0.36679 -0.4836906,-0.73115 0.1477294,-0.38503 0.495352,-0.41686 0.5902306,-0.054 0.095536,0.36536 1.1110692,0.50286 1.93956115,0.26262 0.5285028,-0.15326 0.6424565,-0.248 0.6794752,-0.56499 0.067008,-0.57373 -0.5957615,-1.1405 -1.21598715,-1.03985 -0.9723242,0.15778 -1.2293888,-0.35583 -0.3151804,-0.62975 0.68872805,-0.20634 1.19234735,-0.70731 1.07685905,-1.07117 -0.1264387,-0.39837 -0.79275715,-0.73441 -1.28354115,-0.64733 -0.2328067,0.0413 -0.6179596,0.2589 -0.8558939,0.48354 -0.4377385,0.41327 -0.6257205,0.40763 -0.6257205,-0.0187 0,-0.34738 0.5557035,-0.79752 1.2300731,-0.99636 0.5103865,-0.15056 0.6863354,-0.14068 1.23632685,0.0696 0.6327946,0.24167 1.0142901,0.65955 0.847895,0.92879 -0.046981,0.0761 -0.022602,0.13824 0.054185,0.13824 0.1748789,0 -0.064416,0.89752 -0.2563861,0.96162 -0.07313,0.0245 0.085726,0.33091 0.3530184,0.68109 0.60870445,0.79744 0.65347065,1.46109 0.1312139,1.94511 -0.5842711,0.54149 -2.30213505,0.6982 -3.10242585,0.28304 z m 6.6968678,0.12318 c -0.1972613,-0.0307 -0.546508,-0.21148 -0.7761078,-0.40158 -0.399742,-0.33097 -0.4062826,-0.35431 -0.1542231,-0.55009 0.2338929,-0.18166 0.307651,-0.17161 0.6618801,0.0904 0.3275471,0.24217 0.517866,0.27839 1.0670099,0.20313 1.076974,-0.14767 1.533876,-0.78729 0.8653701,-1.21154 -0.1746242,-0.11087 -0.7619962,-0.23722 -1.3052713,-0.2809 -0.847571,-0.0681 -0.9877735,-0.1174 -0.9877735,-0.34683 0,-0.19612 0.1722153,-0.31764 0.6458123,-0.45573 0.8599441,-0.25074 1.2051155,-0.62293 0.9526513,-1.02718 -0.2657118,-0.42547 -1.6168065,-0.42628 -2.0730423,-0.002 -0.17387,0.162 -0.4031636,0.26113 -0.509541,0.22031 -0.336451,-0.12911 -0.075202,-0.6034 0.5151197,-0.93518 0.6869268,-0.38608 1.7588124,-0.34173 2.3492244,0.0972 0.4521724,0.33612 0.5906126,1.15812 0.2435675,1.44613 -0.3039748,0.25229 -0.2737431,0.38487 0.1096944,0.48112 0.5497446,0.13793 1.0826085,0.73312 1.0826085,1.20916 0,0.59114 -0.6297471,1.26018 -1.3405506,1.4242 -0.5759357,0.13293 -0.7168594,0.13703 -1.3464301,0.0387 z m -55.071517,-0.19816 c -1.535926,-0.41526 -1.64516,-2.6812 -0.195703,-4.05966 0.642368,-0.61091 1.520217,-0.80474 1.974942,-0.43606 0.387815,0.31444 0.236675,0.48461 -0.392751,0.44221 -0.399096,-0.027 -0.592934,0.0736 -1.123898,0.58232 -0.352891,0.33813 -0.641582,0.6733 -0.641533,0.74481 5e-5,0.0714 0.379667,0.13762 0.843596,0.14704 0.975438,0.0198 1.431434,0.26074 1.694412,0.89561 0.136612,0.3298 0.143668,0.52588 0.02807,0.77959 -0.298106,0.65426 -1.410509,1.11413 -2.187138,0.90414 z m 1.165858,-0.82857 c 0.761723,-0.40766 0.318835,-1.1328 -0.691876,-1.1328 -0.952,0 -1.228741,0.35452 -0.747181,0.95719 0.266579,0.33363 0.98091,0.42081 1.439057,0.17561 z m 12.60628,0.78007 c -0.866957,-0.20843 -1.169799,-0.42556 -1.166843,-0.83654 0.0033,-0.46931 0.176382,-0.65747 0.391458,-0.42572 0.100068,0.10781 0.131821,0.1986 0.07055,0.20169 -0.06127,0.004 0.07171,0.10479 0.29548,0.22604 0.867676,0.46998 2.76811,0.10326 2.76811,-0.53408 0,-0.13292 -0.174624,-0.37912 -0.388055,-0.54724 -0.315805,-0.24877 -0.50628,-0.29048 -1.023051,-0.22399 -0.349249,0.0451 -0.723624,0.0256 -0.831948,-0.0431 -0.273487,-0.17328 -0.086,-0.57661 0.268043,-0.57661 0.46401,0 0.987237,-0.418 0.987237,-0.78871 0,-0.36145 -0.595652,-0.7635 -1.131152,-0.7635 -0.364183,0 -0.874937,0.25567 -1.027795,0.51448 -0.131091,0.22199 -0.467345,0.25281 -0.590146,0.0542 -0.04655,-0.0753 0.01125,-0.32254 0.128612,-0.54935 0.164621,-0.31834 0.367085,-0.44851 0.887706,-0.5707 0.370947,-0.0871 0.811112,-0.13048 0.978147,-0.0964 1.017641,0.20746 1.709701,1.04993 1.441647,1.75495 -0.07175,0.18874 -0.112812,0.3575 -0.09125,0.37504 0.02157,0.0175 0.177276,0.10357 0.346006,0.19133 0.35376,0.18387 0.751549,0.90654 0.751549,1.36537 0,0.4471 -0.77632,1.15092 -1.389098,1.25938 -0.283741,0.0502 -0.611144,0.1136 -0.72756,0.14081 -0.116416,0.0272 -0.54286,-0.0299 -0.947654,-0.12728 z m 8.144291,-0.0512 c -0.80727,-0.0452 -1.147084,-0.20933 -0.910163,-0.43987 0.103931,-0.10113 3.731368,-0.23371 4.5273,-0.16548 0.08797,0.007 0.193211,0.14098 0.233886,0.29651 0.05414,0.20702 -0.0076,0.30165 -0.230485,0.35311 -0.292442,0.0675 -1.991446,0.0467 -3.620538,-0.0443 z m 13.461302,-0.0421 c -0.240946,-0.068 -0.613404,-0.29881 -0.827687,-0.51296 -0.365024,-0.36475 -0.385381,-0.44851 -0.322621,-1.32741 0.10565,-1.47949 0.854652,-2.2976 2.254075,-2.46208 1.313959,-0.15443 2.087135,0.41551 2.085182,1.5371 -0.0031,1.71554 -1.698548,3.18589 -3.188949,2.76535 z m 1.144851,-0.75258 c 0.927306,-0.38747 1.362853,-1.02384 1.362853,-1.9913 0,-0.3392 -0.03635,-0.67553 -0.08075,-0.7474 -0.132704,-0.21471 -1.073738,-0.33659 -1.279612,-0.16573 -0.102607,0.0851 -0.335926,0.18224 -0.518468,0.2157 -0.521616,0.0956 -1.047141,0.81986 -1.087164,1.49819 -0.01911,0.32374 -0.04748,0.65652 -0.06307,0.73949 -0.02609,0.13884 0.815739,0.65341 1.069806,0.65391 0.06069,1.2e-4 0.329084,-0.0911 0.596405,-0.20286 z m -42.184702,0.64025 c -0.129389,-0.20936 0.158334,-0.40691 0.732275,-0.50285 0.329846,-0.0552 0.602164,-0.14234 0.605151,-0.19367 0.0031,-0.0514 0.04057,-0.50143 0.08352,-1.0001 l 0.07808,-0.90664 -0.364665,0.23893 c -0.568597,0.37256 -1.53329,0.45829 -1.829031,0.16255 -0.347696,-0.3477 -0.205469,-0.57003 0.335768,-0.52486 0.718673,0.0599 1.371004,-0.22223 1.980749,-0.85679 0.813543,-0.84664 0.952461,-0.61868 0.651102,1.0685 -0.317142,1.77554 -0.315243,1.79554 0.170658,1.79554 0.534067,0 0.811313,0.31534 0.502543,0.57158 -0.237794,0.19735 -2.834992,0.32766 -2.946144,0.14783 z m 12.338615,-0.43717 c -0.104022,-0.19438 -0.106076,-0.36625 -0.0065,-0.55215 0.174264,-0.32561 0.380457,-0.40595 0.824232,-0.32111 0.418174,0.08 0.535662,0.36649 0.332809,0.8117 -0.202351,0.44412 -0.925025,0.48278 -1.15046,0.0615 z m 17.454929,-1.27824 c -0.295165,-0.05 -0.721217,-0.22733 -0.946783,-0.39411 -0.527972,-0.39033 -0.839921,-0.38198 -1.682684,0.0451 -0.55848,0.28301 -0.716206,0.31348 -0.841473,0.16254 -0.20205,-0.24345 0.124081,-0.54163 1.031337,-0.94296 0.784107,-0.34686 1.278761,-0.30025 1.931249,0.18193 0.369293,0.27291 0.615195,0.3221 1.647951,0.32964 1.211146,0.009 1.510687,0.13625 1.107421,0.47088 -0.237704,0.19728 -1.472941,0.2781 -2.247018,0.14706 z m -17.287923,-0.67832 c -0.512424,-0.32493 0.002,-1.24959 0.604993,-1.08756 0.157481,0.0422 0.333953,0.0778 0.39216,0.0789 0.244056,0.005 0.08388,0.70686 -0.207786,0.91116 -0.35319,0.24738 -0.520471,0.26804 -0.789367,0.0975 z m 11.402481,-3.58203 c -8.16e-4,-0.0195 -0.03005,-0.99682 -0.06486,-2.17204 l -0.06329,-2.13675 0.382359,-0.0755 c 0.2103,-0.0415 0.6422,-0.15408 0.959783,-0.25005 0.502665,-0.15193 0.661592,-0.13961 1.227575,0.0944 0.385144,0.1593 0.713371,0.40764 0.80524,0.60929 l 0.155087,0.34037 0.228594,-0.33915 c 0.125724,-0.18652 0.239313,-0.35525 0.252412,-0.37495 0.01307,-0.0196 0.394234,-0.10434 0.846967,-0.188 0.610781,-0.11283 0.976998,-0.10902 1.419484,0.0152 0.567734,0.15894 0.607186,0.20563 0.822595,0.97335 0.124445,0.44351 0.226262,0.9096 0.226262,1.03574 0,0.3207 -0.255576,0.44379 -0.500068,0.24089 -0.161778,-0.13428 -0.255118,-0.12926 -0.438837,0.0232 -0.362563,0.30088 -2.341383,0.2631 -2.688858,-0.0515 -0.211251,-0.19118 -0.308115,-0.20764 -0.440838,-0.075 -0.252326,0.25234 -1.27873,0.52703 -1.978355,0.52946 l -0.614202,0.002 0.06057,0.69623 c 0.06546,0.75229 -0.06726,1.1382 -0.391403,1.1382 -0.112553,0 -0.205361,-0.0158 -0.206227,-0.0354 z m 2.017782,-2.45505 c 1.037337,-0.17142 1.052473,-1.1483 0.02387,-1.54112 -0.594832,-0.22718 -0.629035,-0.22485 -1.115204,0.0755 -0.384629,0.23772 -0.501548,0.40363 -0.501548,0.71172 0,0.74533 0.425524,0.94671 1.592876,0.75378 z m 3.91744,-0.26496 c 0.468128,-0.24208 0.524647,-0.55504 0.18723,-1.03677 -0.180968,-0.25835 -0.314362,-0.30942 -0.634997,-0.24306 -0.223247,0.0461 -0.591379,0.12227 -0.818071,0.16896 -0.280446,0.0577 -0.4669,0.21706 -0.583435,0.49841 -0.0942,0.2274 -0.146846,0.43382 -0.116994,0.4587 0.489779,0.40809 1.345121,0.47497 1.966272,0.15376 z m 35.7555667,2.59971 c -0.052875,-0.0857 -0.050418,-0.92179 0.00549,-1.85827 0.1113982,-1.86633 0.1448246,-1.93526 1.1836313,-2.44043 0.444908,-0.21635 0.511074,-0.21446 1.057176,0.0304 0.677895,0.30389 0.943469,0.54412 1.177185,1.06487 0.14487,0.32277 0.127913,0.4287 -0.118865,0.74244 -0.536596,0.68217 -1.848818,1.00942 -2.287722,0.5705 -0.3026208,-0.30263 -0.3168435,-0.28405 -0.3512742,0.4586 -0.053603,1.15631 -0.3894325,1.87877 -0.6655983,1.43194 z m 2.6194853,-2.67085 0.352777,-0.28016 -0.460838,-0.42223 c -0.253459,-0.23225 -0.614046,-0.42226 -0.801306,-0.42226 -0.33236,0 -0.7839606,0.3243 -0.7839606,0.56299 0,0.0657 -0.038534,0.21994 -0.08565,0.34269 -0.060922,0.15875 -0.0023,0.22321 0.2033366,0.22321 0.158946,0 0.328236,0.0634 0.376203,0.14112 0.145144,0.23485 0.824359,0.15255 1.199439,-0.14538 z m 22.083794,1.31911 c -0.977209,-0.21982 -2.469435,-0.81579 -2.469435,-0.98626 0,-0.34949 0.348123,-0.34494 1.419142,0.0186 1.375688,0.46686 1.92281,0.46978 2.131663,0.0106 0.126607,-0.27788 0.111302,-0.41843 -0.07684,-0.70555 -0.208732,-0.31857 -0.330101,-0.35856 -1.08816,-0.35856 -0.801533,0 -0.850493,-0.019 -0.808132,-0.31412 0.03569,-0.24856 0.170902,-0.33548 0.648092,-0.41652 0.331651,-0.0563 0.703188,-0.2026 0.825636,-0.32506 0.475974,-0.47597 -0.231409,-1.54858 -0.922706,-1.39912 -0.65419,0.14143 -1.119132,0.36006 -1.196916,0.56276 -0.100533,0.26198 -0.649565,0.25713 -0.649565,-0.006 0,-0.39773 0.93547,-0.94655 1.744222,-1.02329 0.638901,-0.0607 0.835619,-0.0212 1.185728,0.23766 0.56821,0.42008 0.841021,1.30717 0.542241,1.76316 -0.199356,0.30427 -0.189945,0.35424 0.132132,0.70177 0.50979,0.55007 0.496527,1.63246 -0.02503,2.04271 -0.353819,0.27832 -0.767789,0.33667 -1.392076,0.19624 z m -12.16104,-0.31901 c -0.47097,-0.21382 -0.618781,-0.37218 -0.732772,-0.78502 -0.167399,-0.60626 -0.01904,-1.11131 0.44622,-1.51898 0.273227,-0.23943 0.443377,-0.26179 1.366469,-0.17953 0.579909,0.0516 1.12786,0.15491 1.217668,0.22945 0.235156,0.19516 0.334509,-0.45595 0.235491,-1.54332 -0.07536,-0.82762 -0.061,-0.8925 0.187073,-0.84475 0.249907,0.048 0.268708,0.19931 0.268708,2.16069 v 2.10896 l -0.423333,0.10082 c -0.232832,0.0555 -0.677329,0.19815 -0.987774,0.31708 -0.730075,0.27973 -0.870531,0.27569 -1.57775,-0.0454 z m 1.89525,-0.71217 c 0.852514,-0.5198 0.467967,-1.10975 -0.593551,-0.9106 -0.404584,0.0759 -0.500056,0.0503 -0.500056,-0.13352 0,-0.23427 -0.373051,-0.30265 -0.651256,-0.11939 -0.27927,0.18397 -0.375351,0.75521 -0.186408,1.10827 0.149298,0.27895 0.289464,0.33585 0.826232,0.33542 0.395257,-2.8e-4 0.824624,-0.10919 1.105039,-0.28014 z m -79.903824,0.5135 c -0.825181,-0.38464 -1.134576,-0.86413 -1.115524,-1.72876 0.01491,-0.67604 0.398343,-1.81988 0.746781,-2.22769 0.459603,-0.53792 1.530893,-0.78921 2.38697,-0.55993 0.230734,0.0618 0.312533,0.17372 0.282222,0.38613 -0.03878,0.27175 -0.116644,0.29463 -0.851367,0.25028 -0.742584,-0.0449 -0.843509,-0.0137 -1.234718,0.3772 -0.689382,0.68938 -0.58402,0.87107 0.505139,0.87107 1.076741,0 1.778249,0.27521 2.012598,0.78955 0.360704,0.79166 0.04506,1.29049 -1.148633,1.81528 -0.448475,0.19717 -0.829473,0.35787 -0.846663,0.35712 -0.01719,-7.4e-4 -0.348752,-0.14934 -0.736805,-0.33025 z m 1.728603,-0.83843 c 0.55582,-0.32594 0.576684,-0.55103 0.08681,-0.93636 -0.392605,-0.30883 -1.376079,-0.40557 -1.533506,-0.15086 -0.04814,0.0778 -0.242388,0.10279 -0.43166,0.0552 -0.279973,-0.0703 -0.344128,-0.033 -0.344128,0.1996 0,0.52083 0.177826,0.76263 0.748851,1.0183 0.594098,0.26598 0.732809,0.24848 1.473641,-0.18596 z m 5.652118,1.0654 c -0.195676,-0.0443 -0.226912,-0.17465 -0.171525,-0.71561 0.07231,-0.70633 -0.128567,-1.08424 -0.754417,-1.41917 -0.446836,-0.23915 -0.775834,0.30683 -0.721114,1.19666 0.03139,0.51036 -0.01644,0.7019 -0.204548,0.81916 -0.383811,0.23927 -0.531914,-0.14539 -0.430144,-1.11695 0.107535,-1.02675 0.227668,-1.28002 0.726017,-1.53075 0.480693,-0.24185 1.034978,-0.04 1.641998,0.59812 0.320966,0.33737 0.425133,0.59736 0.473616,1.18201 0.06597,0.79559 -0.10133,1.09042 -0.559883,0.98653 z m 9.729022,0.0122 c -0.390556,-0.1089 -0.459083,-0.73486 -0.19049,-1.74025 0.134954,-0.50514 0.256805,-1.45816 0.270794,-2.11785 0.02326,-1.0969 0.04956,-1.19945 0.307655,-1.19945 0.25637,0 0.285994,0.10782 0.323412,1.17698 0.03657,1.04521 0.06817,1.16611 0.282221,1.07966 0.473392,-0.19117 1.143034,-0.17148 1.222632,0.0358 0.112646,0.29355 -0.03457,0.45909 -0.408254,0.45909 -0.179971,0 -0.549156,0.0928 -0.820416,0.20607 -0.500357,0.20906 -0.66453,0.51011 -0.668225,1.22531 -0.0019,0.36518 0.01003,0.37002 0.562517,0.22977 0.310442,-0.0788 0.564441,-0.20346 0.564441,-0.27702 0,-0.21973 0.628699,-0.0614 0.672609,0.16924 0.07653,0.40216 -1.441436,0.94127 -2.118896,0.75252 z m 14.534286,-0.12881 c -0.747587,-0.40556 -0.413703,-0.7061 0.509998,-0.45905 0.495903,0.13262 0.717968,0.13262 1.008875,1.2e-4 0.504759,-0.22999 0.38699,-0.45972 -0.363529,-0.70914 -1.005292,-0.3341 -1.271818,-0.96688 -0.652362,-1.54883 0.388016,-0.36451 1.154098,-0.41452 1.281081,-0.0836 0.156612,0.40813 0.09251,0.51466 -0.256918,0.42696 -0.226819,-0.0568 -0.424536,-0.005 -0.585154,0.15661 -0.22937,0.22936 -0.220317,0.25208 0.166183,0.41709 0.224821,0.096 0.490911,0.17737 0.591312,0.18088 0.100402,0.004 0.34238,0.15456 0.537733,0.3357 0.28295,0.26236 0.335207,0.40895 0.256953,0.72075 -0.175981,0.70115 -1.632925,1.02975 -2.494172,0.56252 z m 51.050104,0.0722 c -0.594701,-0.17744 -0.913749,-0.65672 -0.917456,-1.37821 -0.0025,-0.49328 0.07859,-0.69231 0.422255,-1.03598 0.357252,-0.35724 0.510312,-0.41558 0.955494,-0.36416 0.888061,0.10265 1.300212,0.43278 1.300212,1.04168 0,0.26732 -0.836358,0.61625 -1.477129,0.61625 -0.602184,0 -0.642102,0.20068 -0.09608,0.48303 0.34101,0.17636 0.507703,0.18037 1.093607,0.0264 1.182828,-0.31081 1.445092,0.006 0.391111,0.47175 -0.700852,0.31001 -1.012684,0.33598 -1.672011,0.13931 z m 1.111697,-1.83367 c 0.07307,-0.0689 -0.03263,-0.19277 -0.24815,-0.29097 -0.299642,-0.13657 -0.446432,-0.13307 -0.727019,0.017 -0.55141,0.29511 -0.433296,0.50799 0.24815,0.44725 0.329845,-0.0293 0.657004,-0.10736 0.727019,-0.17337 z m -71.833082,1.66668 c -0.328201,-0.0659 -0.75371,-0.2856 -0.96704,-0.49892 -0.330987,-0.331 -0.371611,-0.46385 -0.309726,-1.01288 0.128566,-1.14062 1.327219,-1.79779 2.184231,-1.19752 0.700092,0.49039 0.08774,1.61478 -0.879408,1.61478 -0.597296,0 -0.650092,0.18878 -0.112249,0.40136 0.735671,0.29076 1.163195,0.33955 1.382236,0.15777 0.169851,-0.14097 0.323428,-0.14265 0.738999,-0.007 0.607271,0.19695 1.653471,0.0366 1.653471,-0.25325 0,-0.10068 -0.246073,-0.26778 -0.546833,-0.37117 -0.715159,-0.24587 -0.848327,-0.39565 -0.739008,-0.83121 0.152269,-0.60669 1.270703,-1.02065 1.620115,-0.59963 0.195053,0.23502 0.06791,0.37507 -0.340514,0.37507 -0.171588,0 -0.38615,0.0895 -0.476802,0.1986 -0.134423,0.16197 -0.06605,0.23042 0.370777,0.37117 0.723511,0.2331 0.888756,0.38663 0.886212,0.82333 -0.0049,0.82888 -0.448379,1.01312 -2.352353,0.97714 -0.839315,-0.0158 -1.789763,-0.082 -2.112111,-0.14676 z m 0.242586,-1.66394 c 0.327898,-0.17548 0.357778,-0.53578 0.0541,-0.6523 -0.212899,-0.0817 -0.910038,0.44064 -0.910038,0.68186 0,0.1635 0.529358,0.14524 0.85594,-0.0296 z m 26.237277,1.65566 c -0.495024,-0.23015 -0.677224,-0.43037 -0.785972,-0.86367 -0.115428,-0.45992 0.281129,-1.57222 0.604823,-1.69643 0.419654,-0.16104 0.507891,0.14842 0.241337,0.84636 l -0.254521,0.66646 0.330676,0.26776 c 0.337977,0.27367 0.731271,0.27487 1.421672,0.005 0.606132,-0.23755 0.737903,-0.50843 0.629774,-1.29465 -0.08806,-0.64022 -0.07102,-0.70972 0.174004,-0.70972 0.681615,0 0.79578,1.57535 0.155272,2.14258 -0.671384,0.59455 -1.92567,0.91198 -2.517065,0.63701 z m 10.1952364,0.0824 c -0.09701,-0.0348 -0.176388,-0.1797 -0.176388,-0.32198 0,-0.14234 0.07937,-0.29091 0.176388,-0.33027 0.138178,-0.0561 0.135822,-0.10007 -0.01095,-0.20322 -0.233481,-0.16409 -2.82e-4,-1.16384 0.35422,-1.5183 0.244458,-0.24446 1.0340316,-0.22129 1.7454694,0.0512 0.2038943,0.078 0.4530221,0.086 0.5740984,0.0183 0.1176479,-0.0659 0.8605274,-0.10326 1.6508501,-0.0832 1.7586925,0.0447 1.9035411,0.1557 1.8089124,1.38558 -0.070715,0.91911 -0.1589639,1.12208 -0.4408198,1.01391 -0.1329172,-0.051 -0.2146157,-0.34615 -0.242426,-0.87577 -0.036028,-0.68601 -0.081131,-0.79884 -0.3194441,-0.79884 -0.2089908,0 -0.3225957,0.15967 -0.460169,0.64675 -0.2245353,0.795 -0.5628723,0.86497 -0.6824483,0.14113 -0.1360949,-0.8238 -0.1760521,-0.88021 -0.5899044,-0.83259 -0.3653122,0.042 -0.3915082,0.0916 -0.4326254,0.81774 -0.044087,0.77864 -0.194629,1.02589 -0.5431548,0.89216 -0.1184547,-0.0454 -0.1891896,-0.30439 -0.1891896,-0.69251 0,-0.8049 -0.3563991,-1.18434 -1.1124263,-1.18434 -0.6165946,0 -0.7166416,0.1704 -0.7200826,1.22639 -0.002,0.61232 -0.08848,0.75595 -0.38998,0.64781 z m 7.07968275,-0.0453 c -0.71537185,-0.26465 -0.88851385,-1.20194 -0.35931155,-1.94514 0.17550025,-0.24647 0.38026185,-0.44812 0.45502385,-0.44812 0.25871,0 0.2886573,0.40203 0.056357,0.75656 -0.3471454,0.52979 -0.2310288,0.99703 0.2617996,1.05339 0.5564366,0.0638 1.1272894,-0.47444 1.0283165,-0.96931 -0.039601,-0.19802 -0.01752,-0.44821 0.049094,-0.55598 0.1946425,-0.31494 0.56594265,0.0917 0.56594265,0.61989 0,0.90239 -1.23204565,1.79395 -2.05722205,1.48871 z m 16.31228485,-0.0107 c -0.88108,-0.35152 -1.112612,-1.17326 -0.577738,-2.05044 0.289018,-0.47398 1.290298,-0.93733 1.388556,-0.64255 0.02815,0.0844 0.130456,0.12318 0.227352,0.0859 0.292426,-0.11223 0.676839,0.43028 0.579557,0.81787 -0.09783,0.38977 -0.710201,0.80402 -1.255258,0.84913 -0.200954,0.0166 -0.36537,0.0762 -0.36537,0.13231 0,0.21272 0.341125,0.29532 1.144677,0.27717 0.989613,-0.0224 1.146764,0.2666 0.285333,0.5247 -0.645243,0.19332 -0.954291,0.19461 -1.427109,0.006 z m 0.958422,-1.85547 c 0.03591,-0.18646 -0.04947,-0.24481 -0.358313,-0.24481 -0.418976,0 -0.744121,0.21844 -0.744121,0.4999 0,0.27288 1.047431,0.0306 1.102434,-0.25509 z m -77.795997,1.78493 c -0.633166,-0.15865 -0.65396,-0.17842 -0.49669,-0.47228 0.126863,-0.23706 0.245892,-0.26809 0.758674,-0.1978 0.458278,0.0628 0.610158,0.0358 0.616144,-0.10904 0.0044,-0.10585 0.05552,-0.62143 0.113663,-1.14583 l 0.10571,-0.95348 -0.508942,0.21265 c -0.871474,0.36412 -1.788001,0.25293 -1.788001,-0.21693 0,-0.20776 0.108417,-0.25679 0.554243,-0.25064 0.763025,0.0107 1.568746,-0.41892 1.836504,-0.97887 0.154116,-0.32229 0.304131,-0.44879 0.502018,-0.42333 0.255657,0.0328 0.27741,0.12258 0.231109,0.95354 -0.02811,0.50447 -0.06832,1.01247 -0.08933,1.12889 -0.02101,0.11633 -0.08335,0.54503 -0.138513,0.95248 l -0.100311,0.74084 h 0.566142 c 0.311379,0 0.666586,0.0385 0.789349,0.0857 0.255622,0.0981 0.296286,0.41696 0.07094,0.55624 -0.190749,0.11786 -2.641252,0.21343 -3.022714,0.11786 z m 46.354803,-1.10419 c 0,-1.20444 0.16563,-1.61 0.481261,-1.17834 0.117314,0.16042 0.24379,0.18118 0.507757,0.0834 0.528166,-0.19585 1.237327,-0.009 1.502049,0.39438 0.498066,0.76013 0.274962,2.02379 -0.31719,1.79657 -0.165352,-0.0634 -0.195714,-0.20822 -0.127867,-0.60976 0.0982,-0.58122 -0.216041,-1.071 -0.594081,-0.92593 -0.112751,0.0433 -0.261686,0.0786 -0.330959,0.0786 -0.170783,0 -0.556523,0.76714 -0.556523,1.10678 0,0.22697 -0.247878,0.44544 -0.505428,0.44544 -0.03246,0 -0.05901,-0.536 -0.05901,-1.19111 z m 17.4743386,0.99514 c -0.4270023,-0.21167 -0.4872691,-0.86528 -0.1957076,-2.12246 0.1204926,-0.51955 0.2190731,-1.21373 0.2190731,-1.54264 0,-0.69082 0.1869362,-0.93669 0.7121825,-0.93669 0.8118218,0 1.3159854,0.90937 0.9241988,1.66701 -0.1676501,0.3242 -0.7881887,0.8966 -1.1645727,1.07423 -0.012169,0.006 -0.068408,0.32154 -0.1250238,0.70179 l -0.1029424,0.69139 0.5712924,-0.0914 c 0.3142115,-0.0502 0.6720938,-0.13002 0.7952942,-0.17731 0.4321468,-0.16582 0.226842,0.30196 -0.2346072,0.53457 -0.6631454,0.33426 -1.0259802,0.38649 -1.3991924,0.20149 z m 1.0893238,-2.97085 c 0.2737859,-0.41787 0.2199546,-0.97659 -0.099961,-1.03753 -0.2371561,-0.0452 -0.5294606,0.61002 -0.5064498,1.13519 0.015615,0.3563 0.3435744,0.30348 0.6064123,-0.0976 z m 1.2352196,2.00266 c 0.014903,-0.56267 0.071995,-1.05684 0.1268032,-1.09812 0.054809,-0.0412 0.1226514,-0.52082 0.1507557,-1.06561 0.058049,-1.12552 0.1715355,-1.42301 0.4535411,-1.18898 0.1334186,0.11071 0.1650814,0.42246 0.1136484,1.11902 l -0.071294,0.96553 0.3650679,-0.0697 c 0.4473485,-0.0855 1.0758364,0.0589 1.0758364,0.24702 0,0.0762 -0.1557621,0.13839 -0.3461371,0.13839 -0.8225798,0 -1.1900095,0.37712 -1.2373181,1.27 -0.022188,0.41889 -0.2138865,0.70556 -0.4717937,0.70556 -0.1396386,0 -0.1794604,-0.25608 -0.1591093,-1.02305 z m 8.18701,-1.22004 c 0.02174,-1.98708 0.05522,-2.27696 0.293358,-2.53998 0.397016,-0.4385 0.974756,-0.38236 1.411969,0.13717 0.594577,0.70662 0.424899,1.4632 -0.452344,2.01698 -0.300522,0.1897 -0.549895,0.43018 -0.55416,0.5344 -0.02978,0.7273 -0.167166,1.81776 -0.244865,1.94349 -0.05131,0.083 -0.179966,0.15101 -0.285898,0.15101 -0.155684,0 -0.187899,-0.42998 -0.16806,-2.24307 z m 1.104178,-0.87652 c 0.331611,-0.23613 0.408769,-0.3858 0.374559,-0.72659 -0.05059,-0.504 -0.439867,-0.82288 -0.694116,-0.56864 -0.183672,0.18368 -0.360688,1.59262 -0.200093,1.59262 0.0561,0 0.289944,-0.13383 0.51965,-0.29739 z m -7.0152551,2.24023 c 0.1124933,-0.84797 0.130043,-0.87891 0.4328452,-0.76271 0.1693506,0.0649 0.2086279,0.22312 0.1601705,0.64491 -0.077423,0.67389 -0.1773142,0.85607 -0.4694331,0.85607 -0.1855344,0 -0.2056088,-0.11999 -0.1235788,-0.73827 z m 0.7145331,-1.33453 c -0.639955,-0.16554 -0.9984301,-0.91357 -0.6681154,-1.39413 0.1301646,-0.18939 1.2221046,-0.62528 1.5663175,-0.62528 0.6399766,0 1.0507675,1.29479 0.5616714,1.77033 -0.2200024,0.21393 -1.0490558,0.35538 -1.4598735,0.24908 z m 1.0029752,-0.83029 c 0.1201271,-0.47861 -0.1404138,-0.75763 -0.4776958,-0.51156 -0.1336772,0.0975 -0.3541836,0.21461 -0.4900017,0.26021 -0.1358218,0.0457 -0.2469439,0.13581 -0.2469439,0.20056 0,0.17609 0.4514,0.40473 0.8086962,0.4096 0.2222894,0.004 0.3415933,-0.1025 0.4059452,-0.35881 z m -56.3402092,-0.45052 c -0.236909,-0.15072 -0.07135,-1.44417 0.184869,-1.44417 0.346795,0 0.497786,0.66979 0.256275,1.13682 -0.240033,0.46418 -0.218385,0.44909 -0.441144,0.30735 z m -13.664495,-4.27097 c -0.232112,-0.0716 -0.605737,-0.15924 -0.830274,-0.19461 -0.493294,-0.0777 -0.716848,-0.27674 -0.613485,-0.54609 0.06567,-0.17113 0.205192,-0.17246 0.971231,-0.009 0.778937,0.16594 1.016329,0.16155 1.836819,-0.0341 0.518249,-0.12349 0.976505,-0.3138 1.018345,-0.42283 0.04184,-0.10905 -0.04526,-0.48131 -0.193549,-0.82728 l -0.269627,-0.629 -0.834396,0.30389 c -0.734294,0.26743 -0.903769,0.2831 -1.412636,0.13064 -0.868385,-0.26017 -1.437619,-0.79814 -1.437619,-1.35868 0,-0.86421 1.107061,-1.7459 1.715263,-1.36607 0.149462,0.0934 0.33501,0.13064 0.412313,0.0829 0.267862,-0.16554 1.270843,0.1054 1.687305,0.45587 0.300438,0.2528 0.418797,0.47787 0.419725,0.79816 7.05e-4,0.24533 0.157472,0.76355 0.348363,1.15161 0.442799,0.90015 0.448103,1.40229 0.01935,1.83104 -0.512899,0.5129 -2.088483,0.86487 -2.837123,0.6338 z m 1.021741,-3.09603 c 0.411323,-0.18671 0.599719,-0.35978 0.599719,-0.551 0,-0.3823 -0.689219,-0.71671 -1.136272,-0.55133 -0.186315,0.0688 -0.490588,0.0871 -0.676163,0.0406 -0.3528,-0.0885 -0.868664,0.24642 -0.868664,0.56404 0,0.35625 0.545463,0.66297 1.34055,0.75379 0.07761,0.009 0.410984,-0.10646 0.74083,-0.25611 z m 28.684105,3.09749 c -0.583275,-0.13718 -0.993949,-0.59074 -0.891079,-0.98412 0.09414,-0.35997 0.121497,-0.3562 0.554137,0.0764 0.319036,0.31903 0.45599,0.35452 1.225466,0.3175 0.788912,-0.038 0.877753,-0.0744 0.994675,-0.40835 0.07061,-0.20165 0.0853,-0.59632 0.03265,-0.87702 -0.09487,-0.50571 -0.101177,-0.50971 -0.689993,-0.43896 -0.326835,0.0393 -0.736587,0.10159 -0.910557,0.13855 -0.351402,0.0746 -1.306651,-0.27673 -1.475742,-0.5428 -0.157965,-0.24856 -0.136917,-1.16336 0.03548,-1.54173 0.470692,-1.03304 2.876425,-1.07309 3.350458,-0.0558 0.21613,0.46384 0.481397,2.82079 0.378937,3.36695 -0.163007,0.86892 -1.254505,1.26673 -2.604432,0.94922 z m 1.241528,-2.94169 c 0.102623,-0.0651 0.236873,-0.34126 0.29833,-0.61374 0.101558,-0.45035 0.07466,-0.51733 -0.295648,-0.73608 -0.344597,-0.20355 -0.488441,-0.21498 -0.933328,-0.0741 -0.631068,0.19984 -0.878717,0.48091 -0.878717,0.99729 0,0.21151 0.07937,0.41662 0.176386,0.45577 0.292209,0.11785 1.433147,0.0975 1.632977,-0.0292 z m 26.605549,2.73492 c -0.049043,-0.1279 -0.024245,-0.29733 0.055132,-0.37669 0.079369,-0.0794 1.030949,-0.1794 2.114632,-0.2223 2.05116395,-0.0811 2.25955355,-0.0315 2.09110215,0.4993 -0.072006,0.22691 -0.1902144,0.24108 -1.1732691,0.14067 -1.00911485,-0.10295 -1.59724705,-0.0766 -2.61024315,0.1171 -0.2778932,0.0532 -0.413505,0.007 -0.4773461,-0.15814 z m -15.926633,-0.0666 c -0.875524,-0.0591 -1.128885,-0.12364 -1.128885,-0.28783 0,-0.13261 0.178583,-0.23802 0.478364,-0.28223 0.567446,-0.0836 0.664434,-0.29088 0.70888,-1.51437 l 0.03196,-0.87936 -0.609596,0.3485 c -0.708403,0.405 -0.998957,0.43621 -1.249555,0.13428 -0.237795,-0.28651 -0.01156,-0.51721 0.550667,-0.56142 0.535145,-0.0421 1.231342,-0.53506 1.506151,-1.06649 0.216643,-0.41894 0.535963,-0.53618 0.706928,-0.25956 0.05189,0.0839 0.02667,0.63958 -0.05605,1.23473 -0.08272,0.59512 -0.183709,1.38368 -0.224424,1.75233 l -0.07404,0.67027 0.597022,0.002 c 0.32836,7.4e-4 0.692269,0.0624 0.808685,0.13597 0.188147,0.11893 0.188147,0.15597 0,0.33308 -0.293535,0.27632 -0.736628,0.32828 -2.046103,0.23991 z m -32.309417,-0.34068 c -0.426284,-0.42628 -0.597065,-1.46153 -0.367503,-2.22774 0.342831,-1.14427 1.859193,-2.35191 2.733565,-2.17703 0.620057,0.12394 0.829382,0.33658 0.654034,0.66424 -0.116796,0.21821 -0.197693,0.2405 -0.427277,0.11756 -0.427157,-0.22862 -1.178768,0.0778 -1.678769,0.68438 -0.428708,0.5201 -0.556974,0.83176 -0.269081,0.65384 0.388447,-0.24006 1.111778,-0.20935 1.660344,0.0705 0.915358,0.46699 1.133651,1.21487 0.547285,1.87503 -0.468542,0.52752 -0.844047,0.67421 -1.725739,0.67421 -0.645273,0 -0.853804,-0.0621 -1.126859,-0.33506 z m 2.155716,-0.65821 c 0.392454,-0.36563 0.391072,-0.62645 -0.0049,-0.90371 -0.323305,-0.22646 -0.929338,-0.2798 -1.485539,-0.13079 -0.323098,0.0866 -0.42854,0.58638 -0.231845,1.09895 0.133084,0.34683 1.328736,0.30205 1.722175,-0.0645 z m 39.325828,0.79771 c -0.784064,-0.34172 -0.998423,-0.9081 -0.758088,-2.00304 0.185924,-0.84705 0.96419,-1.9836 1.5043674,-2.19691 0.736707,-0.29093 1.77192,-0.11969 1.692722,0.28009 -0.02995,0.15117 -0.196209,0.24068 -0.466633,0.25115 -0.231053,0.009 -0.538532,0.0248 -0.683287,0.0354 -0.251507,0.0183 -1.2184704,0.94572 -1.2184704,1.16882 0,0.0589 0.3016234,0.0729 0.6702754,0.031 0.997675,-0.11284 1.967522,0.34977 2.088819,0.99634 0.132703,0.70735 0.04088,0.95396 -0.487895,1.3103 -0.551116,0.37139 -1.644807,0.43065 -2.3418104,0.12683 z m 2.0042264,-0.67487 c 0.514176,-0.42671 -0.321091,-1.32282 -1.08123,-1.15995 -0.9370124,0.20073 -1.3022504,0.62347 -0.9116064,1.05513 0.3509424,0.38778 1.5743524,0.45214 1.9928364,0.10479 z m 13.2282165,0.7171 c -0.1512726,-0.24477 0.096509,-0.41111 0.6155962,-0.41328 0.8292531,-0.004 0.9355545,-0.14416 1.015119,-1.34435 0.039191,-0.59113 0.049821,-1.09621 0.023633,-1.12241 -0.026187,-0.0261 -0.2656995,0.0812 -0.5322402,0.23831 -0.933573,0.55082 -1.8906634,0.56926 -1.8906634,0.0363 0,-0.21584 0.1178001,-0.24979 0.7295579,-0.21016 0.4691688,0.0305 1.1080148,-0.29465 1.3870989,-0.70576 0.496324,-0.73111 0.6631786,-0.88379 0.8438222,-0.77216 0.1440486,0.089 0.1631973,0.50725 0.088221,1.92745 l -0.095749,1.81373 h 0.6401829 c 0.6598616,0 0.8442953,0.2194 0.4556201,0.54196 -0.2246931,0.18647 -3.1655996,0.19569 -3.2801925,0.0107 z m -60.5994149,-0.24591 c 0,-0.18007 0.158918,-0.2966 0.529164,-0.38805 l 0.529165,-0.13079 0.0012,-1.16417 c 6.49e-4,-0.64028 -0.0236,-1.16415 -0.0539,-1.16415 -0.0303,0 -0.266006,0.13031 -0.523808,0.28968 -0.572748,0.35398 -1.888063,0.59027 -2.139848,0.38441 -0.369047,-0.30174 -0.172925,-0.49385 0.583843,-0.57196 0.927285,-0.0957 1.533019,-0.39447 2.137418,-1.0542 0.76599,-0.83612 0.881058,-0.63035 0.801555,1.43339 -0.07081,1.8381 -0.06465,1.86015 0.498834,1.78697 0.214519,-0.0279 0.226592,0.19644 0.0303,0.56319 -0.125649,0.23478 -0.303229,0.27295 -1.269994,0.27295 -0.993608,0 -1.123913,-0.0299 -1.123913,-0.25735 z m 66.082125,-0.0911 c -0.35998,-0.15653 -0.4918015,-0.33416 -0.6504428,-0.87641 -0.1111235,-0.37985 -0.1522284,-0.80468 -0.093102,-0.96231 0.7014968,-1.87022 0.9120438,-2.11723 1.8028248,-2.115 0.828693,0.002 1.176062,0.13489 1.070717,0.4094 -0.05342,0.13915 -0.322733,0.22431 -0.798308,0.25228 -0.627711,0.037 -0.748712,0.0953 -0.965029,0.46555 -0.136034,0.23284 -0.251967,0.47096 -0.25764,0.52916 -0.0056,0.0582 0.37557,0.10585 0.847204,0.10585 0.759636,0 0.904601,0.0471 1.269994,0.41248 0.654456,0.65446 0.543404,1.27745 -0.304857,1.71019 -0.630577,0.3217 -1.28589,0.34516 -1.921358,0.0688 z m 1.945745,-0.8841 c 0.171937,-0.45223 -0.155487,-0.73289 -0.859268,-0.73653 -0.796926,-0.005 -1.129126,0.13398 -1.126724,0.46866 0.0045,0.60849 0.315234,0.76883 1.307137,0.67425 0.426607,-0.0408 0.573182,-0.12836 0.678855,-0.40638 z m -52.345252,0.62034 c -0.07452,-0.0902 -0.156985,-0.35435 -0.183253,-0.58718 l -0.04776,-0.42334 -1.834437,-0.005 c -2.033798,-0.006 -2.469433,-0.0934 -2.469433,-0.49846 0,-0.25741 0.118667,-0.27271 2.116658,-0.27271 h 2.116656 v -0.56445 c 0,-0.31042 0.06351,-0.57237 0.141115,-0.58208 0.07761,-0.009 0.220485,-0.0283 0.317499,-0.0413 0.383453,-0.0517 1.809088,0.70167 2.114497,1.11738 0.291533,0.3968 0.09313,0.86401 -0.600416,1.41389 -0.7198,0.57069 -1.413571,0.75471 -1.671118,0.44328 z m 14.458072,-0.53395 -0.09303,-0.58177 -0.575775,0.092 c -0.361177,0.0577 -0.649438,0.0308 -0.773409,-0.0719 -0.297566,-0.24695 0.02621,-0.5499 0.587689,-0.5499 0.785775,0 0.911481,-0.10919 0.911481,-0.79121 0,-0.52582 0.04283,-0.6199 0.282221,-0.6199 0.208592,0 0.287829,0.10128 0.303714,0.38806 0.01186,0.21342 0.02769,0.4833 0.03528,0.59972 0.0094,0.14538 0.201733,0.22525 0.613506,0.25505 0.477921,0.0346 0.599719,0.0973 0.599719,0.30918 0,0.35311 -0.249994,0.48979 -0.807965,0.44172 -0.446144,-0.0385 -0.456691,-0.0267 -0.369589,0.40875 0.06185,0.30926 0.0286,0.48695 -0.107232,0.57297 -0.370975,0.2349 -0.513686,0.12835 -0.606616,-0.45279 z m 11.294245,0.3314 c -0.21532,-0.048 -0.24873,-0.14813 -0.183601,-0.54944 l 0.07962,-0.49062 -0.592504,0.0232 c -0.325881,0.0122 -0.703632,0.0174 -0.839451,0.0106 -0.279283,-0.0151 -0.342452,-0.42478 -0.07055,-0.45791 0.09701,-0.0121 0.239887,-0.0362 0.317498,-0.0543 0.07761,-0.0181 0.366649,-0.0402 0.642307,-0.0491 0.476012,-0.0156 0.501927,-0.042 0.515673,-0.52692 0.0079,-0.28082 0.109604,-0.60573 0.225859,-0.72199 0.187768,-0.18778 0.227127,-0.18197 0.352352,0.0519 0.160598,0.30009 0.1688,0.34084 0.1688,0.83866 0,0.33278 0.04388,0.3598 0.517896,0.31896 0.327701,-0.0283 0.539888,0.0214 0.577782,0.13505 0.09732,0.29193 -0.253098,0.59351 -0.689624,0.59351 -0.333473,0 -0.406054,0.0599 -0.406054,0.33549 0,0.40043 -0.253608,0.62398 -0.615994,0.54302 z m 12.6103895,-0.56087 c -1.6738978,-0.0438 -1.9755474,-0.11118 -1.9755474,-0.44131 0,-0.2384 0.1606471,-0.26124 1.9857201,-0.28227 1.96074285,-0.0226 1.98515005,-0.0191 1.94026805,0.282 -0.06133,0.41146 -0.3765542,0.48282 -1.95044075,0.44158 z M -37.72836,143.05688 c -0.805613,-0.33754 -0.932291,-0.47709 -0.727317,-0.8012 0.104662,-0.16549 0.237767,-0.14539 0.805648,0.1215 1.160202,0.54538 2.874372,0.16842 2.874372,-0.63206 0,-0.19224 -0.134422,-0.48394 -0.298715,-0.64823 -0.24591,-0.24592 -0.414129,-0.28572 -0.951634,-0.22512 -0.359108,0.0404 -0.764433,0.0137 -0.900727,-0.059 -0.312246,-0.1671 -0.324204,-0.54602 -0.01723,-0.54602 0.539935,0 1.356005,-0.35044 1.458619,-0.62637 0.153769,-0.41349 0.04379,-0.60218 -0.451566,-0.77487 -0.750481,-0.26163 -1.435494,-0.18839 -1.792491,0.19162 -0.354234,0.37706 -0.715127,0.34019 -0.715127,-0.0731 0,-0.17616 0.237423,-0.38507 0.709434,-0.62427 0.593927,-0.30095 0.823562,-0.34434 1.410362,-0.2665 0.385509,0.051 0.837975,0.21184 1.005482,0.35713 0.167505,0.14522 0.355461,0.26414 0.41768,0.26414 0.191366,0 0.301721,0.94149 0.144734,1.23481 -0.119914,0.22407 -0.08507,0.3316 0.182969,0.56466 0.1821,0.15834 0.410233,0.52766 0.506959,0.82077 0.151881,0.4602 0.14192,0.59591 -0.073,0.99498 -0.309525,0.57476 -0.883485,0.85456 -1.976308,0.9635 -0.690892,0.0689 -0.987499,0.0254 -1.612152,-0.23634 z m -11.292132,-0.10448 c -0.120066,-0.0743 -0.194586,-0.41846 -0.204064,-0.94264 l -0.01491,-0.82578 -1.047446,-0.0262 c -1.787523,-0.0445 -1.720514,0.0151 -1.615032,-1.42311 0.0996,-1.35735 0.239767,-1.69755 0.582324,-1.41326 0.164875,0.13686 0.193302,0.38271 0.13065,1.13002 -0.07762,0.92595 -0.06947,0.95778 0.266998,1.04223 0.190891,0.0479 0.695169,0.0436 1.120622,-0.009 l 0.77355,-0.0966 v -0.89197 c 0,-0.68518 0.05202,-0.91192 0.2244,-0.97807 0.123427,-0.0473 0.284856,-0.0487 0.358746,-0.004 0.07791,0.0482 0.120005,0.97136 0.100204,2.19778 -0.02862,1.7732 -0.0707,2.13432 -0.260515,2.2359 -0.124506,0.0666 -0.311484,0.0686 -0.415506,0.005 z m 19.995088,0.0322 c -0.692984,-0.0435 -0.811386,-0.0911 -0.811386,-0.32608 0,-0.22123 0.103764,-0.27815 0.529164,-0.29033 0.436919,-0.0122 2.423949,-0.006 3.108861,0.0106 0.268192,0.006 0.384707,0.43681 0.157244,0.58086 -0.190622,0.12074 -1.307225,0.13002 -2.983883,0.0248 z m 7.459077,0.002 c -0.224683,-0.22468 -0.0072,-0.58612 0.700803,-1.1649 1.712265,-1.39967 2.458685,-2.11145 2.458685,-2.3446 0,-0.28422 -0.708271,-0.76283 -1.128883,-0.76283 -0.570604,0 -1.426668,0.69311 -1.394319,1.12889 0.03347,0.45082 -0.02671,0.56444 -0.299008,0.56444 -0.234702,0 -0.282221,-0.0941 -0.282221,-0.55873 0,-0.42772 0.09065,-0.6428 0.386613,-0.91723 0.212636,-0.19716 0.430349,-0.35848 0.483806,-0.35848 0.05345,0 0.208431,-0.11117 0.344381,-0.24694 0.331729,-0.33141 1.459041,-0.2988 1.943191,0.0563 0.457002,0.33511 0.709187,0.93142 0.591768,1.39925 -0.08705,0.34685 -0.279038,0.55376 -1.740452,1.87567 l -0.601239,0.54387 0.954014,-0.0232 c 0.52471,-0.0122 1.03339,0.0361 1.130403,0.10828 0.244303,0.18186 0.221362,0.52008 -0.03528,0.52008 -0.116417,0 -0.211666,0.0672 -0.211666,0.14949 0,0.0821 -0.05913,0.11284 -0.131398,0.0683 -0.164414,-0.10159 -1.242166,-0.11131 -2.287267,-0.0205 -0.437742,0.038 -0.834613,0.0304 -0.881941,-0.0168 z m 5.390906,-0.0365 c -0.208519,-0.063 -0.414894,-0.0786 -0.458609,-0.0348 -0.04372,0.0436 -0.07948,-0.11787 -0.07948,-0.35906 0,-0.50778 0.260001,-0.74202 0.448924,-0.40444 0.102972,0.18402 0.357489,0.23149 1.241172,0.23149 1.025046,0 1.133796,-0.028 1.396208,-0.36178 0.156517,-0.19898 0.249847,-0.4523 0.207398,-0.56291 -0.104158,-0.27142 -0.950928,-0.47906 -1.812043,-0.44433 l -0.705552,0.0284 v -1.31188 -1.31188 l 1.570453,-0.0475 c 1.700768,-0.0516 2.062619,0.0316 1.754569,0.40276 -0.141174,0.17011 -0.462685,0.22241 -1.366752,0.22241 h -1.182163 v 0.56444 c 0,0.76388 0.0051,0.78301 0.1905,0.7279 0.311307,-0.0924 1.71642,0.31086 1.964427,0.5639 0.601769,0.61407 0.379944,1.56575 -0.463562,1.98882 -0.522889,0.26224 -1.999635,0.32148 -2.705489,0.10843 z m 5.459105,-0.0938 c -0.786641,-0.41094 -1.005373,-1.07078 -0.563889,-1.70108 0.168721,-0.24087 0.179996,-0.3847 0.05501,-0.70168 -0.591255,-1.49944 0.924937,-2.8426 2.3624674,-2.09288 0.222303,0.11589 0.510701,0.21118 0.640887,0.21167 0.320938,7.4e-4 0.821626,0.66485 0.821626,1.08909 0,0.19128 -0.180209,0.52481 -0.405052,0.74966 l -0.405051,0.40504 0.334497,0.31423 c 0.183973,0.17284 0.334495,0.43241 0.334495,0.57685 0,0.38498 -0.408022,0.94305 -0.860609,1.17708 -0.516797,0.26725 -1.7784134,0.252 -2.3143784,-0.028 z m 2.1697724,-0.76936 c 0.302241,-0.2816 0.305971,-0.30957 0.07529,-0.56447 -0.188308,-0.20806 -0.43704,-0.26817 -1.109829,-0.26817 -0.8659414,0 -1.2057914,0.15272 -1.2057914,0.54182 0,0.61291 1.6628954,0.82875 2.2403284,0.29082 z m -0.66062,-1.78131 c 0.493238,-0.0701 1.101393,-0.47485 1.101393,-0.73287 0,-0.19928 -0.33996,-0.4145 -0.780491,-0.49411 -0.230423,-0.0417 -0.589436,-0.113 -0.797809,-0.15867 -0.7404544,-0.16211 -1.2751494,0.87181 -0.7318294,1.41515 0.132019,0.132 0.327226,0.19043 0.4586094,0.13731 0.125814,-0.0509 0.463368,-0.12591 0.750127,-0.16676 z m -51.3623794,2.38088 c -0.140688,-0.0893 -0.149539,-0.25792 -0.03872,-0.73866 0.07897,-0.34264 0.145159,-0.66677 0.147044,-0.72031 0.0019,-0.0536 -0.234146,-0.11711 -0.52454,-0.14114 -0.348574,-0.0289 -0.542527,-0.1206 -0.570764,-0.26984 -0.03235,-0.17098 0.13176,-0.25693 0.673774,-0.35277 0.674396,-0.11924 0.741807,-0.17113 1.145975,-0.88143 l 0.429432,-0.75469 -1.537185,0.0947 c -1.291394,0.0795 -1.566007,0.0599 -1.717438,-0.12257 -0.09914,-0.11938 -0.156541,-0.28833 -0.127563,-0.37527 0.06928,-0.20782 4.239219,-0.30299 4.367532,-0.0996 0.04932,0.0782 -0.154997,0.56286 -0.454039,1.07713 l -0.543711,0.93504 0.595148,0.0705 c 0.483634,0.0573 0.603596,0.13003 0.64024,0.38806 0.04247,0.29912 -0.0041,0.3175 -0.80499,0.3175 h -0.850084 l -0.08509,0.52917 c -0.19765,1.22929 -0.277282,1.34091 -0.745035,1.04416 z m 4.956069,-0.1034 c -0.05133,-0.13384 -0.02889,-0.48451 0.04984,-0.77949 0.139304,-0.52189 0.132081,-0.53876 -0.268792,-0.62681 -0.288023,-0.0632 -0.387721,-0.15358 -0.331429,-0.30027 0.04429,-0.11543 0.08051,-0.23636 0.08051,-0.26883 0,-0.0324 0.224243,-0.059 0.498316,-0.059 0.346574,0 0.525444,-0.0753 0.587404,-0.24694 0.049,-0.13582 0.205756,-0.4155 0.348349,-0.62149 0.424763,-0.61367 0.344652,-0.68379 -0.781432,-0.68379 -1.39996,0 -1.947832,-0.11785 -1.892,-0.40702 0.03801,-0.19692 0.312815,-0.22797 2.017518,-0.22797 2.084722,0 2.326277,0.0238 2.326277,0.22876 0,0.0705 -0.28575,0.47883 -0.634998,0.90761 -0.724459,0.88944 -0.770335,1.05084 -0.298678,1.05084 0.213904,0 0.362314,0.0995 0.407737,0.2731 0.08288,0.31694 -0.135852,0.43246 -0.818778,0.43246 -0.473491,0 -0.475103,0.004 -0.517623,0.74082 -0.03718,0.64587 -0.08343,0.74663 -0.360782,0.78602 -0.200584,0.0284 -0.352606,-0.0447 -0.411439,-0.198 z m 11.671105,-0.18976 c -0.176337,-0.32947 -0.06214,-0.67549 0.284075,-0.86079 0.35368,-0.18929 0.501317,-0.17284 0.758703,0.0846 0.290469,0.29046 0.279789,0.42575 -0.06048,0.76601 -0.357361,0.35738 -0.794088,0.36191 -0.982302,0.0107 z m 15.192222,-1.25154 c -0.710025,-0.031 -0.981337,-0.0988 -1.043613,-0.26119 -0.04629,-0.12059 -0.0014,-0.27042 0.09966,-0.33288 0.253613,-0.15676 3.788368,-0.14571 3.885924,0.0122 0.04338,0.0703 0.01641,0.23924 -0.05995,0.37567 -0.146026,0.26094 -0.707471,0.3011 -2.882017,0.20619 z m -15.169471,-0.76245 c -0.379824,-0.37982 -0.01383,-1.10066 0.558832,-1.10066 0.638537,0 0.904633,0.60481 0.461195,1.04826 -0.263178,0.26317 -0.782573,0.28986 -1.020027,0.0525 z m 36.7806334,-4.05614 c -0.07314,-0.21902 0.2179373,-3.49965 0.3193909,-3.59986 0.1080823,-0.10676 0.605153,-0.23181 1.2641544,-0.31801 0.6816986,-0.0891 1.7954907,0.43084 1.9113196,0.89234 0.099262,0.39552 -0.00185,0.87322 -0.2574856,1.21699 -0.2783495,0.37424 -1.6033482,0.58172 -2.1078239,0.33005 l -0.4030161,-0.20105 -0.01414,0.51837 c -0.020546,0.75701 -0.1789157,1.21642 -0.4364383,1.26602 -0.124552,0.024 -0.248774,-0.0232 -0.276035,-0.10478 z m 2.5632697,-2.23908 c 0.421592,-0.34139 0.2756909,-0.8207 -0.287469,-0.94439 -0.2274192,-0.0498 -0.4731178,-0.054 -0.5459928,-0.009 -0.072878,0.0451 -0.1556781,0.0122 -0.184006,-0.0726 -0.081986,-0.24598 -0.6549582,0.3172 -0.7555128,0.74263 -0.077164,0.32646 -0.051216,0.3682 0.1897229,0.3052 0.1535145,-0.0402 0.321783,-0.005 0.3739276,0.0804 0.1484288,0.24017 0.8608185,0.17991 1.2093301,-0.10235 z m 45.1060329,1.29051 c -0.222507,-0.22251 -0.04256,-0.58433 0.60768,-1.22187 1.146815,-1.12442 1.24722,-2.17062 0.3051,-3.17915 -0.280442,-0.30023 -0.356161,-0.47359 -0.252243,-0.57751 0.536462,-0.53645 1.516965,0.48736 1.727469,1.80379 0.119472,0.74714 -0.266547,1.55491 -1.211652,2.53544 -0.669547,0.69463 -0.962054,0.85359 -1.176354,0.6393 z m -66.696082,-0.60746 c -0.190273,-0.35553 -0.182336,-1.31609 0.01445,-1.74798 0.345527,-0.75834 1.753051,-1.0314 2.247225,-0.43596 0.155326,0.18717 0.205129,0.1847 0.432836,-0.0214 0.317177,-0.28706 0.870139,-0.2998 1.277302,-0.0296 0.236641,0.15712 0.426305,0.1714 0.833293,0.0628 0.429605,-0.11468 0.596833,-0.0949 0.905494,0.10736 0.486292,0.31864 0.758681,0.99918 0.672498,1.68018 -0.05648,0.44623 -0.117358,0.52957 -0.360808,0.49386 -0.247747,-0.0363 -0.294742,-0.14735 -0.305021,-0.72074 -0.01232,-0.68723 -0.187685,-0.9384 -0.658257,-0.94282 -0.273836,-0.004 -0.382943,0.33872 -0.328332,1.02698 0.02809,0.35405 -0.02593,0.52777 -0.182861,0.58799 -0.330863,0.12698 -0.525136,-0.15011 -0.539547,-0.76952 -0.01529,-0.65705 -0.253989,-0.98872 -0.7116,-0.98872 -0.31598,0 -0.335499,0.0493 -0.335499,0.84668 0,0.80902 -0.01569,0.84666 -0.352775,0.84666 -0.320619,0 -0.352975,-0.0546 -0.354937,-0.59973 -0.0024,-0.67962 -0.08116,-0.84269 -0.517726,-1.07249 -0.446984,-0.23526 -0.957749,-0.19906 -1.195303,0.0847 -0.210576,0.25158 -0.218935,0.47141 -0.04753,1.24969 0.116372,0.52835 -0.25518,0.78602 -0.492907,0.34183 z m -35.120194,-0.0944 c -0.353803,-0.25972 0.04761,-0.615 0.694846,-0.615 0.389465,0 0.559401,-0.0686 0.616551,-0.24856 0.08028,-0.25296 0.08632,-2.15031 0.0069,-2.15031 -0.02394,0 -0.367116,0.16253 -0.762617,0.36117 -1.16866,0.58699 -2.09525,0.35579 -1.787557,-0.44606 0.06351,-0.16549 0.141675,-0.17672 0.372058,-0.0535 0.403723,0.21605 1.611538,-0.19324 1.937638,-0.65664 0.667077,-0.94793 0.693505,-0.97005 0.927256,-0.77605 0.183217,0.15208 0.207603,0.40678 0.141418,1.47708 -0.149706,2.42082 -0.149676,2.42128 0.163424,2.43092 0.458419,0.0137 0.776108,0.21509 0.776108,0.49093 0,0.22974 -0.155723,0.26259 -1.433234,0.30238 -0.920038,0.0286 -1.511826,-0.0137 -1.652723,-0.11648 z m 5.555336,0.0361 c -0.764968,-0.33338 -1.037664,-0.99652 -0.687912,-1.67287 0.193858,-0.37487 0.192255,-0.4301 -0.01692,-0.58306 -0.389535,-0.28483 -0.43623,-1.26178 -0.08729,-1.82635 0.382603,-0.61906 0.94653,-0.85791 1.736588,-0.73548 1.501202,0.23265 1.948358,0.6011 1.948358,1.60548 0,0.43917 -0.07517,0.60243 -0.36466,0.79213 -0.325984,0.21359 -0.342717,0.26394 -0.157799,0.47483 0.386801,0.44112 0.418502,0.84804 0.105527,1.35443 -0.455494,0.73701 -1.54435,0.99687 -2.475882,0.59089 z m 1.735713,-0.82043 c 0.496174,-0.49617 -0.04124,-0.95953 -1.112874,-0.95953 -0.456776,0 -0.587157,0.0634 -0.717111,0.34858 -0.244467,0.53655 0.04605,0.7803 0.930046,0.7803 0.401835,0 0.806806,-0.0763 0.899939,-0.16935 z m -0.216806,-1.89517 c 0.414409,-0.0693 0.550723,-0.1671 0.620499,-0.4451 0.135274,-0.53895 -0.114044,-0.80718 -0.745395,-0.80194 -0.301011,0.004 -0.588103,-0.0536 -0.637981,-0.12502 -0.04988,-0.0712 -0.258498,-0.0873 -0.463599,-0.0358 -0.402846,0.10114 -0.704664,0.66369 -0.575086,1.07194 0.09909,0.31219 0.624728,0.57244 0.988262,0.48928 0.155222,-0.0354 0.521206,-0.10447 0.8133,-0.15338 z m 8.876364,2.65255 c -0.274559,-0.27456 -0.316983,-0.27862 -0.734736,-0.0703 -0.676678,0.33757 -1.791762,0.18871 -2.207591,-0.29474 -0.178637,-0.20768 -0.363844,-0.53318 -0.411576,-0.72336 -0.128733,-0.51289 0.266495,-1.36556 0.771007,-1.66335 0.373598,-0.22051 0.512015,-0.23425 0.939292,-0.0932 0.275616,0.091 0.606742,0.32658 0.735836,0.52361 0.228751,0.34911 0.223189,0.36853 -0.21889,0.76351 -0.31559,0.28198 -0.603198,0.40531 -0.945266,0.40531 -0.270412,0 -0.491659,0.0651 -0.491659,0.14462 0,0.26452 0.717002,0.42214 1.669392,0.36695 0.517633,-0.0299 1.143747,0.0122 1.391364,0.0951 0.306451,0.10173 0.552213,0.10401 0.769652,0.007 0.29794,-0.13292 0.265912,-0.16787 -0.475844,-0.51878 -0.437407,-0.20691 -0.832816,-0.49447 -0.878684,-0.639 -0.107322,-0.33813 0.04176,-0.72586 0.279112,-0.72586 0.101651,0 0.205976,-0.055 0.231847,-0.12243 0.09753,-0.25389 0.651748,-0.31098 0.872835,-0.0899 0.290798,0.29081 0.145327,0.6357 -0.268126,0.6357 -0.339267,0 -0.649537,0.27876 -0.319056,0.28664 0.101587,0.004 0.490542,0.15426 0.86433,0.3374 l 0.679615,0.33299 0.143578,-0.37269 c 0.07896,-0.20496 0.154137,-0.9591 0.167048,-1.67584 0.0176,-0.9778 0.07341,-1.32248 0.223458,-1.38046 0.339941,-0.13139 0.505567,0.19555 0.505567,0.99787 v 0.76967 l 0.564442,-0.0668 c 0.310443,-0.0366 0.651556,-0.0122 0.75803,0.0536 0.259618,0.16152 0.13973,0.47167 -0.201237,0.52061 -1.107155,0.15894 -1.178915,0.19832 -1.324959,0.72725 -0.167533,0.60675 -0.02286,0.83309 0.390963,0.61161 0.36048,-0.19292 0.87109,-0.20058 0.87109,-0.0137 0,0.30542 -0.560272,0.67552 -1.100629,0.72704 -0.312927,0.0299 -0.541625,0.0107 -0.508224,-0.044 0.0334,-0.054 -0.06897,-0.13946 -0.227478,-0.18974 -0.201529,-0.064 -0.364002,0.002 -0.540184,0.21968 -0.373702,0.46151 -1.57444,0.55717 -1.974315,0.1573 z m -1.73412,-1.84443 c 0.242799,-0.15377 0.08395,-0.43695 -0.245129,-0.43695 -0.254788,0 -0.584334,0.25468 -0.584334,0.45157 0,0.15071 0.584786,0.14037 0.829463,-0.0151 z m 11.094374,1.93261 c -0.474318,-0.272 -0.625825,-0.57673 -0.630508,-1.26808 -0.0052,-0.78389 0.479306,-1.49898 0.905134,-1.33556 0.136702,0.0525 0.215971,0.1742 0.176161,0.27055 -0.03981,0.0964 -0.173999,0.41272 -0.298199,0.70304 -0.214689,0.50182 -0.211844,0.54179 0.05774,0.81138 0.582365,0.58237 1.553552,0.19205 1.553552,-0.62437 0,-0.48701 0.30267,-0.87664 0.558261,-0.71867 0.08102,0.0501 0.147289,0.37417 0.147289,0.7202 0,0.53649 -0.07453,0.70155 -0.506002,1.12057 -0.416023,0.404 -0.610489,0.49061 -1.093606,0.48708 -0.323182,-0.004 -0.714604,-0.0771 -0.869827,-0.16614 z m 5.009423,-0.14797 c 0,-0.17514 0.05468,-0.5091 0.121511,-0.74213 0.185714,-0.64754 -0.02609,-1.05609 -0.547502,-1.05609 -0.363085,0 -0.468911,0.081 -0.639544,0.48935 -0.112461,0.26914 -0.204466,0.6819 -0.204466,0.91722 0,0.35829 -0.05542,0.42786 -0.340734,0.42786 -0.320567,0 -0.343539,-0.0544 -0.388055,-0.92012 -0.05441,-1.05825 -0.0264,-1.19654 0.242372,-1.19654 0.107579,0 0.414978,-0.12319 0.683092,-0.27381 0.389796,-0.21892 0.581521,-0.24708 0.956787,-0.14067 0.659851,0.18728 0.759431,0.27708 0.947603,0.85456 0.189043,0.58016 0.02112,1.63777 -0.291518,1.83598 -0.328579,0.20832 -0.539552,0.13186 -0.539552,-0.19569 z m 12.246064,0.0715 c -0.632418,-0.72503 -0.638848,-1.65569 -0.01475,-2.14654 0.598514,-0.47078 0.880448,-0.16853 0.389807,0.41793 -0.46543,0.5563 -0.183198,1.26999 0.502235,1.26999 0.490692,0 0.753202,-0.31115 0.750413,-0.88946 -0.0011,-0.24809 0.06548,-0.49509 0.148141,-0.54885 0.205493,-0.13368 0.512554,0.14494 0.512554,0.46497 0,0.51273 -0.440578,1.35922 -0.790403,1.51862 -0.523625,0.23859 -1.250915,0.19651 -1.497917,-0.0867 z m 18.21017725,0.12545 c -0.3733565,-0.1431 -0.82303485,-0.80593 -0.82303485,-1.21308 0,-0.55944 0.37361475,-1.17249 0.87143565,-1.42993 0.37943,-0.19621 0.5217468,-0.20338 0.9874056,-0.0498 0.68672635,0.22663 0.85833775,0.43405 0.74214835,0.897 -0.1220735,0.48636 -0.2657816,0.56246 -1.22105035,0.64661 -0.6635678,0.0584 -0.7843623,0.10781 -0.6785627,0.2777 0.086989,0.1396 0.4516475,0.22483 1.1247734,0.26286 0.71117205,0.0402 0.99606045,0.11041 0.99606045,0.24563 0,0.17283 -0.2384835,0.24111 -1.41110445,0.4041 -0.1940277,0.0269 -0.4586586,0.009 -0.5880711,-0.0412 z m 1.1443768,-1.77851 c 0.2403873,-0.14858 0.028564,-0.35781 -0.3622452,-0.35781 -0.4647783,0 -0.9922177,0.27888 -0.7779157,0.41133 0.1887903,0.11665 0.920328,0.0823 1.1401609,-0.0536 z m 5.94813425,1.74634 c -0.4341025,-0.17359 -1.0007355,-0.8295 -1.000959,-1.15866 -2.813e-4,-0.44765 0.3977663,-1.04184 0.8132848,-1.21395 0.2872036,-0.11893 0.6448439,-0.12912 1.2413707,-0.0351 0.60246,0.0949 0.8670725,0.0867 0.9416104,-0.0291 0.057017,-0.0887 0.1046454,-0.62146 0.1058316,-1.18413 0.00111,-0.56267 0.049794,-1.02208 0.107991,-1.02089 0.4185949,0.009 0.4653517,0.26592 0.4075879,2.24363 -0.032328,1.10697 -0.1134507,2.05986 -0.1802715,2.11756 -0.1431967,0.12363 -1.5197612,0.43837 -1.8608526,0.42546 -0.1298903,-0.005 -0.3889168,-0.0699 -0.5755979,-0.14464 z m 1.7505246,-1.26782 v -0.48355 l -0.8595566,-0.0413 c -0.969836,-0.0467 -1.277914,0.1521 -1.1326302,0.73093 0.1118995,0.44586 0.9503426,0.68206 1.5688559,0.44194 0.3560372,-0.13825 0.4233309,-0.24121 0.4233309,-0.64788 z m 2.1872141,1.3263 c -1.1123407,-0.43028 -1.1445481,-1.97484 -0.05204,-2.49582 0.910909,-0.43438 1.745368,-0.14675 1.745368,0.60155 0,0.59549 -0.392389,0.86053 -1.274051,0.86053 -0.606373,0 -0.72266,0.0354 -0.581512,0.17639 0.101939,0.10189 0.541219,0.17762 1.0405,0.17933 0.478924,0.002 0.886226,0.0693 0.913775,0.15208 0.09672,0.29017 -1.323773,0.70706 -1.792038,0.52594 z m 0.811385,-1.54601 c 0.383737,-0.10281 0.439292,-0.61662 0.06668,-0.61662 -0.137949,0 -0.39842,0.10342 -0.578813,0.22973 -0.256989,0.18001 -0.286697,0.25591 -0.137237,0.35062 0.227523,0.14417 0.243385,0.14509 0.649372,0.0363 z m 5.137459,1.50075 c -0.539648,-0.1276 -0.65811,-0.22796 -0.791959,-0.67098 -0.07699,-0.25481 -0.04064,-0.3175 0.184045,-0.3175 0.153984,0 0.303206,0.0696 0.331603,0.1549 0.08041,0.24123 1.814095,0.31573 2.229654,0.0958 0.378559,-0.20035 0.557709,-0.87833 0.300147,-1.13589 -0.07989,-0.0799 -0.521902,-0.13398 -0.982255,-0.12014 -0.612878,0.0184 -0.857727,-0.0289 -0.914389,-0.17653 -0.09587,-0.24986 0.0154,-0.37037 0.341956,-0.37037 0.356221,0 1.254541,-0.55674 1.254541,-0.7775 0,-0.23373 -0.799666,-0.91583 -1.073687,-0.91583 -0.304292,0 -1.229579,0.40974 -1.34424,0.59527 -0.120259,0.19458 -0.517574,0.26946 -0.612743,0.11542 -0.177984,-0.28797 1.116153,-1.16608 1.923888,-1.30541 0.128571,-0.0222 0.556773,0.14736 0.95156,0.37683 0.573251,0.33315 0.735312,0.51053 0.804789,0.88087 0.04784,0.25506 0.0481,0.5651 5.65e-4,0.689 -0.04823,0.12562 0.03849,0.3841 0.196163,0.58453 0.167508,0.21296 0.280785,0.56705 0.278141,0.86941 -0.01038,1.18758 -1.389124,1.8273 -3.077768,1.42806 z m 7.623747,-0.40797 c -0.542568,-0.96538 -0.384309,-2.17214 0.450389,-3.43437 0.30878,-0.46692 0.537286,-0.66771 0.762773,-0.67027 0.488762,-0.006 0.528277,0.36156 0.09432,0.87622 -0.830803,0.98531 -1.038867,2.21359 -0.498723,2.94418 0.368885,0.49894 0.301027,0.83262 -0.169329,0.83262 -0.237862,0 -0.418094,-0.15457 -0.639427,-0.54838 z m 3.692904,0.45071 c -0.166519,-0.0325 -0.413408,-0.18147 -0.54864,-0.3309 -0.200116,-0.22113 -0.213013,-0.31129 -0.06931,-0.48445 0.09712,-0.1171 0.246433,-0.16959 0.331815,-0.11679 0.247465,0.15293 1.407055,0.3075 1.734964,0.23128 0.164676,-0.0383 0.382784,-0.2254 0.484685,-0.41581 0.250473,-0.46802 -0.04796,-0.76465 -0.846658,-0.8416 -0.326535,-0.0315 -0.652415,-0.0935 -0.724178,-0.13779 -0.260984,-0.16128 -0.120598,-0.46799 0.298384,-0.65186 0.535236,-0.2349 0.712788,-0.78505 0.341084,-1.05685 -0.34005,-0.24864 -0.699045,-0.24044 -0.961453,0.0219 -0.299688,0.29968 -0.829893,0.27881 -0.770359,-0.0303 0.0639,-0.3318 0.922553,-0.88702 1.370788,-0.88637 0.537333,7.4e-4 1.261835,0.49541 1.372716,0.9372 0.05273,0.2101 0.02821,0.56134 -0.05451,0.78048 -0.09196,0.24363 -0.09784,0.39844 -0.01513,0.39844 0.0744,0 0.29113,0.15588 0.481629,0.34636 0.526806,0.5268 0.475042,1.2465 -0.133413,1.85498 -0.433696,0.43369 -0.552283,0.47791 -1.234717,0.46055 -0.415218,-0.0106 -0.891185,-0.046 -1.057704,-0.0785 z m -30.6709947,-0.14232 c -0.1760128,-0.0415 -0.210103,-0.37607 -0.2023832,-1.98646 0.012169,-2.53282 0.00763,-2.4991 0.3949525,-2.91708 0.4367657,-0.47129 0.8051902,-0.45466 1.3574695,0.0613 0.41496095,0.38761 0.44295075,0.46894 0.35025255,1.01761 -0.13188235,0.78065 -0.29307945,1.01819 -0.93619015,1.37964 l -0.5335179,0.29986 0.00927,0.99605 c 0.00958,1.02291 -0.071931,1.23583 -0.4399073,1.14912 z m 0.9485879,-2.9996 c 0.5463803,-0.50904 0.5330307,-1.69955 -0.019055,-1.69955 -0.2354787,0 -0.5367401,0.34574 -0.4109027,0.4716 0.051065,0.051 0.018769,0.0928 -0.07178,0.0928 -0.1034891,0 -0.1646282,0.26206 -0.1646282,0.70555 0,0.78289 0.1697003,0.89228 0.6663665,0.42956 z m 34.2577038,2.95583 c -0.113573,-0.18376 0.05047,-0.7043 0.221955,-0.7043 0.253356,0 0.128422,-0.41484 -0.223094,-0.74079 -0.316031,-0.29305 -0.333157,-0.35834 -0.15711,-0.5991 0.191651,-0.26211 0.213509,-0.25806 0.727962,0.13428 0.444436,0.33899 0.556096,0.37226 0.689093,0.20534 0.228555,-0.28685 0.688704,-0.51714 0.893909,-0.44735 0.288552,0.0981 0.201214,0.43704 -0.176387,0.68446 -0.428424,0.28072 -0.43767,0.396 -0.06188,0.77181 0.159994,0.15999 0.27047,0.39811 0.245502,0.52916 -0.06909,0.36264 -0.615434,0.3746 -0.864572,0.0188 l -0.214311,-0.30597 -0.319808,0.29795 c -0.347178,0.32345 -0.622708,0.37975 -0.761259,0.15557 z m 4.168176,-0.2034 c -0.282566,-0.30246 -0.345847,-0.51097 -0.335965,-1.10704 0.02772,-1.67176 1.04907,-2.80951 2.541445,-2.83109 0.752597,-0.0106 1.148378,0.17701 0.972469,0.46162 -0.05215,0.0844 -0.31535,0.15341 -0.584901,0.15341 -0.710096,0 -1.379311,0.32464 -1.754041,0.85091 l -0.327194,0.4595 0.526671,-0.0988 c 1.479508,-0.27755 2.307213,0.87397 1.376734,1.91536 -0.34837,0.38989 -0.514032,0.45825 -1.234716,0.50955 -0.75619,0.0538 -0.864222,0.0251 -1.180502,-0.31342 z m 1.853968,-0.73369 c 0.141929,-0.1285 0.258053,-0.28497 0.258053,-0.34782 0,-0.25307 -0.599564,-0.41844 -1.193938,-0.32931 -0.61659,0.0925 -0.725895,0.28888 -0.428505,0.77008 0.139664,0.22599 1.082986,0.16173 1.36439,-0.0929 z m -53.69018,0.61972 c -0.18012,-0.22235 -0.229922,-0.44074 -0.168515,-0.73896 0.171876,-0.83473 0.179641,-1.31688 0.03022,-1.87669 -0.112736,-0.42234 -0.107353,-0.71702 0.02092,-1.14516 0.16652,-0.5558 0.320632,-0.66161 0.866939,-0.59521 0.116416,0.0137 0.386787,0.0437 0.600826,0.0657 0.576634,0.0592 0.712452,0.26702 0.601938,0.92115 -0.07154,0.42339 -0.247432,0.70808 -0.677706,1.0968 -0.319603,0.28875 -0.593468,0.6249 -0.608588,0.74698 -0.01505,0.12213 -0.0724,0.42069 -0.127304,0.6635 -0.125906,0.55687 0.0513,0.67415 0.733856,0.48569 0.845252,-0.23339 0.952583,0.16511 0.140612,0.52206 -0.600144,0.26384 -1.125226,0.20966 -1.413208,-0.14584 z m 1.089804,-2.79589 c 0.346564,-0.41187 0.488473,-0.95599 0.259488,-0.99496 -0.832315,-0.14159 -1.11187,0.13534 -0.959018,0.95009 0.11088,0.59106 0.233335,0.5989 0.69953,0.0449 z m 1.751265,2.80468 c -0.08699,-0.26284 0.07884,-4.16492 0.181351,-4.26724 0.0471,-0.047 0.194692,-0.0436 0.32798,0.007 0.205098,0.0786 0.235309,0.2545 0.196585,1.14384 l -0.04575,1.05084 0.493887,-0.0876 c 1.4774434,-0.26208 1.5814674,-0.26216 1.5303864,-7.5e-4 -0.02679,0.13703 -0.1846474,0.26981 -0.3507744,0.29508 -0.166127,0.0252 -0.610625,0.16017 -0.987774,0.29977 -0.675724,0.25011 -0.686753,0.26404 -0.756281,0.95452 -0.05009,0.49745 -0.137038,0.7133 -0.299742,0.74412 -0.126059,0.0239 -0.256491,-0.0391 -0.289861,-0.13992 z m 3.1179894,-0.20824 c -0.0064,-0.064 -0.04108,-0.29662 -0.07712,-0.51715 -0.07571,-0.46336 0.156227,-0.81786 0.459049,-0.70165 0.312522,0.11998 0.206616,1.22554 -0.123396,1.28813 -0.135822,0.0257 -0.252165,-0.006 -0.258547,-0.0694 z m 1.069932,-1.85038 c -0.879497,-0.18027 -1.260853,-1.48401 -0.47976,-1.64014 0.108644,-0.0217 0.38556,-0.11634 0.615362,-0.21012 0.534365,-0.21821 1.001417,-0.0992 1.2801566,0.32621 0.2387142,0.36434 0.1680029,0.95174 -0.1459346,1.21229 -0.258478,0.21451 -0.934482,0.38048 -1.269824,0.31176 z m 0.846663,-1.01746 c 0,-0.30227 -0.05878,-0.34854 -0.41066,-0.3231 -0.500699,0.0362 -0.714521,0.22758 -0.596821,0.5343 0.06218,0.16203 0.224345,0.21705 0.5479,0.18588 0.384335,-0.0371 0.459581,-0.10205 0.459581,-0.39708 z m 4.5155355,-4.49421 c -0.4397446,-0.0717 -0.5644414,-0.15423 -0.5644414,-0.3741 0,-0.2674 0.1019232,-0.28346 1.9402698,-0.30577 1.50577655,-0.0183 1.94026795,0.0174 1.94026795,0.15912 0,0.10053 -0.094334,0.26095 -0.2096459,0.35664 -0.2381724,0.19767 -2.24798615,0.30384 -3.10645045,0.16411 z m 13.0256641,-0.12166 c -0.7850408,-0.32245 -0.9849235,-1.1138 -0.4418204,-1.74919 0.1650935,-0.19317 0.1619186,-0.25316 -0.021446,-0.40534 -0.2765272,-0.2295 -0.2751384,-0.97639 0.00304,-1.6718 0.1663138,-0.41567 0.3319997,-0.58055 0.6954054,-0.69209 0.497448,-0.15266 1.537418,-0.0298 2.044362,0.24147 0.753738,0.40339 0.965758,1.52254 0.363234,1.91733 l -0.34754,0.22773 0.302281,0.40885 c 0.255483,0.34555 0.281981,0.49105 0.171151,0.93969 -0.227975,0.9229 -1.531246,1.29163 -2.768732,0.78335 z m 1.830098,-0.68383 c 0.648206,-0.45403 0.221827,-0.91257 -0.841267,-0.90473 -0.608041,0.005 -1.1028836,0.24328 -1.1028836,0.53223 0,0.2707 0.6128166,0.59216 1.1288846,0.59216 0.275905,0 0.642775,-0.0988 0.815266,-0.21966 z m -0.06606,-1.96542 c 0.603354,-0.25207 0.662606,-0.33595 0.514308,-0.72793 -0.09344,-0.24695 -0.276263,-0.32126 -0.996131,-0.40482 -0.760841,-0.0884 -0.907289,-0.0673 -1.068435,0.15308 -0.196394,0.26857 -0.252786,0.93502 -0.09266,1.09513 0.167321,0.16732 1.127668,0.0999 1.642924,-0.11543 z m -67.3459,2.40577 c -0.111549,-0.13444 -0.12405,-0.28884 -0.03715,-0.45862 0.07207,-0.14082 0.17161,-0.4697 0.221208,-0.73096 0.08071,-0.42513 0.06058,-0.46726 -0.191789,-0.40126 -0.155085,0.0406 -0.281973,0.0249 -0.281973,-0.0346 0,-0.0596 -0.165062,-0.0768 -0.366807,-0.0382 -0.30116,0.0575 -0.357755,0.0225 -0.316228,-0.19596 0.03963,-0.20845 0.195839,-0.2754 0.721445,-0.30916 0.549427,-0.0354 0.714903,-0.11194 0.91412,-0.42333 0.133785,-0.20914 0.326284,-0.46699 0.427769,-0.57301 0.22055,-0.23042 0.156711,-0.50596 -0.121861,-0.52597 -0.110059,-0.007 -0.664895,-0.024 -1.232971,-0.0359 -0.985196,-0.0205 -1.030784,-0.0362 -0.987773,-0.339 0.04445,-0.31295 0.0704,-0.3168 1.808741,-0.2689 0.970007,0.0267 1.811378,0.0782 1.869714,0.11423 0.185186,0.1145 0.119564,0.26205 -0.464606,1.04501 l -0.570671,0.76487 0.464838,0.11998 c 0.587382,0.15163 0.614554,0.18197 0.397113,0.44397 -0.102714,0.12379 -0.406544,0.21508 -0.715656,0.21508 h -0.537161 l -0.16758,0.81138 c -0.202627,0.98107 -0.475918,1.25031 -0.832715,0.8204 z m 6.111904,0.0344 c -0.06386,-0.10142 -0.09558,-0.55261 -0.07049,-1.00258 l 0.04561,-0.81816 -1.270945,0.042 c -0.699021,0.0232 -1.318512,-0.005 -1.376651,-0.063 -0.05815,-0.0577 -0.03006,-0.43878 0.06237,-0.84667 0.09243,-0.40789 0.182861,-0.98921 0.200938,-1.29183 0.0323,-0.5409 0.389302,-0.97117 0.616922,-0.74356 0.116416,0.11635 0.09029,1.56247 -0.03549,1.96405 -0.06872,0.21939 0.03537,0.24693 0.932973,0.24693 h 1.010325 l -0.03055,-0.74081 c -0.04291,-1.04098 -0.02926,-1.09361 0.284003,-1.09361 0.390433,0 0.443084,0.33761 0.396103,2.53997 -0.03901,1.82864 -0.05284,1.90674 -0.344822,1.94836 -0.167302,0.0239 -0.356428,-0.0396 -0.420287,-0.14114 z m 54.6086643,-0.0445 c -0.1250237,-0.32583 0.026081,-0.40936 0.7527834,-0.41607 0.5396298,-0.005 0.6581281,-0.0541 0.694259,-0.28822 0.085712,-0.55518 0.094167,-2.05361 0.012014,-2.13571 -0.046019,-0.0461 -0.3008906,0.0505 -0.5663668,0.21462 -0.6827466,0.42197 -1.6488157,0.38122 -1.6488157,-0.0695 0,-0.19221 0.1654769,-0.25524 0.538135,-0.20505 0.3442437,0.0464 1.3898667,-0.55625 1.5792777,-0.91017 0.1219366,-0.22782 0.3097553,-0.35136 0.5342371,-0.35136 h 0.3461924 l -0.052541,1.79917 -0.052541,1.79915 0.4021215,0.0137 c 0.3993936,0.0137 0.6923304,0.27971 0.607156,0.55001 -0.024912,0.0791 -0.7073408,0.15873 -1.5525089,0.18118 -1.2676137,0.0337 -1.5216596,0.005 -1.5934453,-0.18246 z m -65.9491423,-0.2466 c 0,-0.17514 0.05693,-0.51694 0.126514,-0.75956 l 0.126515,-0.44112 -0.694058,-0.0668 c -0.782407,-0.0752 -0.89955,-0.14341 -0.780271,-0.45421 0.06228,-0.16227 0.296037,-0.21775 0.917532,-0.21775 0.78687,0 0.843529,-0.0232 1.003182,-0.40851 0.09306,-0.22468 0.297653,-0.54638 0.45464,-0.71487 0.156986,-0.16851 0.263169,-0.32786 0.235963,-0.35411 -0.02721,-0.0263 -0.716213,-0.0777 -1.531126,-0.11437 -1.572135,-0.0706 -1.975547,-0.16296 -1.975547,-0.45212 0,-0.27675 0.45398,-0.61191 0.528592,-0.39022 0.04381,0.13018 0.590306,0.17638 2.085382,0.17638 1.255358,0 2.060648,0.0561 2.117064,0.14736 0.107626,0.17414 -0.154421,0.5958 -0.762712,1.22723 -0.500258,0.5193 -0.562883,0.84277 -0.175931,0.90868 0.421107,0.0717 0.127746,0.6801 -0.327953,0.6801 -0.357405,0 -0.412564,0.0969 -0.562059,0.98777 -0.03257,0.19404 -0.06392,0.40041 -0.06968,0.45861 -0.0058,0.0583 -0.169236,0.10585 -0.363263,0.10585 -0.272074,0 -0.352776,-0.0729 -0.352776,-0.31845 z m 29.627552,0.0257 c -0.09147,-0.17091 -0.117739,-0.5233 -0.06311,-0.84665 l 0.09357,-0.55388 h -0.58666 c -0.527677,0 -0.582127,-0.0319 -0.541569,-0.31749 0.03903,-0.27489 0.141174,-0.32311 0.760965,-0.35929 0.693922,-0.0404 0.725239,-0.061 1.021219,-0.67028 l 0.305344,-0.62848 -0.386221,-0.009 c -1.194267,-0.0301 -2.444469,-0.28107 -2.531661,-0.50829 -0.100143,-0.26098 0.228804,-0.50037 0.52267,-0.38035 0.116416,0.0477 0.910163,0.10677 1.763881,0.13171 0.853719,0.025 1.60412,0.0488 1.667558,0.0532 0.170881,0.0122 -0.02585,0.57099 -0.411284,1.16908 -0.423963,0.65791 -0.422881,0.67285 0.049,0.67547 0.213428,7.4e-4 0.480778,0.0608 0.594109,0.13246 0.354687,0.22436 -0.209113,0.70595 -0.800416,0.68372 -0.285453,-0.0107 -0.541652,0.0648 -0.615447,0.18133 -0.116599,0.18422 -0.193814,0.7401 -0.142498,1.02598 0.02778,0.15481 -0.268502,0.51431 -0.423886,0.51431 -0.06538,0 -0.18938,-0.1317 -0.275562,-0.29279 z m 11.635286,-0.0574 c -0.04836,-0.19265 -0.0178,-0.55137 0.06787,-0.79716 0.08569,-0.24577 0.155784,-0.4655 0.155784,-0.48826 0,-0.0228 -0.269875,-0.061 -0.599719,-0.0847 -0.491183,-0.0356 -0.599721,-0.0944 -0.599721,-0.32561 0,-0.24149 0.108417,-0.28843 0.751263,-0.32523 0.718782,-0.0412 0.76057,-0.0656 0.966548,-0.56444 0.118409,-0.2868 0.304641,-0.62216 0.413853,-0.74528 0.180199,-0.20311 0.06469,-0.21816 -1.24877,-0.16272 -1.483739,0.0627 -2.297564,-0.0956 -2.188237,-0.42569 0.06952,-0.20984 4.615061,-0.43651 4.819542,-0.24035 0.07479,0.0717 -0.04192,0.33511 -0.282222,0.63678 -0.508158,0.63795 -0.901929,1.23115 -0.90291,1.36021 -4.25e-4,0.0537 0.110378,0.0773 0.246199,0.0522 0.135821,-0.0251 0.398579,0.0122 0.583911,0.0813 0.326208,0.12272 0.328888,0.1358 0.08397,0.40641 -0.166683,0.18419 -0.433891,0.27956 -0.783174,0.27956 -0.515023,0 -0.532831,0.0172 -0.623434,0.59973 -0.147151,0.94624 -0.214914,1.09361 -0.502804,1.09361 -0.169828,0 -0.302644,-0.13003 -0.357939,-0.3503 z m 11.7484524,0.1428 c -0.131457,-0.13138 -0.174603,-0.4053 -0.131669,-0.83558 l 0.06386,-0.64004 -1.459912,-0.0403 -1.4599154,-0.0404 v -1.05832 c 0,-1.29257 0.03068,-1.41111 0.365186,-1.41111 0.324475,0 0.4741884,0.51092 0.3723014,1.27053 -0.06834,0.5096 -0.04735,0.55098 0.300063,0.59121 0.205455,0.0238 0.743106,0.0214 1.194778,-0.005 l 0.821221,-0.0484 -0.09663,-0.90239 c -0.08261,-0.77144 -0.06218,-0.9156 0.140765,-0.99349 0.130575,-0.05 0.294308,-0.0342 0.363866,0.0355 0.381519,0.38151 0.309396,4.04789 -0.0826,4.19831 -0.107686,0.0413 -0.283787,-0.0122 -0.391333,-0.12045 z m -32.0352944,-0.28542 c -0.109314,-0.10934 -0.240191,-0.41967 -0.290847,-0.68969 l -0.0921,-0.49094 -2.176005,-0.0452 c -2.230522,-0.0462 -2.752769,-0.17314 -2.354027,-0.57189 0.126605,-0.12654 0.773476,-0.16321 2.375644,-0.13445 l 2.201676,0.0395 -0.07352,-0.65226 c -0.114956,-1.01989 0.264305,-1.01532 1.833038,0.0221 1.008359,0.66683 1.141314,0.944 0.650178,1.35541 -0.209975,0.17591 -0.608526,0.5156 -0.885669,0.75489 -0.645516,0.55735 -0.940965,0.65992 -1.188364,0.41252 z m 13.972372,-0.44777 c -0.05174,-0.0517 -0.09408,-0.2386 -0.09408,-0.41523 0,-0.27693 -0.08256,-0.32712 -0.599721,-0.36453 -0.491181,-0.0356 -0.59972,-0.0944 -0.59972,-0.32561 0,-0.23658 0.108417,-0.28918 0.670276,-0.32522 l 0.670275,-0.0431 v -0.5567 c 0,-0.46263 0.04769,-0.5567 0.282221,-0.5567 0.155222,0 0.290158,0.0952 0.299859,0.21165 0.0097,0.11635 0.03353,0.27517 0.05293,0.35278 0.0194,0.0776 0.04322,0.23636 0.05293,0.35277 0.0114,0.13779 0.167083,0.21168 0.4454,0.21168 0.251657,0 0.461483,0.0879 0.509673,0.21346 0.127745,0.3329 -0.182135,0.59162 -0.629887,0.52591 -0.351043,-0.0516 -0.399922,-0.0164 -0.376839,0.27099 0.03483,0.43349 -0.40763,0.72345 -0.683297,0.44778 z m 11.798459,-0.20534 c -0.08707,-0.0871 -0.124721,-0.24582 -0.08367,-0.35278 0.05482,-0.1428 -0.05916,-0.19447 -0.429394,-0.19447 -0.347777,0 -0.547764,-0.0817 -0.645129,-0.26366 -0.188678,-0.35256 -0.06872,-0.44189 0.593328,-0.44189 0.528306,0 0.551607,-0.0184 0.464293,-0.36628 -0.09853,-0.39261 0.109953,-0.76261 0.429721,-0.76261 0.114819,0 0.2282,0.22188 0.28049,0.5489 0.08137,0.50886 0.128157,0.55533 0.641421,0.63742 0.551827,0.0882 0.552841,0.0896 0.308312,0.41377 -0.161058,0.21352 -0.350227,0.30521 -0.550663,0.2669 -0.234176,-0.0447 -0.326709,0.027 -0.397103,0.30731 -0.09692,0.38616 -0.347767,0.47121 -0.611596,0.20739 z m 10.6413924,-0.5169 c -0.3150084,-0.0403 -0.3875363,-0.1139 -0.352777,-0.35804 0.040909,-0.28726 0.1219972,-0.30793 1.2431971,-0.31672 1.74377635,-0.0137 2.53998885,0.0819 2.53998885,0.30484 0,0.10372 -0.1111241,0.24745 -0.2469439,0.31946 -0.2351482,0.1247 -2.34225415,0.15807 -3.18346505,0.0505 z"
         id="path573" /><text
         xml:space="preserve"
         style="font-size:14.1px;font-family:Alef;-inkscape-font-specification:Alef;fill:#1a1a1a;stroke:#1a1a1a;stroke-width:1.12786;stroke-linecap:square;stroke-opacity:0.944795;paint-order:fill markers stroke"
         x="-79.374321"
         y="120.83397"
         id="text775"><tspan
           sodipodi:role="line"
           style="fill:#1a1a1a;stroke:#1a1a1a;stroke-width:1.12787"
           x="-79.374321"
           y="120.83397"
           id="tspan777">Critre de divisibilit</tspan></text></g></g></svg>
