<?xml version="1.0" encoding="UTF-8" standalone="no"?>
<!-- Created with Inkscape (http://www.inkscape.org/) -->

<svg
   width="406.39999mm"
   height="228.59999mm"
   viewBox="0 0 406.39999 228.59999"
   version="1.1"
   id="svg5"
   xml:space="preserve"
   inkscape:version="1.2.2 (732a01da63, 2022-12-09)"
   sodipodi:docname="théorème de pythagore.svg"
   xmlns:inkscape="http://www.inkscape.org/namespaces/inkscape"
   xmlns:sodipodi="http://sodipodi.sourceforge.net/DTD/sodipodi-0.dtd"
   xmlns="http://www.w3.org/2000/svg"
   xmlns:svg="http://www.w3.org/2000/svg"><sodipodi:namedview
     id="namedview7"
     pagecolor="#505050"
     bordercolor="#eeeeee"
     borderopacity="1"
     inkscape:showpageshadow="0"
     inkscape:pageopacity="0"
     inkscape:pagecheckerboard="0"
     inkscape:deskcolor="#505050"
     inkscape:document-units="mm"
     showgrid="false"
     inkscape:zoom="0.1658286"
     inkscape:cx="4586.0606"
     inkscape:cy="99.50033"
     inkscape:window-width="1718"
     inkscape:window-height="1368"
     inkscape:window-x="-7"
     inkscape:window-y="0"
     inkscape:window-maximized="0"
     inkscape:current-layer="g3567" /><defs
     id="defs2" /><g
     inkscape:label="Calque 1"
     inkscape:groupmode="layer"
     id="layer1"
     transform="translate(108.99487,-7.5461502)"><text
       xml:space="preserve"
       style="font-size:38.8056px;font-family:Alef;-inkscape-font-specification:Alef;fill:#ffffff;fill-opacity:1;stroke:none;stroke-width:20.896;stroke-linecap:square;paint-order:fill markers stroke"
       x="-25.102564"
       y="140.46153"
       id="text5266"><tspan
         sodipodi:role="line"
         id="tspan5264"
         style="stroke-width:20.896"
         x="-25.102564"
         y="140.46153" /></text><g
       id="g3584"><text
         xml:space="preserve"
         style="font-size:38.8056px;font-family:Alef;-inkscape-font-specification:Alef;white-space:pre;inline-size:374.47;fill:#b3b3b3;fill-opacity:1;stroke:none;stroke-width:20.896;stroke-linecap:square;paint-order:fill markers stroke"
         x="-31.202518"
         y="49.92308"
         id="text460"
         transform="matrix(0.73570343,0,0,0.73570343,36.09454,5.3611021)"><tspan
           x="-31.202518"
           y="49.92308"
           id="tspan2950">Théorème de
</tspan><tspan
           x="-31.202518"
           y="98.430081"
           id="tspan2952">  Pythagore</tspan></text><g
         id="g3567"
         transform="matrix(1.5226038,0,0,1.5226038,-94.114339,-129.16779)"><path
           d="m 222.25485,200.17697 c -2.91388,-1.03803 -4.29731,-3.55811 -3.64926,-6.64766 0.5951,-2.83706 2.57571,-4.36639 5.67653,-4.38308 1.56368,-0.008 3.91056,0.43282 3.91056,0.73523 0,0.0755 -0.13488,0.67286 -0.29972,1.32754 -0.23767,0.94382 -0.38833,1.15172 -0.7276,1.00395 -1.28355,-0.55905 -2.85065,-0.70949 -3.61376,-0.34692 -1.79877,0.85463 -2.19194,3.79344 -0.71437,5.33953 0.66262,0.69335 0.85092,0.74901 2.18045,0.64452 0.80037,-0.0629 1.70178,-0.19894 2.00311,-0.30231 0.46945,-0.16103 0.59433,-0.033 0.87215,0.8943 0.17833,0.59523 0.25812,1.18921 0.17732,1.31996 -0.19463,0.31493 -2.56056,0.81273 -3.7932,0.79811 -0.53853,-0.006 -1.44854,-0.17881 -2.02221,-0.38317 z m 7.78992,-10.28894 c 0,-0.42557 0.38713,-0.94682 1.19472,-1.60857 1.31882,-1.08068 2.06201,-2.2681 1.8178,-2.90445 -0.17868,-0.46564 -1.454,-0.55836 -2.19861,-0.15985 -0.37838,0.2025 -0.53483,0.12079 -0.77407,-0.40429 -0.27141,-0.59565 -0.23103,-0.68432 0.42548,-0.93451 1.35252,-0.51544 2.08253,-0.55053 3.04935,-0.14657 1.70765,0.7135 1.66248,2.3586 -0.11774,4.28993 l -1.08307,1.17498 h 1.2243 c 1.12956,0 1.22434,0.0512 1.22434,0.66146 0,0.65656 -0.0177,0.66146 -2.38125,0.66146 -2.33146,0 -2.38125,-0.0132 -2.38125,-0.62959 z"
           style="fill:#ff9933;fill-opacity:1;stroke:none;stroke-width:0.264583"
           id="path3072" /><path
           d="m 189.6033,200.28019 c -0.36372,-0.14504 -0.92927,-0.51543 -1.25676,-0.8231 l -0.59546,-0.5594 v 0.70759 c 0,0.68843 -0.043,0.70757 -1.5875,0.70757 h -1.5875 v -7.9375 -7.9375 h 1.73581 1.73582 l -0.0822,3.00345 -0.0822,3.00346 0.97237,-0.64425 c 1.63393,-1.08257 4.01796,-0.77965 5.33725,0.67816 1.11413,1.23109 1.57599,4.48035 0.95478,6.71711 -0.69985,2.51991 -3.31365,3.97397 -5.54448,3.08441 z m 1.52091,-2.75515 c 1.20486,-0.84391 1.39461,-4.08611 0.30305,-5.17767 -0.75994,-0.75994 -2.18821,-0.66219 -2.86322,0.19596 -0.83915,1.0668 -0.78195,3.73605 0.10047,4.68818 0.73194,0.78979 1.60281,0.89372 2.4597,0.29353 z m 4.56437,-7.54873 c 0,-0.32514 0.65323,-1.16854 1.61077,-2.07969 1.2412,-1.18111 1.59022,-1.67779 1.52134,-2.16502 -0.0707,-0.49995 -0.27299,-0.64991 -0.96657,-0.71649 -0.48246,-0.0463 -1.05086,0.06 -1.26317,0.23614 -0.4423,0.36709 -0.50606,0.32743 -0.74991,-0.46656 -0.21102,-0.68715 0.31676,-1.04749 1.86494,-1.27326 1.24162,-0.18106 2.21837,0.27424 2.68759,1.25276 0.44673,0.93166 -0.10293,2.30613 -1.41832,3.54671 l -0.94308,0.88945 h 1.34174 c 1.25482,0 1.34176,0.0429 1.34176,0.66146 0,0.65914 -0.009,0.66146 -2.51354,0.66146 -2.3644,0 -2.51355,-0.0324 -2.51355,-0.54696 z"
           style="fill:#4dbc65;fill-opacity:1;stroke:none;stroke-width:0.264583"
           id="path1899" /><path
           d="m 205.87789,193.52904 v -0.8599 h 3.70417 3.70417 v 0.8599 0.8599 h -3.70417 -3.70417 z m 0,-3.04271 v -0.85989 h 3.70417 3.70417 v 0.85989 0.8599 h -3.70417 -3.70417 z"
           style="fill:#b3b3b3;stroke:none;stroke-width:0.264583"
           id="path1876" /><path
           d="m 174.38678,194.38894 v -1.5875 h -1.5875 -1.5875 v -0.79375 -0.79375 h 1.5875 1.5875 v -1.5875 -1.5875 h 0.92605 0.92604 v 1.5875 1.5875 h 1.5875 1.5875 v 0.79375 0.79375 h -1.5875 -1.5875 v 1.5875 1.5875 h -0.92604 -0.92605 z"
           style="fill:#b3b3b3;stroke:none;stroke-width:0.264583"
           id="path1853" /><path
           d="m 152.86818,198.16752 c -0.48049,-0.23681 -1.05929,-0.78959 -1.28622,-1.22842 -0.53395,-1.03254 -0.35212,-3.15593 0.33533,-3.91607 0.86812,-0.9599 2.52953,-1.62958 4.37077,-1.76176 1.62823,-0.11688 1.74244,-0.16567 1.61071,-0.68796 -0.078,-0.30918 -0.2713,-0.64963 -0.42958,-0.75654 -0.4813,-0.32509 -2.64085,-0.22547 -4.00371,0.18469 -0.70756,0.21294 -1.31685,0.35679 -1.35397,0.31967 -0.0371,-0.0371 -0.10221,-0.59016 -0.14464,-1.22899 l -0.0771,-1.1615 1.19062,-0.36369 c 1.63922,-0.50073 5.27054,-0.49525 6.24646,0.009 1.70053,0.87938 1.79398,1.15518 1.99444,5.88643 0.10105,2.38484 0.25974,4.45907 0.35265,4.6094 0.10967,0.17744 -0.43987,0.27333 -1.56647,0.27333 -1.67471,0 -1.73541,-0.0231 -1.73541,-0.66146 0,-0.76506 -0.30917,-0.8486 -0.8275,-0.22359 -0.92055,1.11001 -3.1689,1.44995 -4.67634,0.70704 z m 4.27045,-2.58865 c 0.26752,-0.20271 0.5824,-0.79424 0.69974,-1.3145 l 0.21334,-0.94592 h -1.04361 c -1.53822,0 -2.60483,0.63477 -2.60483,1.5502 0,0.40857 0.0794,0.82223 0.17639,0.91924 0.31318,0.31319 2.0579,0.17068 2.55897,-0.20902 z m 5.46672,-7.56988 c 0,-0.32514 0.65323,-1.16854 1.61075,-2.07969 1.24122,-1.18111 1.59024,-1.67779 1.52135,-2.16502 -0.0707,-0.49995 -0.27298,-0.64991 -0.96657,-0.71649 -0.48244,-0.0463 -1.05087,0.06 -1.26316,0.23614 -0.44232,0.36709 -0.50609,0.32743 -0.74992,-0.46656 -0.21103,-0.68715 0.31676,-1.04749 1.86494,-1.27326 1.24162,-0.18106 2.2184,0.27424 2.68759,1.25276 0.44673,0.93166 -0.10292,2.30613 -1.41831,3.54671 l -0.94309,0.88945 h 1.34175 c 1.25482,0 1.34176,0.0429 1.34176,0.66146 0,0.65914 -0.009,0.66146 -2.51354,0.66146 -2.36441,0 -2.51355,-0.0324 -2.51355,-0.54696 z"
           style="fill:#ff008c;fill-opacity:1;stroke:none;stroke-width:0.264583"
           id="path512" /></g><g
         id="g3560"
         transform="translate(-41.179488,14.666667)"><path
           d="m 31.534009,141.51685 c -1.55208,-0.7051 -2.67641,-2.1187 -3.02653,-3.8052 -1.02149,-4.92049 3.14134,-8.23438 8.38698,-6.67659 l 1.35319,0.40185 -0.40965,1.20224 c -0.31954,0.93781 -0.50477,1.16245 -0.84214,1.02132 -0.8737,-0.36549 -2.95953,-0.44004 -3.7024,-0.13233 -0.97065,0.40205 -1.36183,1.2698 -1.35442,3.00449 0.0111,2.59167 1.83578,3.69134 4.52868,2.72924 l 0.96269,-0.34394 0.29408,0.98156 c 0.42248,1.4101 0.39982,1.46619 -0.7288,1.80433 -1.54978,0.46433 -4.22998,0.37257 -5.46168,-0.18697 z"
           style="fill:#ff9933;fill-opacity:1;stroke:none;stroke-width:0.264583"
           id="path2704" /><path
           d="m 129.55553,140.11027 v -8.06979 h 1.71979 1.7198 v 3.05063 3.05063 l 0.81591,-0.60324 c 1.11053,-0.82105 3.56665,-0.85196 4.65479,-0.0586 1.30809,0.95375 1.93763,2.58202 1.93763,5.01159 0,2.54547 -0.65866,4.13699 -2.11667,5.11451 -0.77097,0.5169 -1.18084,0.60304 -2.44766,0.5144 -1.23241,-0.0862 -1.67245,-0.25096 -2.31511,-0.86667 l -0.79348,-0.7602 v 0.84325 0.84325 h -1.5875 -1.5875 z m 6.86441,4.90955 c 1.05214,-1.05214 1.04047,-3.81773 -0.0209,-4.94749 -1.09186,-1.16224 -2.87857,-0.56406 -3.2972,1.10389 -0.27597,1.09957 0.0378,3.25769 0.55715,3.83152 0.62368,0.68916 2.0775,0.69552 2.76094,0.0121 z"
           style="fill:#4dbc65;fill-opacity:1;stroke:none;stroke-width:0.264583"
           id="path2612" /><path
           d="m 48.476205,214.37076 c -0.97799,-0.59629 -1.38293,-1.43471 -1.38148,-2.86039 0.002,-2.17852 1.80106,-3.59004 5.00145,-3.92455 1.25696,-0.13138 1.61214,-0.26513 1.61214,-0.60706 0,-1.13453 -1.70898,-1.40182 -4.2114,-0.65869 -0.76837,0.22819 -1.43123,0.37701 -1.47301,0.33073 -0.0418,-0.0463 -0.15832,-0.5828 -0.25898,-1.19228 l -0.18301,-1.10815 1.39143,-0.41321 c 1.74831,-0.51919 4.98711,-0.53606 6.19289,-0.0323 1.56546,0.65409 1.97661,1.69081 2,5.04301 0.0112,1.60073 0.10932,3.53549 0.21813,4.29948 l 0.19784,1.38906 h -1.67236 c -1.63349,0 -1.67236,-0.0163 -1.67236,-0.70247 0,-0.64728 -0.0364,-0.67057 -0.46302,-0.29649 -1.5121,1.32581 -3.80576,1.64324 -5.29826,0.73327 z m 4.15486,-2.23806 c 0.81796,-0.42299 1.07725,-0.88501 1.07725,-1.91948 0,-0.6496 -0.0465,-0.6694 -1.20129,-0.51112 -1.69454,0.23226 -2.23829,0.58479 -2.23829,1.45116 0,1.33017 0.93469,1.71769 2.36233,0.97944 z"
           style="fill:#ff008c;fill-opacity:1;stroke:none;stroke-width:0.264583"
           id="path1503" /><path
           style="fill:#b3b3b3;stroke:none;stroke-width:0.264583"
           d="m -38.777097,199.30562 c -0.174858,-0.17486 -0.314849,-0.44294 -0.311092,-0.59574 0.0038,-0.1528 5.629458,-4.20508 12.501563,-9.00508 6.872102,-4.79999 18.2097301,-12.72332 25.19473,-17.60739 6.9849998,-4.88406 19.605625,-13.7066 28.045833,-19.60562 8.440208,-5.89903 22.132395,-15.46934 30.427083,-21.26736 8.294687,-5.79801 21.212968,-14.82785 28.707291,-20.0663 7.494327,-5.23844 19.146169,-13.388492 25.892979,-18.111207 6.74681,-4.722717 12.46181,-8.601048 12.7,-8.618514 0.3998,-0.02932 0.43306,4.388446 0.43306,57.515121 v 57.54687 l -81.636761,0.0666 c -63.276849,0.0516 -81.708263,-0.005 -81.954686,-0.25135 z m 152.142507,-6.36366 0.0719,-5.09323 5.09323,-0.0719 5.09323,-0.0719 v -50.52971 c 0,-27.79133 -0.0623,-50.529698 -0.13856,-50.529698 -0.0762,0 -5.10659,3.473054 -11.17864,7.717899 -6.07205,4.244843 -17.112282,11.963049 -24.533844,17.151569 -7.421563,5.18853 -19.685,13.76164 -27.252083,19.05136 -7.567083,5.28972 -19.83052,13.86244 -27.252083,19.05047 -7.421562,5.18804 -19.804062,13.84385 -27.5166662,19.23514 -7.7126039,5.39129 -20.2566928,14.16302 -27.8757528,19.49274 l -13.852837,9.6904 h 74.635144 74.635142 z m 10.25832,0.46302 v -4.6302 h -4.7625 -4.7625 v 4.6302 4.63021 h 4.7625 4.7625 z"
           id="path1843"
           sodipodi:nodetypes="scsssssssscsssccccssssssssccccccccccccc" /><path
           style="fill:none;fill-opacity:1;stroke:#ff5555;stroke-width:1.26758;stroke-linecap:square;stroke-linejoin:miter;stroke-dasharray:none;paint-order:fill markers stroke"
           d="m 124.20079,188.26406 -10.42076,0.0249 -0.12465,10.44569 10.52047,-0.0499 z"
           id="path3499" /></g></g></g></svg>
